SplineFontDB: 3.0
FontName: NovaRoundSlim-BookOblique
FullName: Nova Round Slim Book Oblique
FamilyName: Nova Round Slim
Weight: Book
Copyright: Copyright (c) 2020-2024 by Wojciech Kalinowski "wmk69" with Reserved Font Name "NovaRoundSlim-BookOblique".\nThis Font Software is licensed under the SIL Open Font License, Version 1.1.
Version: 3.1.0; 2021-05-23
ItalicAngle: -12
UnderlinePosition: -80
UnderlineWidth: 200
Ascent: 1638
Descent: 410
InvalidEm: 0
LayerCount: 2
Layer: 0 1 "Warstwa t+AUIA-a" 1
Layer: 1 1 "Plan pierwszy" 0
XUID: [1021 783 23647091 8360855]
StyleMap: 0x0001
FSType: 0
OS2Version: 3
OS2_WeightWidthSlopeOnly: 0
OS2_UseTypoMetrics: 1
CreationTime: 1260698820
ModificationTime: 1621762214
PfmFamily: 33
TTFWeight: 400
TTFWidth: 5
LineGap: 200
VLineGap: 0
Panose: 2 12 5 4 4 5 3 13 2 4
OS2TypoAscent: 2000
OS2TypoAOffset: 0
OS2TypoDescent: -500
OS2TypoDOffset: 0
OS2TypoLinegap: 200
OS2WinAscent: 2000
OS2WinAOffset: 0
OS2WinDescent: 500
OS2WinDOffset: 0
HheadAscent: 2000
HheadAOffset: 0
HheadDescent: -500
HheadDOffset: 0
OS2SubXSize: 1434
OS2SubYSize: 1331
OS2SubXOff: 0
OS2SubYOff: 287
OS2SupXSize: 1434
OS2SupYSize: 1331
OS2SupXOff: 0
OS2SupYOff: 977
OS2StrikeYSize: 102
OS2StrikeYPos: 512
OS2CapHeight: 1530
OS2XHeight: 1120
OS2Vendor: '    '
OS2CodePages: 20000093.00000000
OS2UnicodeRanges: 8000002f.4000204b.00000000.00000000
Lookup: 258 0 0 "'kern' Horizontal Kerning lookup 0" { "'kern' Horizontal Kerning lookup 0-1 subtable" [307,0,4] } ['kern' ('DFLT' <'dflt' > 'grek' <'dflt' > 'latn' <'dflt' > ) ]
MarkAttachClasses: 1
DEI: 91125
KernClass2: 65 55 "'kern' Horizontal Kerning lookup 0-1 subtable"
 134 A M N Agrave Aacute Acircumflex Atilde Adieresis Aring Ntilde Amacron Abreve Aogonek Nacute Ncommaaccent Ncaron Eng Aringacute uni1E40
 28 B germandbls uni1E02 uni1E9E
 47 C Ccedilla Cacute Ccircumflex Cdotaccent Ccaron
 122 D O Q Eth Ograve Oacute Ocircumflex Otilde Odieresis Oslash Dcaron Dcroat Omacron Obreve Ohungarumlaut Oslashacute uni1E0A

StartChar: .notdef
Encoding: 65536 -1 0
Width: 994
Flags: W
HStem: 0 68<274 748> 1442 68<567 1041>
VStem: 150 694<0 694> 471 694<816 1510>
DStem2: 150 0 259.546 0 0.207912 0.978148<92.2951 1497.19> 733.546 0 844 0 0.207912 0.978148<69.5192 1474.41>
LayerCount: 2
Fore
SplineSet
150 0 m 1,0,-1
 471 1510 l 1,1,-1
 1165 1510 l 1,2,-1
 844 0 l 1,3,-1
 150 0 l 1,0,-1
274 68 m 1,4,-1
 748 68 l 1,5,-1
 1041 1442 l 1,6,-1
 567 1442 l 1,7,-1
 274 68 l 1,4,-1
EndSplineSet
Validated: 1
EndChar

StartChar: exclam
Encoding: 33 33 4
Width: 600
GlyphClass: 2
Flags: W
HStem: -20 245<246.711 397.42> 1510 20G<668.556 725>
VStem: 199 246<27.5918 176.764>
DStem2: 195.726 -20 395.596 -20 0.207912 0.978148<562.949 1492.61>
LayerCount: 2
Fore
SplineSet
296 -20 m 128,-1,1
 246 -20 246 -20 218 16 c 0,2,3
 199 41 199 41 199 75 c 0,4,5
 199 88 199 88 202 102 c 0,6,7
 213 152 213 152 255.5 188.5 c 128,-1,8
 298 225 298 225 348 225 c 0,9,10
 400 225 400 225 426 189 c 0,11,12
 445 163 445 163 445 130 c 0,13,14
 445 116 445 116 442 102 c 0,15,16
 431 52 431 52 388.5 16 c 128,-1,0
 346 -20 346 -20 296 -20 c 128,-1,1
715 1530 m 1,17,-1
 725 1530 l 1,18,-1
 504 490 l 1,19,-1
 295 400 l 1,20,-1
 285 400 l 1,21,-1
 506 1440 l 1,22,-1
 715 1530 l 1,17,-1
EndSplineSet
Validated: 1
EndChar

StartChar: quotedbl
Encoding: 34 34 5
Width: 453
GlyphClass: 2
Flags: W
HStem: 1140 440
VStem: 292 447
DStem2: 292 1140 411.947 1140 0.207912 0.978148<78.1001 396.778> 525 1140 644.947 1140 0.207912 0.978148<78.1001 396.778>
LayerCount: 2
Fore
SplineSet
729 1580 m 1,0,-1
 739 1580 l 1,1,-1
 656 1192 l 1,2,-1
 535 1140 l 1,3,-1
 525 1140 l 1,4,-1
 608 1528 l 1,5,-1
 729 1580 l 1,0,-1
496 1580 m 1,6,-1
 506 1580 l 1,7,-1
 423 1192 l 1,8,-1
 302 1140 l 1,9,-1
 292 1140 l 1,10,-1
 375 1528 l 1,11,-1
 496 1580 l 1,6,-1
EndSplineSet
Validated: 1
EndChar

StartChar: numbersign
Encoding: 35 35 6
Width: 1368
GlyphClass: 2
Flags: W
HStem: 520 120<338 559 704 911 1056 1277> 872 120<413 633 779 985 1131 1351>
DStem2: 495 222 614.947 222 0.207912 0.978148<78.1001 304.794 452.319 664.488 812.221 1038.71> 847 222 966.947 222 0.207912 0.978148<78.1001 304.794 452.319 664.488 812.221 1038.71>
LayerCount: 2
Fore
SplineSet
832 1290 m 1,0,-1
 842 1290 l 1,1,-1
 779 992 l 1,2,-1
 1011 992 l 1,3,-1
 1063 1238 l 1,4,-1
 1184 1290 l 1,5,-1
 1194 1290 l 1,6,-1
 1131 992 l 1,7,-1
 1429 992 l 1,8,-1
 1427 982 l 1,9,-1
 1351 872 l 1,10,-1
 1105 872 l 1,11,-1
 1056 640 l 1,12,-1
 1354 640 l 1,13,-1
 1352 630 l 1,14,-1
 1277 520 l 1,15,-1
 1031 520 l 1,16,-1
 978 274 l 1,17,-1
 857 222 l 1,18,-1
 847 222 l 1,19,-1
 911 520 l 1,20,-1
 679 520 l 1,21,-1
 626 274 l 1,22,-1
 505 222 l 1,23,-1
 495 222 l 1,24,-1
 559 520 l 1,25,-1
 261 520 l 1,26,-1
 263 530 l 1,27,-1
 338 640 l 1,28,-1
 584 640 l 1,29,-1
 633 872 l 1,30,-1
 335 872 l 1,31,-1
 337 882 l 1,32,-1
 413 992 l 1,33,-1
 659 992 l 1,34,-1
 711 1238 l 1,35,-1
 832 1290 l 1,0,-1
985 872 m 1,36,-1
 753 872 l 1,37,-1
 704 640 l 1,38,-1
 936 640 l 1,39,-1
 985 872 l 1,36,-1
EndSplineSet
Validated: 1
EndChar

StartChar: dollar
Encoding: 36 36 7
Width: 1140
GlyphClass: 2
Flags: W
HStem: -18 90<418.291 512>
VStem: 147 192<180.977 363> 391 210<967.789 1278.02> 950 215<328.423 699.049> 1020 190<1233 1368.12>
DStem2: 490 -120 590.073 -120 0.207912 0.978148<63.7446 104.345 222.219 941.46 1065.39 1591.02 1701.63 1746.36>
LayerCount: 2
Fore
SplineSet
599 -78 m 1,0,-1
 500 -120 l 1,1,-1
 490 -120 l 1,2,-1
 512 -18 l 1,3,4
 335 -3 335 -3 232 121 c 0,5,6
 147 222 147 222 147 363 c 1,7,-1
 360 459 l 1,8,-1
 370 459 l 1,9,-1
 348 358 l 2,10,11
 339 317 339 317 339 283 c 0,12,13
 339 205 339 205 382 150 c 0,14,15
 435 81 435 81 531 72 c 1,16,-1
 686 800 l 1,17,18
 591 819 591 819 521 858 c 0,19,20
 391 930 391 930 391 1090 c 0,21,22
 391 1109 391 1109 393 1129 c 0,23,24
 410 1309 410 1309 561 1424 c 0,25,26
 689 1522 689 1522 841 1529 c 1,27,-1
 854 1588 l 1,28,-1
 952 1630 l 1,29,-1
 962 1630 l 1,30,-1
 940 1524 l 1,31,32
 1056 1504 1056 1504 1130 1417 c 0,33,34
 1208 1325 1208 1325 1210 1233 c 1,35,-1
 1010 1146 l 1,36,-1
 1002 1146 l 1,37,38
 1020 1230 1020 1230 1020 1287 c 128,-1,39
 1020 1344 1020 1344 1002 1373 c 0,40,41
 974 1418 974 1418 920 1433 c 1,42,-1
 807 899 l 1,43,44
 988 870 988 870 1086 763 c 0,45,46
 1165 677 1165 677 1165 540 c 0,47,48
 1165 510 1165 510 1161 477 c 0,49,50
 1138 266 1138 266 956 122 c 0,51,52
 796 -4 796 -4 612 -18 c 1,53,-1
 599 -78 l 1,0,-1
712 922 m 1,54,-1
 822 1436 l 1,55,56
 759 1424 759 1424 704 1375 c 0,57,58
 637 1314 637 1314 611 1190 c 0,59,60
 601 1141 601 1141 601 1101 c 0,61,62
 601 968 601 968 712 922 c 1,54,-1
782 782 m 1,63,-1
 632 77 l 1,64,65
 719 95 719 95 795 161 c 0,66,67
 898 250 898 250 935 425 c 0,68,69
 950 494 950 494 950 549 c 0,70,71
 950 624 950 624 922 674 c 0,72,73
 877 755 877 755 782 782 c 1,63,-1
EndSplineSet
Validated: 1
EndChar

StartChar: percent
Encoding: 37 37 8
Width: 1547
GlyphClass: 2
Flags: W
HStem: -20 63<1011.83 1187.59> 533 63<1101.93 1278.17> 914 63<581.845 757.605> 1467 63<671.945 848.181>
VStem: 399 145<1031.91 1326.14> 829 145<97.9121 392.139> 886 145<1117.86 1412.09> 1316 145<183.861 478.088>
DStem2: 358 47 491 -20 0.566694 0.823928<20.1671 1799.35>
LayerCount: 2
Fore
SplineSet
1093 43 m 0,0,1
 1161 43 1161 43 1217.5 97 c 128,-1,2
 1274 151 1274 151 1303 288 c 16,3,4
 1316 352 1316 352 1316 397 c 0,5,6
 1316 450 1316 450 1298 479 c 0,7,8
 1264 533 1264 533 1196.5 533 c 128,-1,9
 1129 533 1129 533 1072.5 479 c 128,-1,10
 1016 425 1016 425 987 288 c 16,11,12
 974 224 974 224 974 179 c 0,13,14
 974 126 974 126 992 97 c 0,15,16
 1026 43 1026 43 1093 43 c 0,0,1
767 1467 m 0,17,18
 699 1467 699 1467 642.5 1413 c 128,-1,19
 586 1359 586 1359 557 1222 c 16,20,21
 544 1158 544 1158 544 1113 c 0,22,23
 544 1060 544 1060 562 1031 c 0,24,25
 596 977 596 977 663.5 977 c 128,-1,26
 731 977 731 977 787.5 1031 c 128,-1,27
 844 1085 844 1085 873 1222 c 16,28,29
 886 1286 886 1286 886 1331 c 0,30,31
 886 1384 886 1384 868 1413 c 0,32,33
 834 1467 834 1467 767 1467 c 0,17,18
1094 -20 m 128,-1,35
 967 -20 967 -20 890 70 c 0,36,37
 829 142 829 142 829 238 c 0,38,39
 829 264 829 264 832 288 c 8,40,41
 852 415 852 415 960 505.5 c 128,-1,42
 1068 596 1068 596 1195 596 c 0,43,44
 1324 596 1324 596 1400 506 c 0,45,46
 1461 434 1461 434 1461 338 c 0,47,48
 1461 313 1461 313 1458 288 c 8,49,50
 1438 161 1438 161 1329.5 70.5 c 128,-1,34
 1221 -20 1221 -20 1094 -20 c 128,-1,35
481 -20 m 1,51,-1
 358 47 l 1,52,-1
 1377 1530 l 1,53,-1
 1387 1530 l 1,54,-1
 1511 1463 l 1,55,-1
 491 -20 l 1,56,-1
 481 -20 l 1,51,-1
765 1530 m 0,57,58
 894 1530 894 1530 970 1440 c 0,59,60
 1031 1368 1031 1368 1031 1272 c 0,61,62
 1031 1247 1031 1247 1028 1222 c 8,63,64
 1008 1095 1008 1095 899.5 1004.5 c 128,-1,65
 791 914 791 914 664 914 c 128,-1,66
 537 914 537 914 460 1004 c 0,67,68
 399 1076 399 1076 399 1172 c 0,69,70
 399 1198 399 1198 402 1222 c 8,71,72
 422 1349 422 1349 530 1439.5 c 128,-1,73
 638 1530 638 1530 765 1530 c 0,57,58
EndSplineSet
Validated: 1
EndChar

StartChar: ampersand
Encoding: 38 38 9
Width: 1624
GlyphClass: 2
Flags: W
HStem: -20 90<536.094 934.5> 1440 90<813.244 1080.8>
VStem: 239 189<183.337 517.199> 480 181<933.141 1261.44> 1125 185<1221 1379.86>
DStem2: 971 882 794 790 0.517683 -0.855572<0 562.176 726.257 936.35>
LayerCount: 2
Fore
SplineSet
674 -20 m 0,0,1
 462 -20 462 -20 334 115 c 0,2,3
 239 214 239 214 239 365 c 0,4,5
 239 407 239 407 246 453 c 0,6,7
 279 665 279 665 466 793 c 0,8,9
 520 830 520 830 576 852 c 1,10,11
 480 954 480 954 480 1089 c 0,12,13
 480 1115 480 1115 484 1142 c 0,14,15
 507 1314 507 1314 642 1418 c 0,16,17
 786 1530 786 1530 958 1530 c 0,18,19
 1144 1530 1144 1530 1239 1418 c 0,20,21
 1310 1334 1310 1334 1310 1221 c 1,22,-1
 1119 1138 l 1,23,-1
 1109 1138 l 1,24,25
 1125 1212 1125 1212 1125 1266 c 0,26,27
 1125 1334 1125 1334 1100 1372 c 0,28,29
 1056 1440 1056 1440 960 1440 c 0,30,31
 865 1440 865 1440 786 1376 c 0,32,33
 707 1313 707 1313 674 1160 c 0,34,35
 661 1100 661 1100 661 1058 c 0,36,37
 661 988 661 988 694 946 c 0,38,39
 746 882 746 882 841 882 c 2,40,-1
 971 882 l 1,41,-1
 1262 401 l 1,42,43
 1372 578 1372 578 1423 827 c 1,44,-1
 1637 919 l 1,45,-1
 1647 919 l 1,46,47
 1573 569 1573 569 1325 295 c 1,48,-1
 1472 54 l 1,49,-1
 1299 -20 l 1,50,-1
 1289 -20 l 1,51,-1
 1179 159 l 1,52,53
 945 -20 945 -20 674 -20 c 0,0,1
794 790 m 1,54,55
 682 778 682 778 586 688 c 0,56,57
 476 584 476 584 440 412 c 0,58,59
 429 358 429 358 428 313 c 0,60,61
 428 214 428 214 483 156 c 0,62,63
 563 70 563 70 719 70 c 0,64,65
 941 70 941 70 1132 238 c 1,66,-1
 794 790 l 1,54,55
EndSplineSet
Validated: 1
EndChar

StartChar: quotesingle
Encoding: 39 39 10
Width: 220
GlyphClass: 2
Flags: W
HStem: 1140 440
VStem: 292 214
DStem2: 292 1140 411.947 1140 0.207912 0.978148<78.1001 396.778>
LayerCount: 2
Fore
SplineSet
496 1580 m 1,0,-1
 506 1580 l 1,1,-1
 423 1192 l 1,2,-1
 302 1140 l 1,3,-1
 292 1140 l 1,4,-1
 375 1528 l 1,5,-1
 496 1580 l 1,0,-1
EndSplineSet
Validated: 1
EndChar

StartChar: parenleft
Encoding: 40 40 11
Width: 756
GlyphClass: 2
Flags: W
HStem: -240 90<515.944 655> 1660 90<886.703 1059>
VStem: 242 180<-38.6982 203.521>
DStem2: 148.997 -240 348.654 -240 0.207912 0.978148<394.611 1779.27>
LayerCount: 2
Fore
SplineSet
655 -240 m 1,0,1
 445 -240 445 -240 327 -99 c 0,2,3
 242 3 242 3 242 142 c 0,4,5
 242 195 242 195 254 254 c 2,6,-1
 467 1256 l 2,7,8
 516 1487 516 1487 670 1609 c 0,9,10
 848 1750 848 1750 1078 1750 c 1,11,-1
 1059 1660 l 1,12,13
 933 1660 933 1660 826 1579.5 c 128,-1,14
 719 1499 719 1499 692 1372 c 18,15,-1
 429 138 l 2,16,17
 422 104 422 104 422 73 c 0,18,19
 422 -11 422 -11 475 -70 c 0,20,21
 548 -150 548 -150 674 -150 c 1,22,-1
 655 -240 l 1,0,1
EndSplineSet
Validated: 1
EndChar

StartChar: parenright
Encoding: 41 41 12
Width: 756
GlyphClass: 2
Flags: W
HStem: -240 90<18 190.297> 1660 90<422 561.056>
VStem: 655 180<1203.75 1549.01>
DStem2: 304.654 -240 504.997 -240 0.207912 0.978148<296.786 1681.5>
LayerCount: 2
Fore
SplineSet
-1 -240 m 1,0,1
 18 -150 l 1,2,3
 144 -150 144 -150 251 -70 c 0,4,5
 358 11 358 11 385 138 c 18,6,-1
 648 1372 l 2,7,8
 655 1406 655 1406 655 1437 c 0,9,10
 655 1522 655 1522 602 1580 c 0,11,12
 529 1660 529 1660 403 1660 c 1,13,-1
 422 1750 l 1,14,15
 632 1750 632 1750 750 1609 c 0,16,17
 835 1507 835 1507 835 1368 c 0,18,19
 835 1315 835 1315 823 1256 c 2,20,-1
 610 254 l 2,21,22
 561 23 561 23 407 -99 c 0,23,24
 229 -240 229 -240 -1 -240 c 1,0,1
EndSplineSet
Validated: 1
EndChar

StartChar: asterisk
Encoding: 42 42 13
Width: 748
GlyphClass: 2
Flags: W
HStem: 900 680
DStem2: 288 1122 377 1044 0.889118 0.457677<43.4327 243.802 485.703 686.073> 460 1436 339 1358 0.834738 -0.550647<0 156.342 356.679 512.186> 505 900 624.947 900 0.207912 0.978148<78.1001 241.238 478.999 642.137>
LayerCount: 2
Fore
SplineSet
760 1580 m 1,0,-1
 770 1580 l 1,1,-1
 720 1344 l 1,2,-1
 898 1436 l 1,3,-1
 984 1367 l 1,4,-1
 987 1358 l 1,5,-1
 758 1240 l 1,6,-1
 936 1122 l 1,7,-1
 930 1113 l 1,8,-1
 815 1044 l 1,9,-1
 675 1136 l 1,10,-1
 636 952 l 1,11,-1
 515 900 l 1,12,-1
 505 900 l 1,13,-1
 555 1136 l 1,14,-1
 377 1044 l 1,15,-1
 292 1113 l 1,16,-1
 288 1122 l 1,17,-1
 518 1240 l 1,18,-1
 339 1358 l 1,19,-1
 346 1367 l 1,20,-1
 460 1436 l 1,21,-1
 600 1344 l 1,22,-1
 639 1528 l 1,23,-1
 760 1580 l 1,0,-1
EndSplineSet
Validated: 1
EndChar

StartChar: plus
Encoding: 43 43 14
Width: 1200
GlyphClass: 2
Flags: W
HStem: 680 150<392 670 851 1129>
DStem2: 590 305 739.971 305 0.207912 0.978148<98.6553 383.438 567.792 852.575>
LayerCount: 2
Fore
SplineSet
767 1139 m 1,0,-1
 921 1205 l 1,1,-1
 931 1205 l 1,2,-1
 851 830 l 1,3,-1
 1226 830 l 1,4,-1
 1224 820 l 1,5,-1
 1129 680 l 1,6,-1
 820 680 l 1,7,-1
 754 371 l 1,8,-1
 600 305 l 1,9,-1
 590 305 l 1,10,-1
 670 680 l 1,11,-1
 295 680 l 1,12,-1
 297 690 l 1,13,-1
 392 830 l 1,14,-1
 701 830 l 1,15,-1
 767 1139 l 1,0,-1
EndSplineSet
Validated: 1
EndChar

StartChar: comma
Encoding: 44 44 15
Width: 389
GlyphClass: 2
Flags: W
HStem: -276 554
VStem: 187 166<-64.7295 154.218>
LayerCount: 2
Fore
SplineSet
279 278 m 1,0,-1
 289 278 l 1,1,2
 353 198 353 198 353 101 c 0,3,4
 353 68 353 68 346 34 c 0,5,6
 304 -163 304 -163 55 -276 c 1,7,-1
 50 -269 l 1,8,9
 155 -139 155 -139 182 -10 c 0,10,11
 187 14 187 14 187 37 c 0,12,13
 187 134 187 134 92 198 c 1,14,-1
 279 278 l 1,0,-1
EndSplineSet
Validated: 1
EndChar

StartChar: hyphen
Encoding: 45 45 16
Width: 1200
GlyphClass: 2
Flags: W
HStem: 680 150<392 1129>
LayerCount: 2
Fore
SplineSet
392 830 m 5,0,-1
 1226 830 l 5,1,-1
 1224 820 l 5,2,-1
 1129 680 l 5,3,-1
 295 680 l 5,4,-1
 297 690 l 5,5,-1
 392 830 l 5,0,-1
EndSplineSet
Validated: 1
EndChar

StartChar: period
Encoding: 46 46 17
Width: 340
GlyphClass: 2
Flags: W
HStem: -20 245<116.901 267.42>
VStem: 69 246<27.5918 176.764>
LayerCount: 2
Fore
SplineSet
166 -20 m 0,0,1
 114 -20 114 -20 88 16 c 0,2,3
 69 42 69 42 69 75 c 0,4,5
 69 88 69 88 72 102 c 0,6,7
 83 152 83 152 125.5 188.5 c 128,-1,8
 168 225 168 225 218 225 c 128,-1,9
 268 225 268 225 296 189 c 0,10,11
 315 165 315 165 315 130 c 0,12,13
 315 116 315 116 312 102 c 0,14,15
 301 52 301 52 258.5 16 c 128,-1,16
 216 -20 216 -20 166 -20 c 0,0,1
EndSplineSet
Validated: 1
EndChar

StartChar: slash
Encoding: 47 47 18
Width: 1039
GlyphClass: 2
Flags: W
DStem2: -18 -133 114 -200 0.565598 0.824681<19.4053 2233.67>
LayerCount: 2
Fore
SplineSet
104 -200 m 1,0,-1
 -18 -133 l 1,1,-1
 1244 1710 l 1,2,-1
 1254 1710 l 1,3,-1
 1378 1643 l 1,4,-1
 114 -200 l 1,5,-1
 104 -200 l 1,0,-1
EndSplineSet
Validated: 1
EndChar

StartChar: zero
Encoding: 48 48 19
Width: 1330
GlyphClass: 2
Flags: W
HStem: -20 90<523.953 852.846> 1440 90<798.93 1127.77>
VStem: 249 189<191.994 529.188> 1213 189<980.812 1319.83>
DStem2: 155.997 -20 365.654 -20 0.207912 0.978148<400.388 1329.85> 955.654 -20 1166 -20 0.207912 0.978148<298.317 1227.85>
LayerCount: 2
Fore
SplineSet
680.5 70 m 128,-1,1
 807 70 807 70 908 150.5 c 128,-1,2
 1009 231 1009 231 1036 358 c 18,3,-1
 1205 1152 l 2,4,5
 1213 1188 1213 1188 1213 1221 c 0,6,7
 1213 1302 1213 1302 1165 1360 c 0,8,9
 1098 1440 1098 1440 971.5 1440 c 128,-1,10
 845 1440 845 1440 743.5 1359.5 c 128,-1,11
 642 1279 642 1279 615 1152 c 18,12,-1
 446 358 l 2,13,14
 438 322 438 322 438 289 c 0,15,16
 438 208 438 208 486 150 c 0,17,0
 554 70 554 70 680.5 70 c 128,-1,1
681.5 -20 m 128,-1,19
 471 -20 471 -20 344 121 c 0,20,21
 250 225 250 225 249 368 c 0,22,23
 249 418 249 418 261 474 c 2,24,-1
 380 1036 l 2,25,26
 428 1267 428 1267 582 1389 c 0,27,28
 760 1530 760 1530 970.5 1530 c 128,-1,29
 1181 1530 1181 1530 1308 1389 c 0,30,31
 1402 1285 1402 1285 1402 1142 c 0,32,33
 1402 1091 1402 1091 1390 1036 c 2,34,-1
 1271 474 l 2,35,36
 1222 243 1222 243 1069 121 c 0,37,18
 892 -20 892 -20 681.5 -20 c 128,-1,19
EndSplineSet
Validated: 1
EndChar

StartChar: one
Encoding: 49 49 20
Width: 714
GlyphClass: 2
Flags: W
HStem: -20 21G<260 316.444> 1510 20G<732.816 789>
VStem: 260 529
DStem2: 260 -20 459.87 -20 0.207912 0.978148<133.566 1392.32> 301 1323 281 1228 0.917649 0.397392<0 235.127>
LayerCount: 2
Fore
SplineSet
260 -20 m 1,0,-1
 549 1342 l 1,1,-1
 281 1228 l 1,2,-1
 301 1323 l 1,3,-1
 779 1530 l 1,4,-1
 789 1530 l 1,5,-1
 479 70 l 1,6,-1
 270 -20 l 1,7,-1
 260 -20 l 1,0,-1
EndSplineSet
Validated: 1
EndChar

StartChar: two
Encoding: 50 50 21
Width: 1273
GlyphClass: 2
Flags: W
HStem: 0 180<394 1063> 1440 90<761.498 1087.4>
VStem: 345 204<902.653 1173> 1162 209<963.85 1328.64>
DStem2: 238 180 394 180 0.817806 0.575493<127.578 994.759>
LayerCount: 2
Fore
SplineSet
120 0 m 1,0,-1
 122 10 l 1,1,-1
 238 180 l 1,2,-1
 832 598 l 2,3,4
 1085 776 1085 776 1144 1059 c 0,5,6
 1162 1146 1162 1146 1162 1212 c 0,7,8
 1162 1289 1162 1289 1137 1337 c 0,9,10
 1082 1440 1082 1440 936 1440 c 0,11,12
 789 1440 789 1440 685 1339 c 0,13,14
 595 1252 595 1252 557 1067 c 0,15,16
 549 1030 549 1030 549 996 c 0,17,18
 549 951 549 951 563 914 c 1,19,-1
 378 833 l 1,20,-1
 368 833 l 1,21,22
 345 897 345 897 345 967 c 0,23,24
 345 1017 345 1017 357 1070 c 0,25,26
 399 1263 399 1263 539 1385 c 0,27,28
 707 1530 707 1530 940 1530 c 128,-1,29
 1173 1530 1173 1530 1289 1385 c 0,30,31
 1371 1282 1371 1282 1371 1146 c 0,32,33
 1371 1094 1371 1094 1359 1037 c 0,34,35
 1304 771 1304 771 948 540 c 2,36,-1
 394 180 l 1,37,-1
 1181 180 l 1,38,-1
 1179 170 l 1,39,-1
 1063 0 l 1,40,-1
 120 0 l 1,0,-1
EndSplineSet
Validated: 1
EndChar

StartChar: three
Encoding: 51 51 22
Width: 1223
GlyphClass: 2
Flags: W
HStem: -20 90<470.874 775.494> 1420 90<572 1047>
VStem: 193 197<180.978 405.002> 1009 203<379.243 756.255>
DStem2: 651 876 896 928 0.603937 0.797032<189.41 672.744>
LayerCount: 2
Fore
SplineSet
615 -20 m 0,0,1
 373 -20 373 -20 271 125 c 0,2,3
 193 235 193 235 193 372 c 0,4,5
 193 385 193 385 194 397 c 1,6,-1
 403 487 l 1,7,-1
 413 487 l 1,8,9
 390 379 390 379 390 302 c 0,10,11
 390 218 390 218 418 173 c 0,12,13
 483 70 483 70 614 70 c 0,14,15
 746 70 746 70 854 173 c 0,16,17
 943 258 943 258 988 470 c 0,18,19
 1009 570 1009 570 1009 639 c 128,-1,20
 1009 708 1009 708 988 747 c 0,21,22
 932 851 932 851 780 851 c 0,23,24
 714 851 714 851 673 840 c 1,25,-1
 651 876 l 1,26,-1
 1047 1420 l 1,27,-1
 515 1420 l 1,28,-1
 517 1430 l 1,29,-1
 572 1510 l 1,30,-1
 1337 1510 l 1,31,-1
 896 928 l 1,32,33
 1042 916 1042 916 1136 802 c 0,34,35
 1212 709 1212 709 1212 572 c 0,36,37
 1212 524 1212 524 1203 472 c 0,38,39
 1165 254 1165 254 1016 125 c 0,40,41
 848 -20 848 -20 615 -20 c 0,0,1
EndSplineSet
Validated: 1
EndChar

StartChar: four
Encoding: 52 52 23
Width: 1232
GlyphClass: 2
Flags: W
HStem: -20 21G<778 834.444> 340 90<277 854 1073 1166> 1510 20G<1250.56 1307>
DStem2: 84 350 277 430 0.677495 0.735527<189.599 1333.24> 778 -20 977.87 -20 0.207912 0.978148<133.566 367.934 501.5 1319.76>
LayerCount: 2
Fore
SplineSet
277 430 m 1,0,-1
 873 430 l 1,1,-1
 1052 1271 l 1,2,-1
 277 430 l 1,0,-1
778 -20 m 1,3,-1
 854 340 l 1,4,-1
 82 340 l 1,5,-1
 84 350 l 1,6,-1
 1088 1440 l 1,7,-1
 1297 1530 l 1,8,-1
 1307 1530 l 1,9,-1
 1073 430 l 1,10,-1
 1223 430 l 1,11,-1
 1221 420 l 1,12,-1
 1166 340 l 1,13,-1
 1054 340 l 1,14,-1
 997 70 l 1,15,-1
 788 -20 l 1,16,-1
 778 -20 l 1,3,-1
EndSplineSet
Validated: 1
EndChar

StartChar: five
Encoding: 53 53 24
Width: 1223
GlyphClass: 2
Flags: W
HStem: -20 90<473.065 775.052> 861 90<598.775 931.099> 1420 90<811 1290>
VStem: 193 197<172.274 404.971> 1010 202<381.422 759.847>
DStem2: 374 889 563 889 0.411036 0.911619<77.6858 663.692>
LayerCount: 2
Fore
SplineSet
615 -20 m 0,0,1
 370 -20 370 -20 266 125 c 0,2,3
 193 227 193 227 193 369 c 0,4,5
 193 383 193 383 194 397 c 1,6,-1
 403 487 l 1,7,-1
 413 487 l 1,8,9
 390 379 390 379 390 302 c 0,10,11
 390 218 390 218 418 173 c 0,12,13
 483 70 483 70 614 70 c 0,14,15
 742 70 742 70 854 173 c 0,16,17
 942 254 942 254 988 470 c 0,18,19
 1010 573 1010 573 1010 644 c 0,20,21
 1010 725 1010 725 982 765 c 0,22,23
 916 861 916 861 782 861 c 0,24,25
 662 861 662 861 544 797 c 1,26,-1
 374 889 l 1,27,-1
 654 1510 l 1,28,-1
 1347 1510 l 1,29,-1
 1345 1500 l 1,30,-1
 1290 1420 l 1,31,-1
 811 1420 l 1,32,-1
 563 889 l 1,33,34
 674 951 674 951 803 951 c 0,35,36
 1002 951 1002 951 1125 817 c 0,37,38
 1212 723 1212 723 1212 575 c 0,39,40
 1212 526 1212 526 1203 472 c 0,41,42
 1165 254 1165 254 1016 125 c 0,43,44
 850 -20 850 -20 615 -20 c 0,0,1
EndSplineSet
Validated: 1
EndChar

StartChar: six
Encoding: 54 54 25
Width: 1300
GlyphClass: 2
Flags: W
HStem: -20 90<527.176 830.144> 878 90<682.455 984.588> 1440 90<796.722 1127.45>
VStem: 249 194<189.34 568.627> 1074 208<380.298 753.879> 1222 181<1147 1312.68>
DStem2: 155.997 -20 357.997 -20 0.207912 0.978148<400.418 816.661 922.794 1329.95>
LayerCount: 2
Fore
SplineSet
674 70 m 0,0,1
 789 70 789 70 898 160 c 0,2,3
 1006 249 1006 249 1054 474 c 16,4,5
 1074 565 1074 565 1074 634 c 0,6,7
 1074 735 1074 735 1032 788 c 0,8,9
 962 878 962 878 846 878 c 0,10,11
 726 878 726 878 618 789 c 0,12,13
 511 701 511 701 463 474 c 0,14,15
 443 379 443 379 443 308 c 0,16,17
 443 210 443 210 481 158 c 0,18,19
 547 70 547 70 674 70 c 0,0,1
680.5 -20 m 128,-1,21
 470 -20 470 -20 343 121 c 0,22,23
 249 225 249 225 249 368 c 0,24,25
 249 419 249 419 261 474 c 2,26,-1
 380 1036 l 2,27,28
 429 1267 429 1267 582 1389 c 0,29,30
 759 1530 759 1530 969 1530 c 0,31,32
 1189 1530 1189 1530 1307 1389 c 0,33,34
 1402 1275 1402 1275 1403 1147 c 1,35,-1
 1206 1062 l 1,36,-1
 1196 1062 l 1,37,-1
 1215 1152 l 2,38,39
 1222 1186 1222 1186 1222 1218 c 0,40,41
 1221 1302 1221 1302 1169 1360 c 0,42,43
 1097 1440 1097 1440 970.5 1440 c 128,-1,44
 844 1440 844 1440 738 1359.5 c 128,-1,45
 632 1279 632 1279 605 1152 c 2,46,-1
 539 842 l 1,47,48
 694 968 694 968 860 968 c 0,49,50
 1071 968 1071 968 1189 827 c 0,51,52
 1282 717 1282 717 1282 557 c 0,53,54
 1282 517 1282 517 1276 474 c 8,55,56
 1246 262 1246 262 1068.5 121 c 128,-1,20
 891 -20 891 -20 680.5 -20 c 128,-1,21
EndSplineSet
Validated: 1
EndChar

StartChar: seven
Encoding: 55 55 26
Width: 967
GlyphClass: 2
Flags: W
HStem: -20 21G<158 214.333> 1420 90<369 1022>
DStem2: 158 -20 446 100 0.514496 0.857493<251.074 1679.31>
LayerCount: 2
Fore
SplineSet
158 -20 m 1,0,-1
 1022 1420 l 1,1,-1
 312 1420 l 1,2,-1
 314 1430 l 1,3,-1
 369 1510 l 1,4,-1
 1278 1510 l 1,5,-1
 1276 1500 l 1,6,-1
 446 100 l 1,7,-1
 168 -20 l 1,8,-1
 158 -20 l 1,0,-1
EndSplineSet
Validated: 1
EndChar

StartChar: eight
Encoding: 56 56 27
Width: 1210
GlyphClass: 2
Flags: W
HStem: -20 100<472.647 787.524> 795 84<664.843 917.172> 1450 80<773.1 1034.51>
VStem: 187 203<179.502 538.105> 427 184<931.904 1268.76> 1007 218<339.61 712.013> 1093 177<1064.08 1374.1>
LayerCount: 2
Fore
SplineSet
621 -20 m 0,0,1
 420 -20 420 -20 282 115 c 0,2,3
 187 209 187 209 187 356 c 0,4,5
 187 402 187 402 196 453 c 0,6,7
 234 668 234 668 416 793 c 0,8,9
 470 830 470 830 526 852 c 1,10,11
 427 941 427 941 427 1076 c 0,12,13
 427 1105 427 1105 432 1137 c 0,14,15
 458 1314 458 1314 592 1418 c 0,16,17
 736 1530 736 1530 908 1530 c 0,18,19
 1082 1530 1082 1530 1190 1418 c 0,20,21
 1270 1335 1270 1335 1270 1219 c 0,22,23
 1270 1181 1270 1181 1261 1139 c 0,24,25
 1223 960 1223 960 1047 852 c 1,26,27
 1097 830 1097 830 1132 793 c 0,28,29
 1225 693 1225 693 1225 546 c 0,30,31
 1225 499 1225 499 1218 457 c 0,32,33
 1184 250 1184 250 1007.5 115 c 128,-1,34
 831 -20 831 -20 621 -20 c 0,0,1
912 1450 m 0,35,36
 817 1450 817 1450 738 1386 c 0,37,38
 657 1321 657 1321 624 1164 c 16,39,40
 611 1102 611 1102 611 1055 c 0,41,42
 611 983 611 983 644 942 c 0,43,44
 695 879 695 879 791 879 c 0,45,46
 889 879 889 879 965 942 c 0,47,48
 1046 1008 1046 1008 1080 1165 c 16,49,50
 1093 1226 1093 1226 1093 1273 c 0,51,52
 1093 1346 1093 1346 1060 1386 c 0,53,54
 1008 1450 1008 1450 912 1450 c 0,35,36
774 795 m 0,55,56
 648 795 648 795 546.5 709.5 c 128,-1,57
 445 624 445 624 405 438 c 16,58,59
 390 367 390 367 390 311 c 0,60,61
 390 220 390 220 430 166 c 0,62,63
 496 80 496 80 620 80 c 128,-1,64
 744 80 744 80 850 165 c 0,65,66
 950 246 950 246 991 438 c 16,67,68
 1007 511 1007 511 1007 568 c 0,69,70
 1007 660 1007 660 966 710 c 0,71,72
 896 795 896 795 774 795 c 0,55,56
EndSplineSet
Validated: 1
EndChar

StartChar: nine
Encoding: 57 57 28
Width: 1300
GlyphClass: 2
Flags: W
HStem: -20 90<493.548 824.278> 542 90<636.412 938.545> 1440 90<790.856 1093.82>
VStem: 218 181<197.32 363> 339 208<756.121 1129.7> 1178 194<941.373 1320.66>
DStem2: 935.654 -20 1136 -20 0.207912 0.978148<296.238 703.393 814.028 1225.77>
LayerCount: 2
Fore
SplineSet
947 1440 m 0,0,1
 832 1440 832 1440 723 1350 c 0,2,3
 615 1261 615 1261 567 1036 c 16,4,5
 547 945 547 945 547 876 c 0,6,7
 547 775 547 775 589 722 c 0,8,9
 659 632 659 632 775 632 c 0,10,11
 895 632 895 632 1003 721 c 0,12,13
 1110 809 1110 809 1158 1036 c 0,14,15
 1178 1131 1178 1131 1178 1202 c 0,16,17
 1178 1300 1178 1300 1140 1352 c 0,18,19
 1074 1440 1074 1440 947 1440 c 0,0,1
652 -20 m 0,20,21
 432 -20 432 -20 314 121 c 0,22,23
 219 235 219 235 218 363 c 1,24,-1
 415 448 l 1,25,-1
 425 448 l 1,26,-1
 406 358 l 2,27,28
 399 324 399 324 399 292 c 0,29,30
 400 208 400 208 452 150 c 0,31,32
 524 70 524 70 650.5 70 c 128,-1,33
 777 70 777 70 883 150.5 c 128,-1,34
 989 231 989 231 1016 358 c 2,35,-1
 1082 668 l 1,36,37
 927 542 927 542 761 542 c 0,38,39
 550 542 550 542 432 683 c 0,40,41
 339 793 339 793 339 953 c 0,42,43
 339 993 339 993 345 1036 c 8,44,45
 375 1248 375 1248 552.5 1389 c 128,-1,46
 730 1530 730 1530 940.5 1530 c 128,-1,47
 1151 1530 1151 1530 1278 1389 c 0,48,49
 1372 1285 1372 1285 1372 1142 c 0,50,51
 1372 1091 1372 1091 1360 1036 c 2,52,-1
 1241 474 l 2,53,54
 1192 243 1192 243 1039 121 c 0,55,56
 862 -20 862 -20 652 -20 c 0,20,21
EndSplineSet
Validated: 1
EndChar

StartChar: colon
Encoding: 58 58 29
Width: 340
GlyphClass: 2
Flags: W
HStem: -20 245<116.711 267.42> 632 245<254.711 405.42>
VStem: 69 246<27.5918 176.764> 207 246<679.592 828.764>
LayerCount: 2
Fore
SplineSet
356 877 m 0,0,1
 408 877 408 877 434 841 c 0,2,3
 453 816 453 816 453 782 c 0,4,5
 453 768 453 768 450 754 c 0,6,7
 439 704 439 704 396.5 668 c 128,-1,8
 354 632 354 632 304 632 c 128,-1,9
 254 632 254 632 226 668 c 0,10,11
 207 693 207 693 207 727 c 0,12,13
 207 740 207 740 210 754 c 0,14,15
 221 804 221 804 263.5 840.5 c 128,-1,16
 306 877 306 877 356 877 c 0,0,1
166 -20 m 128,-1,18
 116 -20 116 -20 88 16 c 0,19,20
 69 41 69 41 69 75 c 0,21,22
 69 88 69 88 72 102 c 0,23,24
 83 152 83 152 125.5 188.5 c 128,-1,25
 168 225 168 225 218 225 c 0,26,27
 270 225 270 225 296 189 c 0,28,29
 315 163 315 163 315 130 c 0,30,31
 315 116 315 116 312 102 c 0,32,33
 301 52 301 52 258.5 16 c 128,-1,17
 216 -20 216 -20 166 -20 c 128,-1,18
EndSplineSet
Validated: 1
EndChar

StartChar: semicolon
Encoding: 59 59 30
Width: 389
GlyphClass: 2
Flags: W
HStem: 632 245<274.711 425.42>
VStem: 187 166<-64.7295 154.218> 227 246<679.592 828.764>
LayerCount: 2
Fore
SplineSet
376 877 m 0,0,1
 428 877 428 877 454 841 c 0,2,3
 473 816 473 816 473 782 c 0,4,5
 473 768 473 768 470 754 c 0,6,7
 459 704 459 704 416.5 668 c 128,-1,8
 374 632 374 632 324 632 c 128,-1,9
 274 632 274 632 246 668 c 0,10,11
 227 693 227 693 227 727 c 0,12,13
 227 740 227 740 230 754 c 0,14,15
 241 804 241 804 283.5 840.5 c 128,-1,16
 326 877 326 877 376 877 c 0,0,1
279 278 m 1,17,-1
 289 278 l 1,18,19
 353 198 353 198 353 101 c 0,20,21
 353 68 353 68 346 34 c 0,22,23
 304 -163 304 -163 55 -276 c 1,24,-1
 50 -269 l 1,25,26
 155 -139 155 -139 182 -10 c 0,27,28
 187 14 187 14 187 37 c 0,29,30
 187 134 187 134 92 198 c 1,31,-1
 279 278 l 1,17,-1
EndSplineSet
Validated: 1
EndChar

StartChar: less
Encoding: 60 60 31
Width: 1315
GlyphClass: 2
Flags: W
DStem2: 484 774 295 680 0.933865 -0.357626<0 749.109> 392 830 484 774 0.945706 0.325023<68.8037 977.047>
LayerCount: 2
Fore
SplineSet
392 830 m 1,0,-1
 1326 1151 l 1,1,-1
 1345 1079 l 1,2,-1
 1343 1069 l 1,3,-1
 484 774 l 1,4,-1
 1222 505 l 1,5,-1
 1220 495 l 1,6,-1
 1128 361 l 1,7,-1
 295 680 l 1,8,-1
 297 690 l 1,9,-1
 392 830 l 1,0,-1
EndSplineSet
Validated: 1
EndChar

StartChar: equal
Encoding: 61 61 32
Width: 1200
GlyphClass: 2
Flags: W
HStem: 480 150<350 1086> 880 150<435 1171>
LayerCount: 2
Fore
SplineSet
435 1030 m 1,0,-1
 1269 1030 l 1,1,-1
 1267 1020 l 1,2,-1
 1171 880 l 1,3,-1
 337 880 l 1,4,-1
 339 890 l 1,5,-1
 435 1030 l 1,0,-1
350 630 m 1,6,-1
 1184 630 l 1,7,-1
 1182 620 l 1,8,-1
 1086 480 l 1,9,-1
 252 480 l 1,10,-1
 254 490 l 1,11,-1
 350 630 l 1,6,-1
EndSplineSet
Validated: 1
EndChar

StartChar: greater
Encoding: 62 62 33
Width: 1315
GlyphClass: 2
Flags: W
DStem2: 293 441 310 359 0.945706 0.325023<0 908.243> 508 1149 414 1005 0.933865 -0.357626<0 749.109>
LayerCount: 2
Fore
SplineSet
1244 680 m 1,0,-1
 310 359 l 1,1,-1
 291 431 l 1,2,-1
 293 441 l 1,3,-1
 1152 736 l 1,4,-1
 414 1005 l 1,5,-1
 416 1015 l 1,6,-1
 508 1149 l 1,7,-1
 1341 830 l 1,8,-1
 1339 820 l 1,9,-1
 1244 680 l 1,0,-1
EndSplineSet
Validated: 1
EndChar

StartChar: question
Encoding: 63 63 34
Width: 1300
GlyphClass: 2
Flags: W
HStem: -20 245<571.58 722.42> 1440 90<786.241 1118.55>
VStem: 366 203<902.312 1180.3> 524 246<27.5918 176.764> 1197 191<991.632 1337.59>
LayerCount: 2
Fore
SplineSet
960 1530 m 0,0,1
 1181 1530 1181 1530 1309 1385 c 0,2,3
 1388 1296 1388 1296 1388 1170 c 0,4,5
 1388 1123 1388 1123 1377 1070 c 0,6,7
 1316 781 1316 781 952 616 c 0,8,9
 852 571 852 571 823 434 c 1,10,-1
 610 341 l 1,11,-1
 600 341 l 1,12,13
 649 573 649 573 882 678 c 0,14,15
 1116 784 1116 784 1181 1092 c 0,16,17
 1197 1168 1197 1168 1197 1225 c 0,18,19
 1197 1296 1197 1296 1172 1337 c 0,20,21
 1109 1440 1109 1440 961 1440 c 0,22,23
 816 1440 816 1440 706 1337 c 0,24,25
 616 1253 616 1253 577 1067 c 0,26,27
 569 1030 569 1030 569 996 c 0,28,29
 569 951 569 951 583 914 c 1,30,-1
 398 833 l 1,31,-1
 388 833 l 1,32,33
 366 896 366 896 366 966 c 0,34,35
 366 1016 366 1016 377 1070 c 0,36,37
 420 1273 420 1273 559 1385 c 0,38,39
 738 1530 738 1530 960 1530 c 0,0,1
621 -20 m 0,40,41
 572 -20 572 -20 544 16 c 0,42,43
 524 42 524 42 524 75 c 0,44,45
 524 88 524 88 527 102 c 0,46,47
 538 152 538 152 580.5 188.5 c 128,-1,48
 623 225 623 225 673 225 c 0,49,50
 722 225 722 225 750 189 c 0,51,52
 770 163 770 163 770 130 c 0,53,54
 770 116 770 116 767 102 c 0,55,56
 756 52 756 52 713.5 16 c 128,-1,57
 671 -20 671 -20 621 -20 c 0,40,41
EndSplineSet
Validated: 1
EndChar

StartChar: at
Encoding: 64 64 35
Width: 1380
GlyphClass: 2
Flags: W
HStem: -430 80<462.828 594> -20 80<856.524 1006> 589 80<940.747 1145> 1040 80<733.932 1072.19>
VStem: 181 165<-241.348 136.406> 584 178<137.507 426.841> 1183 161<670.021 916.432>
DStem2: 88.7217 -430 268.977 -430 0.207912 0.978148<387.797 1338.64> 928.847 -430 1108.72 -430 0.207912 0.978148<548.568 1041.67 1122.84 1220.32>
LayerCount: 2
Fore
SplineSet
1006 -20 m 1,0,-1
 940 -20 l 2,1,2
 762 -20 762 -20 666 70 c 0,3,4
 584 148 584 148 584 267 c 0,5,6
 584 297 584 297 589 330 c 0,7,8
 613 481 613 481 745 573 c 0,9,10
 882 669 882 669 1056 669 c 2,11,-1
 1159 669 l 1,12,-1
 1176 749 l 2,13,14
 1183 782 1183 782 1183 811 c 0,15,16
 1183 887 1183 887 1137 945 c 0,17,18
 1061 1040 1061 1040 910 1040 c 0,19,20
 767 1040 767 1040 657 953 c 0,21,22
 544 865 544 865 513 720 c 2,23,-1
 354 -30 l 2,24,25
 346 -69 346 -69 346 -104 c 0,26,27
 346 -189 346 -189 394 -251 c 0,28,29
 472 -350 472 -350 611 -350 c 2,30,-1
 682 -350 l 1,31,-1
 679 -360 l 1,32,-1
 594 -430 l 1,33,34
 366 -430 366 -430 254 -285 c 0,35,36
 181 -190 181 -190 181 -55 c 0,37,38
 181 4 181 4 195 70 c 2,39,-1
 312 620 l 2,40,41
 363 858 363 858 502 975 c 0,42,43
 675 1120 675 1120 908 1120 c 0,44,45
 1151 1120 1151 1120 1262 975 c 0,46,47
 1344 868 1344 868 1344 731 c 0,48,49
 1344 678 1344 678 1332 620 c 2,50,-1
 1215 70 l 1,51,-1
 1006 -20 l 1,0,-1
1145 589 m 1,52,53
 986 589 986 589 891 522.5 c 128,-1,54
 796 456 796 456 769 327 c 0,55,56
 762 292 762 292 762 261 c 0,57,58
 762 184 762 184 808 136 c 0,59,60
 884 60 884 60 1033 60 c 1,61,-1
 1145 589 l 1,52,53
EndSplineSet
Validated: 1
EndChar

StartChar: A
Encoding: 65 65 36
Width: 1370
GlyphClass: 2
Flags: W
HStem: -20 21G<176 232.444 986 1042.44> 710 90<550 1141> 1440 90<817.582 1149.17>
VStem: 1242 180<1090.46 1320.19>
DStem2: 176 -20 375.87 -20 0.207912 0.978148<133.566 787.856 879.84 1329.85> 986 -20 1185.87 -20 0.207912 0.978148<133.566 746.274 838.258 1225.7>
LayerCount: 2
Fore
SplineSet
176 -20 m 1,0,-1
 400 1036 l 2,1,2
 448 1267 448 1267 602 1389 c 0,3,4
 780 1530 780 1530 990.5 1530 c 128,-1,5
 1201 1530 1201 1530 1328 1389 c 0,6,7
 1422 1285 1422 1285 1422 1142 c 0,8,9
 1422 1091 1422 1091 1410 1036 c 2,10,-1
 1205 70 l 1,11,-1
 996 -20 l 1,12,-1
 986 -20 l 1,13,-1
 1141 710 l 1,14,-1
 531 710 l 1,15,-1
 395 70 l 1,16,-1
 186 -20 l 1,17,-1
 176 -20 l 1,0,-1
1160 800 m 1,18,-1
 1235 1152 l 2,19,20
 1242 1187 1242 1187 1242 1218 c 0,21,22
 1242 1302 1242 1302 1190 1360 c 0,23,24
 1118 1440 1118 1440 991.5 1440 c 128,-1,25
 865 1440 865 1440 758.5 1359.5 c 128,-1,26
 652 1279 652 1279 625 1152 c 2,27,-1
 550 800 l 1,28,-1
 1160 800 l 1,18,-1
EndSplineSet
Validated: 1
EndChar

StartChar: B
Encoding: 66 66 37
Width: 1250
GlyphClass: 2
Flags: W
HStem: 0 90<419 847.943> 791 90<587 983.139> 1420 90<702 1088.19>
VStem: 1059 218<336.355 715.554> 1128 199<1047.65 1350.7>
DStem2: 200 0 399.87 0 0.207912 0.978148<133.566 850.226 942.21 1472.15>
LayerCount: 2
Fore
SplineSet
587 881 m 1,0,-1
 842 881 l 2,1,2
 934 881 934 881 1003 932 c 0,3,4
 1080 989 1080 989 1115 1154 c 0,5,6
 1128 1216 1128 1216 1128 1262 c 0,7,8
 1128 1334 1128 1334 1096 1369 c 0,9,10
 1049 1420 1049 1420 957 1420 c 2,11,-1
 702 1420 l 1,12,-1
 587 881 l 1,0,-1
419 90 m 1,13,-1
 663 90 l 2,14,15
 818 90 818 90 923 185 c 0,16,17
 1004 258 1004 258 1042 438 c 0,18,19
 1059 519 1059 519 1059 578 c 0,20,21
 1059 653 1059 653 1032 696 c 0,22,23
 971 791 971 791 812 791 c 2,24,-1
 568 791 l 1,25,-1
 419 90 l 1,13,-1
200 0 m 1,26,-1
 506 1440 l 1,27,-1
 669 1510 l 1,28,-1
 966 1510 l 2,29,30
 1130 1510 1130 1510 1227 1418 c 0,31,32
 1327 1324 1327 1324 1327 1197 c 0,33,34
 1327 1170 1327 1170 1322 1141 c 0,35,36
 1288 938 1288 938 1103 838 c 1,37,38
 1156 814 1156 814 1189 777 c 0,39,40
 1277 679 1277 679 1277 543 c 0,41,42
 1277 490 1277 490 1264 430 c 0,43,44
 1222 244 1222 244 1091 137 c 0,45,46
 925 0 925 0 685 0 c 2,47,-1
 200 0 l 1,26,-1
EndSplineSet
Validated: 1
EndChar

StartChar: C
Encoding: 67 67 38
Width: 1250
GlyphClass: 2
Flags: W
HStem: -20 90<524.267 854.595> 1440 90<797.301 1123.54>
VStem: 249 189<191.69 422.31> 1208 185<1143 1312.25>
DStem2: 155.997 -20 365.654 -20 0.207912 0.978148<400.358 1330.42>
LayerCount: 2
Fore
SplineSet
682 -20 m 128,-1,1
 472 -20 472 -20 344 121 c 0,2,3
 249 226 249 226 249 368 c 0,4,5
 249 417 249 417 261 474 c 2,6,-1
 380 1036 l 2,7,8
 429 1268 429 1268 582 1389 c 0,9,10
 760 1530 760 1530 970 1530 c 0,11,12
 1182 1530 1182 1530 1298 1389 c 0,13,14
 1392 1275 1392 1275 1393 1143 c 1,15,-1
 1189 1055 l 1,16,-1
 1179 1055 l 1,17,-1
 1200 1152 l 2,18,19
 1208 1189 1208 1189 1208 1223 c 0,20,21
 1208 1304 1208 1304 1162 1360 c 0,22,23
 1098 1440 1098 1440 971.5 1440 c 128,-1,24
 845 1440 845 1440 744 1360 c 0,25,26
 642 1279 642 1279 615 1152 c 2,27,-1
 446 358 l 2,28,29
 438 320 438 320 438 289 c 0,30,31
 438 206 438 206 486 150 c 0,32,33
 554 70 554 70 680 70 c 0,34,35
 810 70 810 70 906 150 c 0,36,37
 1003 231 1003 231 1031 358 c 18,38,-1
 1035 376 l 1,39,-1
 1261 474 l 1,40,-1
 1271 474 l 1,41,42
 1222 243 1222 243 1069 121 c 0,43,0
 892 -20 892 -20 682 -20 c 128,-1,1
EndSplineSet
Validated: 1
EndChar

StartChar: D
Encoding: 68 68 39
Width: 1350
GlyphClass: 2
Flags: W
HStem: 0 90<419 870.661> 1420 90<702 1136.5>
VStem: 1228 188<957.094 1283.52>
DStem2: 200 0 399.87 0 0.207912 0.978148<133.566 1472.15> 979.654 0 1190 0 0.207912 0.978148<300.091 1170.23>
LayerCount: 2
Fore
SplineSet
419 90 m 1,0,-1
 694 90 l 2,1,2
 819 90 819 90 926 170 c 128,-1,3
 1033 250 1033 250 1060 378 c 18,4,-1
 1221 1132 l 2,5,6
 1228 1166 1228 1166 1228 1198 c 0,7,8
 1228 1282 1228 1282 1176 1340 c 0,9,10
 1104 1420 1104 1420 977 1420 c 2,11,-1
 702 1420 l 1,12,-1
 419 90 l 1,0,-1
200 0 m 1,13,-1
 506 1440 l 1,14,-1
 669 1510 l 1,15,-1
 986 1510 l 2,16,17
 1197 1510 1197 1510 1314 1369 c 0,18,19
 1416 1247 1416 1247 1416 1105 c 0,20,21
 1416 1061 1416 1061 1406 1016 c 2,22,-1
 1295 494 l 2,23,24
 1246 265 1246 265 1092 141 c 0,25,26
 916 0 916 0 705 0 c 2,27,-1
 200 0 l 1,13,-1
EndSplineSet
Validated: 1
EndChar

StartChar: E
Encoding: 69 69 40
Width: 1060
GlyphClass: 2
Flags: W
HStem: 0 90<419 972> 710 90<570 1073> 1420 90<702 1224>
DStem2: 200 0 399.87 0 0.207912 0.978148<133.566 767.462 859.445 1472.15>
CounterMasks: 1 e0
LayerCount: 2
Fore
SplineSet
200 0 m 1,0,-1
 506 1440 l 1,1,-1
 669 1510 l 1,2,-1
 1281 1510 l 1,3,-1
 1279 1500 l 1,4,-1
 1224 1420 l 1,5,-1
 702 1420 l 1,6,-1
 570 800 l 1,7,-1
 1130 800 l 1,8,-1
 1128 790 l 1,9,-1
 1073 710 l 1,10,-1
 551 710 l 1,11,-1
 419 90 l 1,12,-1
 1029 90 l 1,13,-1
 1027 80 l 1,14,-1
 972 0 l 1,15,-1
 200 0 l 1,0,-1
EndSplineSet
Validated: 1
EndChar

StartChar: F
Encoding: 70 70 41
Width: 1010
GlyphClass: 2
Flags: W
HStem: -20 21G<196 252.444> 710 90<570 1073> 1420 90<702 1224>
DStem2: 196 -20 395.87 -20 0.207912 0.978148<133.566 787.856 879.84 1492.55>
LayerCount: 2
Fore
SplineSet
196 -20 m 1,0,-1
 506 1440 l 1,1,-1
 669 1510 l 1,2,-1
 1281 1510 l 1,3,-1
 1279 1500 l 1,4,-1
 1224 1420 l 1,5,-1
 702 1420 l 1,6,-1
 570 800 l 1,7,-1
 1130 800 l 1,8,-1
 1128 790 l 1,9,-1
 1073 710 l 1,10,-1
 551 710 l 1,11,-1
 415 70 l 1,12,-1
 206 -20 l 1,13,-1
 196 -20 l 1,0,-1
EndSplineSet
Validated: 1
EndChar

StartChar: G
Encoding: 71 71 42
Width: 1330
GlyphClass: 2
Flags: W
HStem: -20 90<524.282 854.61> 710 90<830 1111> 1440 90<797.301 1123.54>
VStem: 249 189<190.539 422.31> 1208 185<1143 1312.25>
DStem2: 155.997 -20 365.654 -20 0.207912 0.978148<400.358 1330.42> 955.654 -20 1166 -20 0.207912 0.978148<298.317 746.346>
CounterMasks: 1 e0
LayerCount: 2
Fore
SplineSet
682 -20 m 128,-1,1
 472 -20 472 -20 344 121 c 0,2,3
 249 226 249 226 249 368 c 0,4,5
 249 417 249 417 261 474 c 2,6,-1
 380 1036 l 2,7,8
 429 1268 429 1268 582 1389 c 0,9,10
 760 1530 760 1530 970 1530 c 0,11,12
 1182 1530 1182 1530 1298 1389 c 0,13,14
 1392 1275 1392 1275 1393 1143 c 1,15,-1
 1189 1055 l 1,16,-1
 1179 1055 l 1,17,-1
 1200 1152 l 2,18,19
 1208 1189 1208 1189 1208 1223 c 0,20,21
 1208 1304 1208 1304 1162 1360 c 0,22,23
 1098 1440 1098 1440 971.5 1440 c 128,-1,24
 845 1440 845 1440 744 1360 c 0,25,26
 642 1279 642 1279 615 1152 c 18,27,-1
 446 358 l 2,28,29
 438 320 438 320 438 289 c 0,30,31
 438 208 438 208 486 150 c 0,32,33
 554 70 554 70 680.5 70 c 128,-1,34
 807 70 807 70 908 150 c 0,35,36
 1009 231 1009 231 1036 358 c 18,37,-1
 1111 710 l 1,38,-1
 773 710 l 1,39,-1
 775 720 l 1,40,-1
 830 800 l 1,41,-1
 1340 800 l 1,42,-1
 1271 474 l 2,43,44
 1222 243 1222 243 1069 121 c 0,45,0
 892 -20 892 -20 682 -20 c 128,-1,1
EndSplineSet
Validated: 1
EndChar

StartChar: H
Encoding: 72 72 43
Width: 1400
GlyphClass: 2
Flags: W
HStem: -20 21G<196 252.444 996 1052.44> 710 90<570 1151> 1510 20G<668.556 725 1468.56 1525>
DStem2: 196 -20 395.87 -20 0.207912 0.978148<133.566 787.856 879.84 1492.55> 996 -20 1195.87 -20 0.207912 0.978148<133.566 746.274 838.258 1492.55>
LayerCount: 2
Fore
SplineSet
196 -20 m 1,0,-1
 506 1440 l 1,1,-1
 715 1530 l 1,2,-1
 725 1530 l 1,3,-1
 570 800 l 1,4,-1
 1170 800 l 1,5,-1
 1306 1440 l 1,6,-1
 1515 1530 l 1,7,-1
 1525 1530 l 1,8,-1
 1215 70 l 1,9,-1
 1006 -20 l 1,10,-1
 996 -20 l 1,11,-1
 1151 710 l 1,12,-1
 551 710 l 1,13,-1
 415 70 l 1,14,-1
 206 -20 l 1,15,-1
 196 -20 l 1,0,-1
EndSplineSet
Validated: 1
EndChar

StartChar: I
Encoding: 73 73 44
Width: 600
GlyphClass: 2
Flags: W
HStem: -20 21G<196 252.444> 1510 20G<668.556 725>
VStem: 196 529
DStem2: 196 -20 395.87 -20 0.207912 0.978148<133.566 1492.55>
LayerCount: 2
Fore
SplineSet
196 -20 m 1,0,-1
 506 1440 l 1,1,-1
 715 1530 l 1,2,-1
 725 1530 l 1,3,-1
 415 70 l 1,4,-1
 206 -20 l 1,5,-1
 196 -20 l 1,0,-1
EndSplineSet
Validated: 1
EndChar

StartChar: J
Encoding: 74 74 45
Width: 1150
GlyphClass: 2
Flags: W
HStem: -20 90<366.32 683.36> 1420 90<484 1092>
VStem: 97 192<197.75 367>
DStem2: 785.654 -20 985.997 -20 0.207912 0.978148<290.3 1472.23>
LayerCount: 2
Fore
SplineSet
514 -20 m 128,-1,1
 308 -20 308 -20 192 121 c 0,2,3
 98 235 98 235 97 367 c 1,4,-1
 310 459 l 1,5,-1
 320 459 l 1,6,-1
 298 358 l 2,7,8
 289 317 289 317 289 283 c 0,9,10
 290 206 290 206 332 150 c 0,11,12
 392 70 392 70 513.5 70 c 128,-1,13
 635 70 635 70 737 150 c 0,14,15
 839 231 839 231 866 358 c 18,16,-1
 1092 1420 l 1,17,-1
 427 1420 l 1,18,-1
 429 1430 l 1,19,-1
 484 1510 l 1,20,-1
 1311 1510 l 1,21,-1
 1091 474 l 2,22,23
 1042 242 1042 242 893 121 c 0,24,0
 720 -20 720 -20 514 -20 c 128,-1,1
EndSplineSet
Validated: 1
EndChar

StartChar: K
Encoding: 75 75 46
Width: 1350
GlyphClass: 2
Flags: W
HStem: -20 21G<196 252.444 986 1042.44> 964 90<890 1045.11> 1510 20G<668.556 725 1353.84 1428.92>
VStem: 1141 181<611.627 852.698>
DStem2: 196 -20 395.87 -20 0.207912 0.978148<133.566 927.876 1040.27 1492.55> 603 957 672 884 0.804506 0.593944<0.0958571 201.701 288.506 966.236> 986 -20 1185.87 -20 0.207912 0.978148<133.566 745.174>
LayerCount: 2
Fore
SplineSet
206 -20 m 1,0,-1
 196 -20 l 1,1,-1
 506 1440 l 1,2,-1
 715 1530 l 1,3,-1
 725 1530 l 1,4,-1
 603 957 l 1,5,-1
 1381 1530 l 1,6,-1
 1391 1530 l 1,7,-1
 1482 1482 l 1,8,-1
 890 1054 l 1,9,10
 902 1054 902 1054 914 1054 c 0,11,12
 1120 1054 1120 1054 1237 913 c 0,13,14
 1322 811 1322 811 1322 672 c 0,15,16
 1322 621 1322 621 1309 560 c 2,17,-1
 1205 70 l 1,18,-1
 996 -20 l 1,19,-1
 986 -20 l 1,20,-1
 1134 676 l 2,21,22
 1141 709 1141 709 1141 742 c 0,23,24
 1141 826 1141 826 1089 884 c 0,25,26
 1017 964 1017 964 895.5 964 c 128,-1,27
 774 964 774 964 672 884 c 0,28,29
 571 803 571 803 544 676 c 2,30,-1
 415 70 l 1,31,-1
 206 -20 l 1,0,-1
EndSplineSet
Validated: 1
EndChar

StartChar: L
Encoding: 76 76 47
Width: 1020
GlyphClass: 2
Flags: W
HStem: 0 90<419 972> 1510 20G<668.556 725>
DStem2: 200 0 399.87 0 0.207912 0.978148<133.566 1472.15>
LayerCount: 2
Fore
SplineSet
200 0 m 1,0,-1
 506 1440 l 1,1,-1
 715 1530 l 1,2,-1
 725 1530 l 1,3,-1
 419 90 l 1,4,-1
 1029 90 l 1,5,-1
 1027 80 l 1,6,-1
 972 0 l 1,7,-1
 200 0 l 1,0,-1
EndSplineSet
Validated: 1
EndChar

StartChar: M
Encoding: 77 77 48
Width: 2180
GlyphClass: 2
Flags: W
HStem: -20 21G<176 232.444 986 1042.44 1796 1852.44> 1440 90<817.582 1148.35 1626.78 1959.26>
VStem: 2052 180<1086.37 1320.19>
DStem2: 176 -20 375.87 -20 0.207912 0.978148<133.566 1329.85> 986 -20 1185.87 -20 0.207912 0.978148<133.566 1263.22> 1796 -20 1995.87 -20 0.207912 0.978148<133.566 1225.7>
LayerCount: 2
Fore
SplineSet
176 -20 m 1,0,-1
 400 1036 l 2,1,2
 448 1267 448 1267 602 1389 c 0,3,4
 780 1530 780 1530 990.5 1530 c 128,-1,5
 1201 1530 1201 1530 1318 1389 c 0,6,7
 1339 1364 1339 1364 1354 1337 c 1,8,9
 1378 1361 1378 1361 1413 1389 c 0,10,11
 1586 1530 1586 1530 1801 1530 c 0,12,13
 2011 1530 2011 1530 2138 1389 c 0,14,15
 2232 1285 2232 1285 2232 1142 c 0,16,17
 2232 1091 2232 1091 2220 1036 c 2,18,-1
 2015 70 l 1,19,-1
 1806 -20 l 1,20,-1
 1796 -20 l 1,21,-1
 2045 1152 l 2,22,23
 2052 1187 2052 1187 2052 1218 c 0,24,25
 2052 1302 2052 1302 2000 1360 c 0,26,27
 1928 1440 1928 1440 1801.5 1440 c 128,-1,28
 1675 1440 1675 1440 1568.5 1359.5 c 128,-1,29
 1462 1279 1462 1279 1435 1152 c 2,30,-1
 1205 70 l 1,31,-1
 996 -20 l 1,32,-1
 986 -20 l 1,33,-1
 1235 1152 l 2,34,35
 1242 1187 1242 1187 1242 1218 c 0,36,37
 1242 1302 1242 1302 1190 1360 c 0,38,39
 1118 1440 1118 1440 991.5 1440 c 128,-1,40
 865 1440 865 1440 758.5 1359.5 c 128,-1,41
 652 1279 652 1279 625 1152 c 2,42,-1
 395 70 l 1,43,-1
 186 -20 l 1,44,-1
 176 -20 l 1,0,-1
EndSplineSet
Validated: 1
EndChar

StartChar: N
Encoding: 78 78 49
Width: 1370
GlyphClass: 2
Flags: W
HStem: -20 21G<176 232.444 986 1042.44> 1440 90<817.582 1149.17>
VStem: 1242 180<1086.37 1320.19>
DStem2: 176 -20 375.87 -20 0.207912 0.978148<133.566 1329.85> 986 -20 1185.87 -20 0.207912 0.978148<133.566 1225.7>
LayerCount: 2
Fore
SplineSet
176 -20 m 9,0,-1
 400 1036 l 2,1,2
 448 1267 448 1267 602 1389 c 0,3,4
 780 1530 780 1530 990.5 1530 c 128,-1,5
 1201 1530 1201 1530 1328 1389 c 0,6,7
 1422 1285 1422 1285 1422 1142 c 0,8,9
 1422 1091 1422 1091 1410 1036 c 2,10,-1
 1205 70 l 17,11,-1
 996 -20 l 1,12,-1
 986 -20 l 9,13,-1
 1235 1152 l 2,14,15
 1242 1187 1242 1187 1242 1218 c 0,16,17
 1242 1302 1242 1302 1190 1360 c 0,18,19
 1118 1440 1118 1440 991.5 1440 c 128,-1,20
 865 1440 865 1440 758.5 1359.5 c 128,-1,21
 652 1279 652 1279 625 1152 c 18,22,-1
 395 70 l 17,23,-1
 186 -20 l 1,24,-1
 176 -20 l 9,0,-1
EndSplineSet
Validated: 1
EndChar

StartChar: O
Encoding: 79 79 50
Width: 1330
GlyphClass: 2
Flags: W
HStem: -20 90<523.953 852.846> 1440 90<798.93 1127.77>
VStem: 249 189<191.994 529.188> 1213 189<980.812 1319.83>
DStem2: 155.997 -20 365.654 -20 0.207912 0.978148<400.388 1329.85> 955.654 -20 1166 -20 0.207912 0.978148<298.317 1227.85>
LayerCount: 2
Fore
SplineSet
680.5 70 m 128,-1,1
 807 70 807 70 908 150.5 c 128,-1,2
 1009 231 1009 231 1036 358 c 18,3,-1
 1205 1152 l 2,4,5
 1213 1188 1213 1188 1213 1221 c 0,6,7
 1213 1302 1213 1302 1165 1360 c 0,8,9
 1098 1440 1098 1440 971.5 1440 c 128,-1,10
 845 1440 845 1440 743.5 1359.5 c 128,-1,11
 642 1279 642 1279 615 1152 c 18,12,-1
 446 358 l 2,13,14
 438 322 438 322 438 289 c 0,15,16
 438 208 438 208 486 150 c 0,17,0
 554 70 554 70 680.5 70 c 128,-1,1
681.5 -20 m 128,-1,19
 471 -20 471 -20 344 121 c 0,20,21
 250 225 250 225 249 368 c 0,22,23
 249 418 249 418 261 474 c 2,24,-1
 380 1036 l 2,25,26
 428 1267 428 1267 582 1389 c 0,27,28
 760 1530 760 1530 970.5 1530 c 128,-1,29
 1181 1530 1181 1530 1308 1389 c 0,30,31
 1402 1285 1402 1285 1402 1142 c 0,32,33
 1402 1091 1402 1091 1390 1036 c 2,34,-1
 1271 474 l 2,35,36
 1222 243 1222 243 1069 121 c 0,37,18
 892 -20 892 -20 681.5 -20 c 128,-1,19
EndSplineSet
Validated: 1
EndChar

StartChar: P
Encoding: 80 80 51
Width: 1210
GlyphClass: 2
Flags: W
HStem: -20 21G<196 252.444> 500 90<525 940.188> 1420 90<702 1093.89>
VStem: 1178 200<909.865 1296.55>
DStem2: 196 -20 395.87 -20 0.207912 0.978148<133.566 573.089 665.073 1492.55>
LayerCount: 2
Fore
SplineSet
525 590 m 1,0,-1
 781 590 l 10,1,2
 908 590 908 590 1010 689 c 128,-1,3
 1112 788 1112 788 1158 1004 c 0,4,5
 1178 1098 1178 1098 1178 1172 c 0,6,7
 1178 1264 1178 1264 1144 1320 c 0,8,9
 1084 1420 1084 1420 958 1420 c 18,10,-1
 702 1420 l 1,11,-1
 525 590 l 1,0,-1
196 -20 m 1,12,-1
 506 1440 l 1,13,-1
 669 1510 l 1,14,-1
 967 1510 l 2,15,16
 1188 1510 1188 1510 1294 1364 c 0,17,18
 1377 1250 1377 1250 1378 1079 c 0,19,20
 1378 1042 1378 1042 1374 1004 c 0,21,22
 1350 781 1350 781 1187 644 c 0,23,24
 1017 500 1017 500 792 500 c 2,25,-1
 506 500 l 1,26,-1
 415 70 l 1,27,-1
 206 -20 l 1,28,-1
 196 -20 l 1,12,-1
EndSplineSet
Validated: 1
EndChar

StartChar: Q
Encoding: 81 81 52
Width: 1330
GlyphClass: 2
Flags: W
HStem: -20 90<524.186 830.535> 1440 90<797.582 1129.17>
VStem: 251 178<207.05 533.578> 1222 180<976.422 1320.7>
DStem2: 151.746 -40 351.402 -40 0.207912 0.978148<437.664 1350.3> 865 540 661 457 0.436318 -0.899793<0 320.225 467.804 538.023> 961.633 -40 1161.29 -40 0.207912 0.978148<339.608 1246.17>
LayerCount: 2
Fore
SplineSet
661 457 m 1,0,-1
 855 540 l 1,1,-1
 865 540 l 1,2,-1
 1005 252 l 1,3,4
 1034 300 1034 300 1046 358 c 2,5,-1
 1215 1152 l 2,6,7
 1222 1187 1222 1187 1222 1218 c 0,8,9
 1222 1302 1222 1302 1170 1360 c 0,10,11
 1098 1440 1098 1440 971.5 1440 c 128,-1,12
 845 1440 845 1440 738.5 1359.5 c 128,-1,13
 632 1279 632 1279 605 1152 c 2,14,-1
 436 358 l 2,15,16
 429 324 429 324 429 293 c 0,17,18
 429 209 429 209 482 150 c 0,19,20
 555 70 555 70 681 70 c 0,21,22
 762 70 762 70 833 103 c 1,23,-1
 661 457 l 1,0,-1
682 -20 m 0,24,25
 472 -20 472 -20 354 121 c 0,26,27
 251 244 251 244 251 385 c 0,28,29
 251 428 251 428 261 474 c 2,30,-1
 380 1036 l 2,31,32
 428 1267 428 1267 582 1389 c 0,33,34
 760 1530 760 1530 970.5 1530 c 128,-1,35
 1181 1530 1181 1530 1308 1389 c 0,36,37
 1402 1285 1402 1285 1402 1142 c 0,38,39
 1402 1091 1402 1091 1390 1036 c 2,40,-1
 1271 474 l 2,41,42
 1228 271 1228 271 1063 132 c 1,43,-1
 1106 43 l 1,44,-1
 912 -40 l 1,45,-1
 902 -40 l 1,46,-1
 874 19 l 1,47,48
 773 -20 773 -20 682 -20 c 0,24,25
EndSplineSet
Validated: 1
EndChar

StartChar: R
Encoding: 82 82 53
Width: 1294
GlyphClass: 2
Flags: W
HStem: -20 21G<196 252.444 1018.5 1087.97> 500 90<525 756> 1420 90<702 1093.89>
VStem: 1178 200<910.378 1296.55>
DStem2: 196 -20 395.87 -20 0.207912 0.978148<133.566 573.089 665.073 1492.55> 974 526 756 500 0.464834 -0.885398<0 508.993>
LayerCount: 2
Fore
SplineSet
525 590 m 1,0,-1
 781 590 l 10,1,2
 908 590 908 590 1010 689 c 128,-1,3
 1112 788 1112 788 1158 1004 c 0,4,5
 1178 1098 1178 1098 1178 1172 c 0,6,7
 1178 1264 1178 1264 1144 1320 c 0,8,9
 1084 1420 1084 1420 958 1420 c 18,10,-1
 702 1420 l 1,11,-1
 525 590 l 1,0,-1
206 -20 m 1,12,-1
 196 -20 l 1,13,-1
 506 1440 l 1,14,-1
 669 1510 l 1,15,-1
 967 1510 l 2,16,17
 1188 1510 1188 1510 1294 1364 c 0,18,19
 1377 1250 1377 1250 1378 1079 c 0,20,21
 1378 1042 1378 1042 1374 1004 c 0,22,23
 1350 784 1350 784 1187 644 c 0,24,25
 1090 561 1090 561 974 526 c 1,26,-1
 1230 58 l 1,27,-1
 1039 -20 l 1,28,-1
 1029 -20 l 1,29,-1
 756 500 l 1,30,-1
 506 500 l 1,31,-1
 415 70 l 1,32,-1
 206 -20 l 1,12,-1
EndSplineSet
Validated: 1
EndChar

StartChar: T
Encoding: 84 84 54
Width: 1070
GlyphClass: 2
Flags: W
HStem: -20 21G<431 487.444> 1420 90<369 737 937 1324>
DStem2: 431 -20 630.87 -20 0.207912 0.978148<133.566 1472.15>
LayerCount: 2
Fore
SplineSet
431 -20 m 1,0,-1
 737 1420 l 1,1,-1
 312 1420 l 1,2,-1
 314 1430 l 1,3,-1
 369 1510 l 1,4,-1
 1381 1510 l 1,5,-1
 1379 1500 l 1,6,-1
 1324 1420 l 1,7,-1
 937 1420 l 1,8,-1
 650 70 l 1,9,-1
 441 -20 l 1,10,-1
 431 -20 l 1,0,-1
EndSplineSet
Validated: 1
EndChar

StartChar: U
Encoding: 85 85 55
Width: 1370
GlyphClass: 2
Flags: W
HStem: -20 90<541.74 873.001> 1510 20G<648.556 705 1458.56 1515>
VStem: 269 180<189.809 423.632>
DStem2: 175.997 -20 375.654 -20 0.207912 0.978148<400.418 1492.55> 985.654 -20 1186 -20 0.207912 0.978148<296.863 1492.62>
LayerCount: 2
Fore
SplineSet
700 -20 m 128,-1,1
 490 -20 490 -20 363 121 c 0,2,3
 269 225 269 225 269 368 c 0,4,5
 269 419 269 419 281 474 c 2,6,-1
 486 1440 l 17,7,-1
 695 1530 l 1,8,-1
 705 1530 l 9,9,-1
 456 358 l 2,10,11
 449 323 449 323 449 292 c 0,12,13
 449 208 449 208 501 150 c 0,14,15
 573 70 573 70 699.5 70 c 128,-1,16
 826 70 826 70 932.5 150.5 c 128,-1,17
 1039 231 1039 231 1066 358 c 18,18,-1
 1296 1440 l 17,19,-1
 1505 1530 l 1,20,-1
 1515 1530 l 9,21,-1
 1291 474 l 2,22,23
 1242 243 1242 243 1088 121 c 0,24,0
 910 -20 910 -20 700 -20 c 128,-1,1
EndSplineSet
Validated: 1
EndChar

StartChar: V
Encoding: 86 86 56
Width: 1241
GlyphClass: 2
Flags: W
HStem: -20 21G<521.153 580.4> 1510 20G<441.6 500.901 1440.34 1499.87>
DStem2: 498 1530 314 1455 0.140952 -0.990017<48.3162 1323.7> 688 220 708 55 0.508364 0.861143<0 1516.49>
LayerCount: 2
Fore
SplineSet
534 -20 m 1,0,-1
 524 -20 l 1,1,-1
 314 1455 l 1,2,-1
 488 1530 l 1,3,-1
 498 1530 l 1,4,-1
 688 220 l 1,5,-1
 1452 1530 l 1,6,-1
 1462 1530 l 1,7,-1
 1551 1483 l 1,8,-1
 708 55 l 1,9,-1
 534 -20 l 1,0,-1
EndSplineSet
Validated: 1
EndChar

StartChar: W
Encoding: 87 87 57
Width: 2180
GlyphClass: 2
Flags: W
HStem: -20 90<541.74 874.221 1352.56 1683> 1510 20G<648.556 705 1458.56 1515 2268.56 2325>
VStem: 269 180<189.809 423.632>
DStem2: 175.997 -20 375.654 -20 0.207912 0.978148<400.418 1492.55> 985.654 -20 1185.65 -20 0.207912 0.978148<362.963 1492.62> 1795.65 -20 1996 -20 0.207912 0.978148<296.863 1492.62>
LayerCount: 2
Fore
SplineSet
700 -20 m 0,0,1
 490 -20 490 -20 363 121 c 0,2,3
 269 225 269 225 269 368 c 0,4,5
 269 419 269 419 281 474 c 2,6,-1
 486 1440 l 1,7,-1
 695 1530 l 1,8,-1
 705 1530 l 1,9,-1
 456 358 l 2,10,11
 449 323 449 323 449 292 c 0,12,13
 449 208 449 208 501 150 c 0,14,15
 573 70 573 70 699.5 70 c 128,-1,16
 826 70 826 70 932.5 150.5 c 128,-1,17
 1039 231 1039 231 1066 358 c 2,18,-1
 1296 1440 l 1,19,-1
 1505 1530 l 1,20,-1
 1515 1530 l 1,21,-1
 1266 358 l 2,22,23
 1259 323 1259 323 1259 292 c 0,24,25
 1259 208 1259 208 1311 150 c 0,26,27
 1383 70 1383 70 1509.5 70 c 128,-1,28
 1636 70 1636 70 1742.5 150.5 c 128,-1,29
 1849 231 1849 231 1876 358 c 2,30,-1
 2106 1440 l 1,31,-1
 2315 1530 l 1,32,-1
 2325 1530 l 1,33,-1
 2101 474 l 2,34,35
 2052 243 2052 243 1898 121 c 0,36,37
 1720 -20 1720 -20 1510 -20 c 128,-1,38
 1300 -20 1300 -20 1183 121 c 0,39,40
 1162 146 1162 146 1147 173 c 1,41,42
 1119 146 1119 146 1088 121 c 0,43,44
 915 -20 915 -20 700 -20 c 0,0,1
EndSplineSet
Validated: 1
EndChar

StartChar: X
Encoding: 88 88 58
Width: 1156
GlyphClass: 2
Flags: W
HStem: -20 21G<120.128 184.545 939.823 1004.4> 1510 20G<473.333 538.152 1295.44 1360.3>
DStem2: 69 27 168 -20 0.63761 0.77036<26.9165 845.846 1128.65 1950.4> 530 1530 345 1455 0.378413 -0.925637<0 683.559 911.206 1592.91>
LayerCount: 2
Fore
SplineSet
168 -20 m 1,0,-1
 158 -20 l 1,1,-1
 69 27 l 1,2,-1
 644 723 l 1,3,-1
 345 1455 l 1,4,-1
 520 1530 l 1,5,-1
 530 1530 l 1,6,-1
 788 897 l 1,7,-1
 1312 1530 l 1,8,-1
 1322 1530 l 1,9,-1
 1412 1483 l 1,10,-1
 834 785 l 1,11,-1
 1132 55 l 1,12,-1
 958 -20 l 1,13,-1
 948 -20 l 1,14,-1
 690 611 l 1,15,-1
 168 -20 l 1,0,-1
EndSplineSet
Validated: 1
EndChar

StartChar: Y
Encoding: 89 89 59
Width: 1230
GlyphClass: 2
Flags: W
HStem: -20 21G<511 567.444> 1510 20G<588.556 645 1378.56 1435>
VStem: 306 179<658.259 872.691>
DStem2: 115.347 -20 316.003 -20 0.207912 0.978148<878.189 1492.68> 511 -20 710.87 -20 0.207912 0.978148<133.566 475.024> 906.003 -20 1105.35 -20 0.207912 0.978148<756.993 1492.55>
LayerCount: 2
Fore
SplineSet
521 -20 m 1,0,-1
 511 -20 l 1,1,-1
 608 439 l 1,2,3
 485 477 485 477 408 571 c 0,4,5
 306 695 306 695 306 836 c 0,6,7
 306 877 306 877 316 924 c 2,8,-1
 426 1440 l 1,9,-1
 635 1530 l 1,10,-1
 645 1530 l 1,11,-1
 492 808 l 2,12,13
 485 775 485 775 485 742 c 0,14,15
 485 658 485 658 537 600 c 0,16,17
 609 520 609 520 725.5 520 c 128,-1,18
 842 520 842 520 949 601 c 0,19,20
 1055 681 1055 681 1082 808 c 2,21,-1
 1216 1440 l 1,22,-1
 1425 1530 l 1,23,-1
 1435 1530 l 1,24,-1
 1306 924 l 2,25,26
 1257 695 1257 695 1103 571 c 0,27,28
 970 463 970 463 808 438 c 1,29,-1
 730 70 l 1,30,-1
 521 -20 l 1,0,-1
EndSplineSet
Validated: 1
EndChar

StartChar: Z
Encoding: 90 90 60
Width: 1040
GlyphClass: 2
Flags: W
HStem: 0 90<320 962> 1420 90<429 1038>
DStem2: 42 10 320 90 0.578114 0.815956<225.992 1726.3>
LayerCount: 2
Fore
SplineSet
40 0 m 1,0,-1
 42 10 l 1,1,-1
 1038 1420 l 1,2,-1
 372 1420 l 1,3,-1
 374 1430 l 1,4,-1
 429 1510 l 1,5,-1
 1321 1510 l 1,6,-1
 1319 1500 l 1,7,-1
 320 90 l 1,8,-1
 1019 90 l 1,9,-1
 1017 80 l 1,10,-1
 962 0 l 1,11,-1
 40 0 l 1,0,-1
EndSplineSet
Validated: 19457
EndChar

StartChar: bracketleft
Encoding: 91 91 61
Width: 880
GlyphClass: 2
Flags: W
HStem: -240 90<368 741> 1660 90<762 1145>
DStem2: 149 -240 348.87 -240 0.207912 0.978148<133.566 1942.48>
LayerCount: 2
Fore
SplineSet
149 -240 m 1,0,-1
 553 1660 l 1,1,-1
 762 1750 l 1,2,-1
 1202 1750 l 1,3,-1
 1200 1740 l 1,4,-1
 1145 1660 l 1,5,-1
 753 1660 l 1,6,-1
 368 -150 l 1,7,-1
 798 -150 l 1,8,-1
 796 -160 l 1,9,-1
 741 -240 l 1,10,-1
 149 -240 l 1,0,-1
EndSplineSet
Validated: 1
EndChar

StartChar: backslash
Encoding: 92 92 62
Width: 1001
GlyphClass: 2
Flags: W
VStem: 361 600
DStem2: 502 1710 361 1652 0.240562 -0.970634<22.3775 1908.03>
LayerCount: 2
Fore
SplineSet
830 -200 m 1,0,-1
 820 -200 l 1,1,-1
 361 1652 l 1,2,-1
 492 1710 l 1,3,-1
 502 1710 l 1,4,-1
 961 -142 l 1,5,-1
 830 -200 l 1,0,-1
EndSplineSet
Validated: 1
EndChar

StartChar: bracketright
Encoding: 93 93 63
Width: 880
GlyphClass: 2
Flags: W
HStem: -240 90<56 439> 1660 90<460 833>
DStem2: 428.87 -240 628.87 -240 0.207912 0.978148<133.593 1942.5>
LayerCount: 2
Fore
SplineSet
439 -240 m 1,0,-1
 -1 -240 l 1,1,-1
 1 -230 l 1,2,-1
 56 -150 l 1,3,-1
 448 -150 l 1,4,-1
 833 1660 l 1,5,-1
 403 1660 l 1,6,-1
 405 1670 l 1,7,-1
 460 1750 l 1,8,-1
 1052 1750 l 1,9,-1
 648 -150 l 1,10,-1
 439 -240 l 1,0,-1
EndSplineSet
Validated: 1
EndChar

StartChar: asciicircum
Encoding: 94 94 64
Width: 905
GlyphClass: 2
Flags: W
HStem: 1164 406
DStem2: 856 1570 736 1441 0.611181 -0.791491<28.7606 378.185>
LayerCount: 2
Fore
SplineSet
846 1570 m 1,0,-1
 856 1570 l 1,1,-1
 1117 1232 l 1,2,-1
 959 1164 l 1,3,-1
 949 1164 l 1,4,-1
 736 1441 l 1,5,-1
 396 1160 l 1,6,-1
 386 1160 l 1,7,-1
 309 1201 l 1,8,-1
 655 1488 l 1,9,-1
 846 1570 l 1,0,-1
EndSplineSet
Validated: 1
EndChar

StartChar: underscore
Encoding: 95 95 65
Width: 1364
GlyphClass: 2
Flags: W
HStem: -410 120<140 1075>
LayerCount: 2
Fore
SplineSet
63 -410 m 1,0,-1
 65 -400 l 1,1,-1
 140 -290 l 1,2,-1
 1152 -290 l 1,3,-1
 1150 -300 l 1,4,-1
 1075 -410 l 1,5,-1
 63 -410 l 1,0,-1
EndSplineSet
Validated: 1
EndChar

StartChar: grave
Encoding: 96 96 66
Width: 377
GlyphClass: 2
Flags: W
HStem: 1160 367
VStem: 362 223
DStem2: 505 1527 362 1470 0.261536 -0.965194<17.6163 321.098>
LayerCount: 2
Fore
SplineSet
495 1527 m 1,0,-1
 505 1527 l 1,1,-1
 585 1216 l 1,2,-1
 456 1160 l 1,3,-1
 446 1160 l 1,4,-1
 362 1470 l 1,5,-1
 495 1527 l 1,0,-1
EndSplineSet
Validated: 1
EndChar

StartChar: a
Encoding: 97 97 67
Width: 1064
GlyphClass: 2
Flags: W
HStem: -20 67<398.802 621.543> 669 71<511.828 743.242> 1020 80<542 812.505>
VStem: 148 182<118.774 454.219> 879 162<653.391 937.84>
DStem2: 699.72 -20 879.783 -20 0.207912 0.978148<138.159 525.524 687.105 850.263>
LayerCount: 2
Fore
SplineSet
337 278 m 2,0,1
 330 246 330 246 330 219 c 0,2,3
 330 154 330 154 366 110 c 0,4,5
 417 47 417 47 501 47 c 128,-1,6
 585 47 585 47 668 110 c 128,-1,7
 751 173 751 173 773 278 c 2,8,-1
 807 438 l 2,9,10
 813 468 813 468 813 494 c 0,11,12
 813 561 813 561 773 606 c 0,13,14
 717 669 717 669 633 669 c 128,-1,15
 549 669 549 669 471 606 c 128,-1,16
 393 543 393 543 371 438 c 2,17,-1
 337 278 l 2,0,1
700 -20 m 1,18,-1
 718 66 l 1,19,20
 607 -20 607 -20 482 -20 c 0,21,22
 296 -20 296 -20 210 93 c 0,23,24
 148 175 148 175 148 277 c 0,25,26
 148 317 148 317 157 360 c 0,27,28
 195 540 195 540 307 632 c 0,29,30
 439 740 439 740 603 740 c 0,31,32
 756 740 756 740 843 652 c 1,33,-1
 873 794 l 2,34,35
 879 821 879 821 879 846 c 0,36,37
 879 910 879 910 839 956 c 0,38,39
 784 1020 784 1020 686 1020 c 2,40,-1
 491 1020 l 1,41,-1
 493 1030 l 1,42,-1
 542 1100 l 1,43,-1
 683 1100 l 2,44,45
 856 1100 856 1100 962 983 c 0,46,47
 1041 896 1041 896 1041 778 c 0,48,49
 1041 737 1041 737 1031 692 c 2,50,-1
 897 61 l 17,51,-1
 710 -20 l 1,52,-1
 700 -20 l 1,18,-1
EndSplineSet
Validated: 1
EndChar

StartChar: b
Encoding: 98 98 68
Width: 1170
GlyphClass: 2
Flags: W
HStem: -20 80<477.221 742.358> 1040 80<668.238 934.594> 1510 20G<628.827 685>
VStem: 252 163<142.731 460.906> 994 175<631.75 948.807>
DStem2: 175.277 -20 355.958 -20 0.207912 0.978148<332.17 1042.29 1111.97 1501.92> 810.728 -20 1005.41 -20 0.207912 0.978148<228.749 861.775>
LayerCount: 2
Fore
SplineSet
603 60 m 0,0,1
 701 60 701 60 778 123.5 c 128,-1,2
 855 187 855 187 876 286 c 2,3,-1
 988 814 l 2,4,5
 994 843 994 843 994 869 c 0,6,7
 994 930 994 930 959 976 c 0,8,9
 909 1040 909 1040 811 1040 c 128,-1,10
 713 1040 713 1040 633.5 976.5 c 128,-1,11
 554 913 554 913 533 814 c 2,12,-1
 421 286 l 2,13,14
 415 258 415 258 415 232 c 0,15,16
 415 169 415 169 452 124 c 0,17,18
 504 60 504 60 603 60 c 0,0,1
611 -20 m 128,-1,20
 439 -20 439 -20 332 97 c 0,21,22
 252 184 252 184 252 302 c 0,23,24
 252 343 252 343 262 388 c 2,25,-1
 488 1449 l 1,26,-1
 675 1530 l 1,27,-1
 685 1530 l 1,28,-1
 579 1031 l 1,29,30
 682 1120 682 1120 813 1120 c 0,31,32
 990 1120 990 1120 1086 1003 c 0,33,34
 1169 903 1169 903 1169 786 c 0,35,36
 1169 750 1169 750 1161 712 c 2,37,-1
 1092 388 l 2,38,39
 1051 195 1051 195 929 97 c 0,40,19
 783 -20 783 -20 611 -20 c 128,-1,20
EndSplineSet
Validated: 1
EndChar

StartChar: c
Encoding: 99 99 69
Width: 1070
GlyphClass: 2
Flags: W
HStem: -20 80<470.391 730.877> 1040 80<661.328 922.128>
VStem: 232 178<143.306 350.148> 975 166<806 960.238>
DStem2: 155.277 -20 350.958 -20 0.207912 0.978148<332.11 977.403>
LayerCount: 2
Fore
SplineSet
591 -20 m 0,0,1
 420 -20 420 -20 312 97 c 0,2,3
 232 184 232 184 232 302 c 0,4,5
 232 341 232 341 242 388 c 2,6,-1
 311 712 l 2,7,8
 352 905 352 905 474 1003 c 0,9,10
 620 1120 620 1120 793 1120 c 0,11,12
 968 1120 968 1120 1066 1003 c 0,13,14
 1140 914 1140 914 1141 806 c 1,15,-1
 960 727 l 1,16,-1
 950 727 l 1,17,-1
 968 814 l 2,18,19
 975 848 975 848 975 874 c 0,20,21
 975 934 975 934 944 976 c 0,22,23
 899 1040 899 1040 801 1040 c 128,-1,24
 703 1040 703 1040 626 976.5 c 128,-1,25
 549 913 549 913 528 814 c 2,26,-1
 416 286 l 2,27,28
 410 258 410 258 410 231 c 0,29,30
 410 170 410 170 445 124 c 0,31,32
 495 60 495 60 593 60 c 128,-1,33
 691 60 691 60 763 124 c 0,34,35
 835 187 835 187 856 286 c 2,36,-1
 859 300 l 1,37,-1
 1062 388 l 1,38,-1
 1072 388 l 1,39,40
 1031 195 1031 195 909 97 c 0,41,42
 763 -20 763 -20 591 -20 c 0,0,1
EndSplineSet
Validated: 1
EndChar

StartChar: d
Encoding: 100 100 70
Width: 1170
GlyphClass: 2
Flags: W
HStem: -20 80<470.156 735.678> 1040 80<661.34 927.512> 1510 20G<1258.83 1315>
VStem: 232 178<142.872 468.25>
DStem2: 155.277 -20 350.958 -20 0.207912 0.978148<332.17 977.403> 805.728 -20 985.277 -20 0.207912 0.978148<223.659 905.904 1074.45 1501.82>
LayerCount: 2
Fore
SplineSet
593 60 m 128,-1,1
 691 60 691 60 770.5 123.5 c 128,-1,2
 850 187 850 187 871 286 c 2,3,-1
 983 814 l 2,4,5
 989 842 989 842 989 868 c 0,6,7
 989 931 989 931 952 976 c 0,8,9
 900 1040 900 1040 801.5 1040 c 128,-1,10
 703 1040 703 1040 626 976.5 c 128,-1,11
 549 913 549 913 528 814 c 2,12,-1
 416 286 l 2,13,14
 410 257 410 257 410 231 c 0,15,16
 410 170 410 170 445 124 c 0,17,0
 495 60 495 60 593 60 c 128,-1,1
591 -20 m 128,-1,19
 419 -20 419 -20 312 97 c 0,20,21
 232 184 232 184 232 302 c 0,22,23
 232 343 232 343 242 388 c 2,24,-1
 311 712 l 2,25,26
 352 905 352 905 474 1003 c 0,27,28
 620 1120 620 1120 793 1120 c 0,29,30
 945 1120 945 1120 1029 1031 c 1,31,-1
 1118 1449 l 1,32,-1
 1305 1530 l 1,33,-1
 1315 1530 l 1,34,-1
 1072 388 l 2,35,36
 1031 195 1031 195 909 97 c 0,37,18
 763 -20 763 -20 591 -20 c 128,-1,19
EndSplineSet
Validated: 1
EndChar

StartChar: e
Encoding: 101 101 71
Width: 1150
GlyphClass: 2
Flags: W
HStem: -20 80<465.358 726.468> 1040 80<656.084 918.206>
VStem: 232 173<142.872 343.289> 979 172<646.352 961.301>
DStem2: 155.277 -20 345.958 -20 0.207912 0.978148<332.17 405.632 498.593 964.885> 441 429 422 338 0.917318 0.398155<0 540.991> 790.982 -20 985.277 -20 0.207912 0.978148<226.725 327.149 719.352 875.648>
LayerCount: 2
Fore
SplineSet
591 -20 m 128,-1,1
 419 -20 419 -20 312 97 c 0,2,3
 232 184 232 184 232 302 c 0,4,5
 232 343 232 343 242 388 c 2,6,-1
 311 712 l 2,7,8
 350 896 350 896 484 1003 c 0,9,10
 630 1120 630 1120 802 1120 c 128,-1,11
 974 1120 974 1120 1076 1003 c 0,12,13
 1150 918 1150 918 1151 800 c 0,14,15
 1151 758 1151 758 1141 712 c 2,16,-1
 1127 644 l 1,17,-1
 422 338 l 1,18,-1
 411 286 l 2,19,20
 405 257 405 257 405 231 c 0,21,22
 405 170 405 170 440 124 c 0,23,24
 490 60 490 60 588 60 c 128,-1,25
 686 60 686 60 760 124 c 0,26,27
 834 187 834 187 856 286 c 2,28,-1
 859 300 l 1,29,-1
 1062 388 l 1,30,-1
 1072 388 l 1,31,32
 1031 195 1031 195 909 97 c 0,33,0
 763 -20 763 -20 591 -20 c 128,-1,1
441 429 m 1,34,-1
 937 645 l 1,35,-1
 973 814 l 2,36,37
 979 843 979 843 979 869 c 0,38,39
 979 930 979 930 944 976 c 0,40,41
 894 1040 894 1040 796 1040 c 128,-1,42
 698 1040 698 1040 621 976.5 c 128,-1,43
 544 913 544 913 523 814 c 2,44,-1
 441 429 l 1,34,-1
EndSplineSet
Validated: 1
EndChar

StartChar: f
Encoding: 102 102 72
Width: 780
GlyphClass: 2
Flags: W
HStem: -20 21G<176 232.173> 820 80<551 872> 1430 80<755.641 1041>
DStem2: 176 -20 355.783 -20 0.207912 0.978148<120.189 896.076 977.863 1377.84>
LayerCount: 2
Fore
SplineSet
176 -20 m 1,0,-1
 414 1102 l 2,1,2
 455 1295 455 1295 578 1393 c 0,3,4
 724 1510 724 1510 896 1510 c 2,5,-1
 1091 1510 l 1,6,-1
 1089 1500 l 1,7,-1
 1041 1430 l 1,8,-1
 899 1430 l 2,9,10
 801 1430 801 1430 719 1366 c 0,11,12
 637 1303 637 1303 616 1204 c 2,13,-1
 551 900 l 1,14,-1
 922 900 l 1,15,-1
 920 890 l 1,16,-1
 872 820 l 1,17,-1
 534 820 l 1,18,-1
 373 61 l 1,19,-1
 186 -20 l 1,20,-1
 176 -20 l 1,0,-1
EndSplineSet
Validated: 1
EndChar

StartChar: g
Encoding: 103 103 73
Width: 1170
GlyphClass: 2
Flags: W
HStem: -410 80<263 648.359> -20 80<470.156 734.798> 1040 80<661.154 926.867>
VStem: 232 178<142.872 468.25> 989 161<633.203 958.367>
DStem2: 72.3799 -410 268.061 -410 0.207912 0.978148<730.883 1376.12> 723.185 -410 903.277 -410 0.207912 0.978148<228.176 489.701 559.378 1269.09>
LayerCount: 2
Fore
SplineSet
593 60 m 128,-1,1
 691 60 691 60 770.5 123.5 c 128,-1,2
 850 187 850 187 871 286 c 2,3,-1
 983 814 l 2,4,5
 989 842 989 842 989 868 c 0,6,7
 989 932 989 932 952 976 c 0,8,9
 900 1040 900 1040 801.5 1040 c 128,-1,10
 703 1040 703 1040 626 976.5 c 128,-1,11
 549 913 549 913 528 814 c 2,12,-1
 416 286 l 2,13,14
 410 257 410 257 410 231 c 0,15,16
 410 170 410 170 445 124 c 0,17,0
 495 60 495 60 593 60 c 128,-1,1
213 -410 m 1,18,-1
 215 -400 l 1,19,-1
 263 -330 l 1,20,-1
 505 -330 l 2,21,22
 603 -330 603 -330 685 -266 c 128,-1,23
 767 -202 767 -202 788 -104 c 2,24,-1
 825 69 l 1,25,26
 718 -20 718 -20 591 -20 c 0,27,28
 419 -20 419 -20 312 97 c 0,29,30
 232 184 232 184 232 302 c 0,31,32
 232 343 232 343 242 388 c 2,33,-1
 311 712 l 2,34,35
 352 905 352 905 474 1003 c 0,36,37
 620 1120 620 1120 792 1120 c 0,38,39
 966 1120 966 1120 1072 1003 c 0,40,41
 1150 917 1150 917 1150 798 c 0,42,43
 1150 757 1150 757 1141 712 c 2,44,-1
 990 -2 l 2,45,46
 948 -195 948 -195 826 -293 c 0,47,48
 680 -410 680 -410 508 -410 c 2,49,-1
 213 -410 l 1,18,-1
EndSplineSet
Validated: 1
EndChar

StartChar: h
Encoding: 104 104 74
Width: 1210
GlyphClass: 2
Flags: W
HStem: -20 21G<196 252.173 846 902.173> 1040 80<693.07 962.692> 1510 20G<648.827 705>
VStem: 1029 162<748.665 956.57>
DStem2: 196 -20 375.783 -20 0.207912 0.978148<120.189 1039.58 1111.82 1501.77> 846 -20 1025.78 -20 0.207912 0.978148<120.189 876.347>
LayerCount: 2
Fore
SplineSet
196 -20 m 1,0,-1
 508 1449 l 1,1,-1
 695 1530 l 1,2,-1
 705 1530 l 1,3,-1
 599 1031 l 1,4,5
 700 1120 700 1120 833 1120 c 0,6,7
 1006 1120 1006 1120 1112 1003 c 0,8,9
 1191 913 1191 913 1191 804 c 0,10,11
 1191 759 1191 759 1181 712 c 2,12,-1
 1043 61 l 1,13,-1
 856 -20 l 1,14,-1
 846 -20 l 1,15,-1
 1023 814 l 2,16,17
 1029 842 1029 842 1029 866 c 0,18,19
 1029 930 1029 930 989 976 c 0,20,21
 934 1040 934 1040 836 1040 c 128,-1,22
 738 1040 738 1040 656 976 c 0,23,24
 574 913 574 913 553 814 c 2,25,-1
 393 61 l 1,26,-1
 206 -20 l 1,27,-1
 196 -20 l 1,0,-1
EndSplineSet
Validated: 1
EndChar

StartChar: i
Encoding: 105 105 75
Width: 580
GlyphClass: 2
Flags: W
HStem: -20 21G<196 252.173> 1100 20G<561.827 618> 1220 245<500.027 651.615>
VStem: 453 245<1266.4 1417.97>
DStem2: 196 -20 375.783 -20 0.207912 0.978148<120.189 1082.64>
LayerCount: 2
Fore
SplineSet
601 1465 m 0,0,1
 650 1465 650 1465 678 1429 c 0,2,3
 698 1403 698 1403 698 1369 c 0,4,5
 698 1353 698 1353 696 1342 c 0,6,7
 686 1292 686 1292 642.5 1256 c 128,-1,8
 599 1220 599 1220 549 1220 c 128,-1,9
 499 1220 499 1220 472 1256 c 0,10,11
 453 1282 453 1282 453 1315 c 0,12,13
 453 1329 453 1329 456 1342 c 0,14,15
 466 1392 466 1392 508.5 1428.5 c 128,-1,16
 551 1465 551 1465 601 1465 c 0,0,1
196 -20 m 1,17,-1
 421 1039 l 1,18,-1
 608 1120 l 1,19,-1
 618 1120 l 1,20,-1
 393 61 l 1,21,-1
 206 -20 l 1,22,-1
 196 -20 l 1,17,-1
EndSplineSet
Validated: 1
EndChar

StartChar: j
Encoding: 106 106 76
Width: 580
GlyphClass: 2
Flags: W
HStem: -410 21G<-120 -26> 1100 20G<561.827 618> 1220 245<500.027 651.615>
VStem: 453 245<1266.4 1417.97>
DStem2: 113.006 -410 292.788 -410 0.207912 0.978148<225.439 1481.37>
LayerCount: 2
Fore
SplineSet
-122 -410 m 1,0,-1
 -120 -400 l 1,1,-1
 -72 -330 l 1,2,3
 8 -322 8 -322 75 -266 c 0,4,5
 158 -198 158 -198 178 -104 c 2,6,-1
 421 1039 l 17,7,-1
 608 1120 l 1,8,-1
 618 1120 l 9,9,-1
 380 -2 l 2,10,11
 339 -195 339 -195 216 -293 c 0,12,13
 70 -410 70 -410 -122 -410 c 1,0,-1
601 1465 m 0,14,15
 650 1465 650 1465 678 1429 c 0,16,17
 698 1403 698 1403 698 1369 c 0,18,19
 698 1353 698 1353 696 1342 c 0,20,21
 686 1292 686 1292 642.5 1256 c 128,-1,22
 599 1220 599 1220 549 1220 c 128,-1,23
 499 1220 499 1220 472 1256 c 0,24,25
 453 1282 453 1282 453 1315 c 0,26,27
 453 1329 453 1329 456 1342 c 0,28,29
 466 1392 466 1392 508.5 1428.5 c 128,-1,30
 551 1465 551 1465 601 1465 c 0,14,15
EndSplineSet
Validated: 1
EndChar

StartChar: k
Encoding: 107 107 77
Width: 1170
GlyphClass: 2
Flags: W
HStem: -20 21G<196 252.173 826 882.173> 720 80<771 871.96> 1100 20G<1075.93 1152.83> 1510 20G<648.827 705>
VStem: 941 162<429.924 647.217>
DStem2: 196 -20 375.783 -20 0.207912 0.978148<120.189 716.854 829.586 1501.77> 540 755 583 656 0.830398 0.55717<0 154.955> 826 -20 1005.78 -20 0.207912 0.978148<120.189 549.201>
LayerCount: 2
Fore
SplineSet
771 800 m 1,0,1
 936 800 936 800 1033 683 c 0,2,3
 1103 599 1103 599 1103 484 c 0,4,5
 1103 439 1103 439 1093 392 c 2,6,-1
 1023 61 l 1,7,-1
 836 -20 l 1,8,-1
 826 -20 l 1,9,-1
 935 494 l 2,10,11
 941 522 941 522 941 546 c 0,12,13
 941 610 941 610 901 656 c 0,14,15
 846 720 846 720 753 720 c 128,-1,16
 660 720 660 720 583 656 c 0,17,18
 506 593 506 593 485 494 c 2,19,-1
 393 61 l 1,20,-1
 206 -20 l 1,21,-1
 196 -20 l 1,22,-1
 508 1449 l 1,23,-1
 695 1530 l 1,24,-1
 705 1530 l 1,25,-1
 540 755 l 1,26,-1
 1107 1120 l 1,27,-1
 1117 1120 l 1,28,-1
 1203 1072 l 1,29,-1
 771 800 l 1,0,1
EndSplineSet
Validated: 1
EndChar

StartChar: l
Encoding: 108 108 78
Width: 580
GlyphClass: 2
Flags: W
HStem: -20 21G<196 252.173> 1510 20G<648.827 705>
VStem: 196 509
DStem2: 196 -20 375.783 -20 0.207912 0.978148<120.189 1501.77>
LayerCount: 2
Fore
SplineSet
196 -20 m 1,0,-1
 508 1449 l 1,1,-1
 695 1530 l 1,2,-1
 705 1530 l 1,3,-1
 393 61 l 1,4,-1
 206 -20 l 1,5,-1
 196 -20 l 1,0,-1
EndSplineSet
Validated: 1
EndChar

StartChar: m
Encoding: 109 109 79
Width: 1840
GlyphClass: 2
Flags: W
HStem: -20 21G<176 232.173 826 882.173 1476 1532.17> 1040 80<672.239 942.276 1322.49 1592.87>
VStem: 1659 162<748.665 957.562>
DStem2: 176 -20 355.783 -20 0.207912 0.978148<120.189 979.016> 826 -20 1005.78 -20 0.207912 0.978148<120.189 903.922> 1476 -20 1655.78 -20 0.207912 0.978148<120.189 870.6>
LayerCount: 2
Fore
SplineSet
176 -20 m 1,0,-1
 331 712 l 2,1,2
 372 905 372 905 494 1003 c 0,3,4
 640 1120 640 1120 813 1120 c 0,5,6
 979 1120 979 1120 1081 1003 c 0,7,8
 1095 987 1095 987 1106 969 c 1,9,10
 1126 986 1126 986 1145 1003 c 0,11,12
 1290 1120 1290 1120 1464 1120 c 0,13,14
 1636 1120 1636 1120 1742 1003 c 0,15,16
 1821 916 1821 916 1821 798 c 0,17,18
 1821 757 1821 757 1811 712 c 2,19,-1
 1673 61 l 1,20,-1
 1486 -20 l 1,21,-1
 1476 -20 l 1,22,-1
 1653 814 l 2,23,24
 1659 841 1659 841 1659 866 c 0,25,26
 1659 930 1659 930 1619 976 c 0,27,28
 1564 1040 1564 1040 1466 1040 c 128,-1,29
 1368 1040 1368 1040 1286 976.5 c 128,-1,30
 1204 913 1204 913 1183 814 c 2,31,-1
 1023 61 l 1,32,-1
 836 -20 l 1,33,-1
 826 -20 l 1,34,-1
 1003 814 l 2,35,36
 1009 841 1009 841 1009 866 c 0,37,38
 1009 930 1009 930 969 976 c 0,39,40
 914 1040 914 1040 816 1040 c 128,-1,41
 718 1040 718 1040 636 976.5 c 128,-1,42
 554 913 554 913 533 814 c 2,43,-1
 373 61 l 1,44,-1
 186 -20 l 1,45,-1
 176 -20 l 1,0,-1
EndSplineSet
Validated: 1
EndChar

StartChar: n
Encoding: 110 110 80
Width: 1190
GlyphClass: 2
Flags: W
HStem: -20 21G<176 232.173 826 882.173> 1040 80<672.072 942.516>
VStem: 1009 162<748.665 957.562>
DStem2: 176 -20 355.783 -20 0.207912 0.978148<120.189 979.016> 826 -20 1005.78 -20 0.207912 0.978148<120.189 870.6>
LayerCount: 2
Fore
SplineSet
176 -20 m 9,0,-1
 331 712 l 2,1,2
 372 905 372 905 494 1003 c 0,3,4
 640 1120 640 1120 812 1120 c 0,5,6
 986 1120 986 1120 1092 1003 c 0,7,8
 1171 916 1171 916 1171 798 c 0,9,10
 1171 757 1171 757 1161 712 c 2,11,-1
 1023 61 l 17,12,-1
 836 -20 l 1,13,-1
 826 -20 l 9,14,-1
 1003 814 l 2,15,16
 1009 841 1009 841 1009 866 c 0,17,18
 1009 930 1009 930 969 976 c 0,19,20
 914 1040 914 1040 816 1040 c 128,-1,21
 718 1040 718 1040 636 976.5 c 128,-1,22
 554 913 554 913 533 814 c 2,23,-1
 373 61 l 17,24,-1
 186 -20 l 1,25,-1
 176 -20 l 9,0,-1
EndSplineSet
Validated: 1
EndChar

StartChar: o
Encoding: 111 111 81
Width: 1150
GlyphClass: 2
Flags: W
HStem: -20 80<465.358 727.383> 1040 80<656.205 918.55>
VStem: 232 173<142.872 468.25> 979 172<631.75 957.893>
DStem2: 155.277 -20 345.958 -20 0.207912 0.978148<332.17 979.167> 795.728 -20 985.409 -20 0.207912 0.978148<225.908 872.735>
LayerCount: 2
Fore
SplineSet
588 60 m 128,-1,1
 686 60 686 60 763 123.5 c 128,-1,2
 840 187 840 187 861 286 c 2,3,-1
 973 814 l 2,4,5
 979 843 979 843 979 869 c 0,6,7
 979 930 979 930 944 976 c 0,8,9
 894 1040 894 1040 796 1040 c 128,-1,10
 698 1040 698 1040 621 976.5 c 128,-1,11
 544 913 544 913 523 814 c 2,12,-1
 411 286 l 2,13,14
 405 257 405 257 405 231 c 0,15,16
 405 170 405 170 440 124 c 0,17,0
 490 60 490 60 588 60 c 128,-1,1
591 -20 m 128,-1,19
 419 -20 419 -20 312 97 c 0,20,21
 232 184 232 184 232 302 c 0,22,23
 232 343 232 343 242 388 c 2,24,-1
 311 712 l 2,25,26
 352 905 352 905 474 1003 c 0,27,28
 620 1120 620 1120 792.5 1120 c 128,-1,29
 965 1120 965 1120 1072 1003 c 0,30,31
 1151 916 1151 916 1151 798 c 0,32,33
 1151 757 1151 757 1141 712 c 2,34,-1
 1072 388 l 2,35,36
 1031 195 1031 195 909 97 c 0,37,18
 763 -20 763 -20 591 -20 c 128,-1,19
EndSplineSet
Validated: 1
EndChar

StartChar: p
Encoding: 112 112 82
Width: 1170
GlyphClass: 2
Flags: W
HStem: -430 21G<89 145.173> -20 80<476.5 742.358> 1040 80<670.418 933.746>
VStem: 994 177<631.75 957.893>
DStem2: 89 -430 268.783 -430 0.207912 0.978148<120.189 547.558 716.108 1398.15> 723.58 -430 918.26 -430 0.207912 0.978148<647.909 1292.93>
LayerCount: 2
Fore
SplineSet
603 60 m 0,0,1
 701 60 701 60 778 123.5 c 128,-1,2
 855 187 855 187 876 286 c 2,3,-1
 988 814 l 2,4,5
 994 843 994 843 994 869 c 0,6,7
 994 930 994 930 959 976 c 0,8,9
 909 1040 909 1040 811 1040 c 128,-1,10
 713 1040 713 1040 633.5 976.5 c 128,-1,11
 554 913 554 913 533 814 c 2,12,-1
 421 286 l 2,13,14
 415 258 415 258 415 232 c 0,15,16
 415 169 415 169 452 124 c 0,17,18
 504 60 504 60 603 60 c 0,0,1
89 -430 m 1,19,-1
 331 712 l 2,20,21
 372 905 372 905 494 1003 c 0,22,23
 640 1120 640 1120 812.5 1120 c 128,-1,24
 985 1120 985 1120 1092 1003 c 0,25,26
 1171 916 1171 916 1171 798 c 0,27,28
 1171 757 1171 757 1161 712 c 2,29,-1
 1092 388 l 2,30,31
 1051 195 1051 195 929 97 c 0,32,33
 783 -20 783 -20 611 -20 c 0,34,35
 459 -20 459 -20 375 69 c 1,36,-1
 286 -349 l 1,37,-1
 99 -430 l 1,38,-1
 89 -430 l 1,19,-1
EndSplineSet
Validated: 1
EndChar

StartChar: q
Encoding: 113 113 83
Width: 1170
GlyphClass: 2
Flags: W
HStem: -430 21G<719 775.173> -20 80<470.156 735.762> 1040 80<661.154 926.867>
VStem: 232 178<142.872 468.25> 989 162<639.094 958.027>
DStem2: 68.1287 -430 263.81 -430 0.207912 0.978148<751.33 1396.56> 719 -430 898.783 -430 0.207912 0.978148<120.189 510.134 579.812 1289.73>
LayerCount: 2
Fore
SplineSet
593 60 m 128,-1,1
 691 60 691 60 770.5 123.5 c 128,-1,2
 850 187 850 187 871 286 c 2,3,-1
 983 814 l 2,4,5
 989 842 989 842 989 868 c 0,6,7
 989 931 989 931 952 976 c 0,8,9
 900 1040 900 1040 801.5 1040 c 128,-1,10
 703 1040 703 1040 626 976.5 c 128,-1,11
 549 913 549 913 528 814 c 2,12,-1
 416 286 l 2,13,14
 410 257 410 257 410 231 c 0,15,16
 410 170 410 170 445 124 c 0,17,0
 495 60 495 60 593 60 c 128,-1,1
719 -430 m 1,18,-1
 825 69 l 1,19,20
 722 -20 722 -20 591 -20 c 0,21,22
 419 -20 419 -20 312 97 c 0,23,24
 232 184 232 184 232 302 c 0,25,26
 232 343 232 343 242 388 c 2,27,-1
 311 712 l 2,28,29
 352 905 352 905 474 1003 c 0,30,31
 620 1120 620 1120 792 1120 c 0,32,33
 966 1120 966 1120 1072 1003 c 0,34,35
 1151 916 1151 916 1151 798 c 0,36,37
 1151 757 1151 757 1141 712 c 2,38,-1
 916 -349 l 1,39,-1
 729 -430 l 1,40,-1
 719 -430 l 1,18,-1
EndSplineSet
Validated: 1
EndChar

StartChar: r
Encoding: 114 114 84
Width: 780
GlyphClass: 2
Flags: W
HStem: -20 21G<176 232.173> 1020 80<668.324 953>
DStem2: 176 -20 355.783 -20 0.207912 0.978148<120.189 958.622>
LayerCount: 2
Fore
SplineSet
176 -20 m 9,0,-1
 327 692 l 2,1,2
 368 885 368 885 490 983 c 0,3,4
 637 1100 637 1100 809 1100 c 2,5,-1
 1004 1100 l 1,6,-1
 1002 1090 l 1,7,-1
 953 1020 l 1,8,-1
 812 1020 l 2,9,10
 713 1020 713 1020 631 956 c 0,11,12
 550 893 550 893 529 794 c 2,13,-1
 373 61 l 17,14,-1
 186 -20 l 1,15,-1
 176 -20 l 9,0,-1
EndSplineSet
Validated: 1
EndChar

StartChar: t
Encoding: 116 116 85
Width: 780
GlyphClass: 2
Flags: W
HStem: -20 21G<296 352.076> 1020 80<277 517 709 954> 1510 20G<743.924 800>
DStem2: 296 -20 471.208 -20 0.207912 0.978148<117.193 1063.22 1181.39 1503.72>
LayerCount: 2
Fore
SplineSet
296 -20 m 1,0,-1
 517 1020 l 1,1,-1
 227 1020 l 1,2,-1
 229 1030 l 1,3,-1
 277 1100 l 1,4,-1
 534 1100 l 1,5,-1
 608 1451 l 1,6,-1
 790 1530 l 1,7,-1
 800 1530 l 1,8,-1
 709 1100 l 1,9,-1
 1004 1100 l 1,10,-1
 1002 1090 l 1,11,-1
 954 1020 l 1,12,-1
 692 1020 l 1,13,-1
 488 59 l 1,14,-1
 306 -20 l 1,15,-1
 296 -20 l 1,0,-1
EndSplineSet
Validated: 1
EndChar

StartChar: u
Encoding: 117 117 86
Width: 1190
GlyphClass: 2
Flags: W
HStem: -20 80<481.549 751.428> 1100 20G<541.827 598 1191.83 1248>
VStem: 252 163<143.43 351.335>
DStem2: 175.277 -20 355.958 -20 0.207912 0.978148<332.17 1082.79> 825.903 -20 1005.69 -20 0.207912 0.978148<225.658 1082.66>
LayerCount: 2
Fore
SplineSet
611 -20 m 128,-1,1
 439 -20 439 -20 332 97 c 0,2,3
 252 184 252 184 252 302 c 0,4,5
 252 343 252 343 262 388 c 2,6,-1
 401 1039 l 17,7,-1
 588 1120 l 1,8,-1
 598 1120 l 9,9,-1
 421 286 l 2,10,11
 415 259 415 259 415 234 c 0,12,13
 415 170 415 170 455 124 c 0,14,15
 510 60 510 60 608 60 c 128,-1,16
 706 60 706 60 788 123.5 c 128,-1,17
 870 187 870 187 891 286 c 2,18,-1
 1051 1039 l 17,19,-1
 1238 1120 l 1,20,-1
 1248 1120 l 9,21,-1
 1092 388 l 2,22,23
 1051 195 1051 195 929 97 c 0,24,0
 783 -20 783 -20 611 -20 c 128,-1,1
EndSplineSet
Validated: 1
EndChar

StartChar: v
Encoding: 118 118 87
Width: 961
GlyphClass: 2
Flags: W
HStem: -20 21G<386.015 445.4> 1100 20G<339.824 398.899 1090.28 1149>
DStem2: 396 1120 229 1052 0.147619 -0.989044<42.6027 976.083> 536 154 573 55 0.513264 0.858231<0 1119.56>
LayerCount: 2
Fore
SplineSet
399 -20 m 1,0,-1
 389 -20 l 1,1,-1
 229 1052 l 1,2,-1
 386 1120 l 1,3,-1
 396 1120 l 1,4,-1
 536 154 l 1,5,-1
 1102 1120 l 1,6,-1
 1112 1120 l 1,7,-1
 1186 1080 l 1,8,-1
 573 55 l 1,9,-1
 399 -20 l 1,0,-1
EndSplineSet
Validated: 1
EndChar

StartChar: w
Encoding: 119 119 88
Width: 1840
GlyphClass: 2
Flags: W
HStem: -20 80<481.131 751.505 1131.72 1401.43> 1100 20G<541.827 598 1191.83 1248 1841.83 1898>
VStem: 252 163<143.43 351.335>
DStem2: 175.277 -20 355.958 -20 0.207912 0.978148<332.17 1082.79> 825.903 -20 1005.96 -20 0.207912 0.978148<298.926 1082.66> 1475.9 -20 1655.69 -20 0.207912 0.978148<225.658 1082.66>
LayerCount: 2
Fore
SplineSet
610 -20 m 0,0,1
 438 -20 438 -20 332 97 c 0,2,3
 252 184 252 184 252 302 c 0,4,5
 252 343 252 343 262 388 c 2,6,-1
 401 1039 l 1,7,-1
 588 1120 l 1,8,-1
 598 1120 l 1,9,-1
 421 286 l 2,10,11
 415 259 415 259 415 234 c 0,12,13
 415 170 415 170 455 124 c 0,14,15
 510 60 510 60 608 60 c 128,-1,16
 706 60 706 60 788 123.5 c 128,-1,17
 870 187 870 187 891 286 c 2,18,-1
 1051 1039 l 1,19,-1
 1238 1120 l 1,20,-1
 1248 1120 l 1,21,-1
 1071 286 l 2,22,23
 1065 259 1065 259 1065 234 c 0,24,25
 1065 170 1065 170 1105 124 c 0,26,27
 1160 60 1160 60 1258 60 c 128,-1,28
 1356 60 1356 60 1438 123.5 c 128,-1,29
 1520 187 1520 187 1541 286 c 2,30,-1
 1701 1039 l 1,31,-1
 1888 1120 l 1,32,-1
 1898 1120 l 1,33,-1
 1742 388 l 2,34,35
 1701 195 1701 195 1579 97 c 0,36,37
 1433 -20 1433 -20 1261 -20 c 0,38,39
 1095 -20 1095 -20 993 97 c 0,40,41
 979 113 979 113 968 131 c 1,42,43
 948 114 948 114 929 97 c 0,44,45
 784 -20 784 -20 610 -20 c 0,0,1
EndSplineSet
Validated: 1
EndChar

StartChar: x
Encoding: 120 120 89
Width: 892
GlyphClass: 2
Flags: W
HStem: -20 21G<74.1111 140.401 695.806 759.938> 1100 20G<365.75 430.15 984.599 1048.84>
DStem2: 43 16 123 -20 0.655789 0.754944<25.2852 627.066 860.579 1462.36> 422 1120 264 1056 0.378499 -0.925602<0 490.245 671.299 1161.92>
LayerCount: 2
Fore
SplineSet
123 -20 m 1,0,-1
 113 -20 l 1,1,-1
 43 16 l 1,2,-1
 482 522 l 1,3,-1
 264 1056 l 1,4,-1
 412 1120 l 1,5,-1
 422 1120 l 1,6,-1
 607 666 l 1,7,-1
 1002 1120 l 1,8,-1
 1012 1120 l 1,9,-1
 1082 1082 l 1,10,-1
 643 578 l 1,11,-1
 861 44 l 1,12,-1
 714 -20 l 1,13,-1
 704 -20 l 1,14,-1
 518 434 l 1,15,-1
 123 -20 l 1,0,-1
EndSplineSet
Validated: 19457
EndChar

StartChar: y
Encoding: 121 121 90
Width: 1210
GlyphClass: 2
Flags: W
HStem: -410 80<284 667.749> -20 80<481.549 752.096> 1100 20G<541.827 598 1191.83 1248>
VStem: 252 163<143.43 351.335>
DStem2: 92.3799 -410 273.061 -410 0.207912 0.978148<730.883 1481.5> 743.185 -410 923.277 -410 0.207912 0.978148<228.176 489.701 561.62 1481.33>
LayerCount: 2
Fore
SplineSet
233 -410 m 1,0,-1
 235 -400 l 1,1,-1
 284 -330 l 1,2,-1
 525 -330 l 2,3,4
 623 -330 623 -330 704 -267 c 0,5,6
 787 -203 787 -203 808 -104 c 2,7,-1
 845 69 l 1,8,9
 734 -20 734 -20 611 -20 c 0,10,11
 439 -20 439 -20 332 97 c 0,12,13
 252 184 252 184 252 302 c 0,14,15
 252 343 252 343 262 388 c 2,16,-1
 401 1039 l 1,17,-1
 588 1120 l 1,18,-1
 598 1120 l 1,19,-1
 421 286 l 2,20,21
 415 259 415 259 415 234 c 0,22,23
 415 170 415 170 455 124 c 0,24,25
 510 60 510 60 608 60 c 128,-1,26
 706 60 706 60 788 123.5 c 128,-1,27
 870 187 870 187 891 286 c 2,28,-1
 1051 1039 l 1,29,-1
 1238 1120 l 1,30,-1
 1248 1120 l 1,31,-1
 1010 -2 l 2,32,33
 968 -195 968 -195 846 -293 c 0,34,35
 700 -410 700 -410 528 -410 c 2,36,-1
 233 -410 l 1,0,-1
EndSplineSet
Validated: 1
EndChar

StartChar: z
Encoding: 122 122 91
Width: 850
GlyphClass: 2
Flags: W
HStem: 0 80<295 777> 1020 80<337 790>
DStem2: 42 10 295 80 0.595151 0.803614<206.826 1256.82>
LayerCount: 2
Fore
SplineSet
40 0 m 1,0,-1
 42 10 l 1,1,-1
 790 1020 l 1,2,-1
 287 1020 l 1,3,-1
 289 1030 l 1,4,-1
 337 1100 l 1,5,-1
 1044 1100 l 1,6,-1
 1042 1090 l 1,7,-1
 295 80 l 1,8,-1
 827 80 l 1,9,-1
 825 70 l 1,10,-1
 777 0 l 1,11,-1
 40 0 l 1,0,-1
EndSplineSet
Validated: 19457
EndChar

StartChar: braceleft
Encoding: 123 123 92
Width: 830
GlyphClass: 2
Flags: W
HStem: -240 90<589.944 729> 710 90<258 425> 1660 90<960.703 1133>
VStem: 316 180<-38.6982 203.521>
DStem2: 222.997 -240 422.654 -240 0.207912 0.978148<394.611 971.239 1063.22 1779.78>
CounterMasks: 1 e0
LayerCount: 2
Fore
SplineSet
729 -240 m 1,0,1
 519 -240 519 -240 401 -99 c 0,2,3
 316 3 316 3 316 142 c 0,4,5
 316 195 316 195 328 254 c 2,6,-1
 425 710 l 1,7,-1
 201 710 l 1,8,-1
 203 720 l 1,9,-1
 258 800 l 1,10,-1
 444 800 l 1,11,-1
 541 1256 l 2,12,13
 590 1487 590 1487 744 1609 c 0,14,15
 922 1750 922 1750 1152 1750 c 1,16,-1
 1133 1660 l 1,17,18
 1007 1660 1007 1660 900 1580 c 128,-1,19
 793 1500 793 1500 766 1372 c 2,20,-1
 503 138 l 2,21,22
 496 104 496 104 496 73 c 0,23,24
 496 -12 496 -12 549 -70 c 0,25,26
 622 -150 622 -150 748 -150 c 1,27,-1
 729 -240 l 1,0,1
EndSplineSet
Validated: 1
EndChar

StartChar: bar
Encoding: 124 124 93
Width: 650
GlyphClass: 2
Flags: W
VStem: 207 556
DStem2: 207 -200 357.971 -200 0.207912 0.978148<98.8632 1885.21>
LayerCount: 2
Fore
SplineSet
207 -200 m 1,0,-1
 599 1644 l 1,1,-1
 753 1710 l 1,2,-1
 763 1710 l 1,3,-1
 372 -134 l 1,4,-1
 217 -200 l 1,5,-1
 207 -200 l 1,0,-1
EndSplineSet
Validated: 1
EndChar

StartChar: braceright
Encoding: 125 125 94
Width: 830
GlyphClass: 2
Flags: W
HStem: -240 90<18 190.297> 710 90<726 893> 1660 90<422 561.056>
VStem: 655 180<1198.73 1549.01>
DStem2: 304.654 -240 504.997 -240 0.207912 0.978148<296.336 1012.89 1104.88 1681.5>
CounterMasks: 1 e0
LayerCount: 2
Fore
SplineSet
-1 -240 m 1,0,-1
 18 -150 l 1,1,2
 144 -150 144 -150 251 -70 c 128,-1,3
 358 10 358 10 385 138 c 2,4,-1
 648 1372 l 2,5,6
 655 1406 655 1406 655 1437 c 0,7,8
 655 1522 655 1522 602 1580 c 0,9,10
 529 1660 529 1660 403 1660 c 1,11,-1
 422 1750 l 1,12,13
 632 1750 632 1750 750 1609 c 0,14,15
 835 1507 835 1507 835 1368 c 0,16,17
 835 1315 835 1315 823 1256 c 2,18,-1
 726 800 l 1,19,-1
 950 800 l 1,20,-1
 948 790 l 1,21,-1
 893 710 l 1,22,-1
 707 710 l 1,23,-1
 610 254 l 2,24,25
 561 23 561 23 407 -99 c 0,26,27
 229 -240 229 -240 -1 -240 c 1,0,-1
EndSplineSet
Validated: 1
EndChar

StartChar: asciitilde
Encoding: 126 126 95
Width: 1138
GlyphClass: 2
Flags: W
HStem: 576 127<836.669 1009.53> 810 127<449.556 622.331>
LayerCount: 2
Fore
SplineSet
605 937 m 0,0,1
 714 937 714 937 789 810 c 0,2,3
 853 703 853 703 926 703 c 0,4,5
 1041 703 1041 703 1084 896 c 1,6,-1
 1177 937 l 1,7,-1
 1187 937 l 1,8,9
 1110 576 1110 576 854 576 c 0,10,11
 745 576 745 576 670 703 c 0,12,13
 606 810 606 810 533 810 c 0,14,15
 418 810 418 810 376 617 c 1,16,-1
 282 576 l 1,17,-1
 272 576 l 1,18,19
 349 937 349 937 605 937 c 0,0,1
EndSplineSet
Validated: 1
EndChar

StartChar: exclamdown
Encoding: 161 161 97
Width: 600
GlyphClass: 2
Flags: W
HStem: -430 21G<109 165.444> 875 245<436.711 587.42>
VStem: 389 246<922.592 1071.76>
DStem2: 109 -430 308.87 -430 0.207912 0.978148<133.566 1063.22>
LayerCount: 2
Fore
SplineSet
538 1120 m 0,0,1
 590 1120 590 1120 616 1084 c 0,2,3
 635 1059 635 1059 635 1025 c 0,4,5
 635 1011 635 1011 632 997 c 0,6,7
 621 947 621 947 578.5 911 c 128,-1,8
 536 875 536 875 486 875 c 128,-1,9
 436 875 436 875 408 911 c 0,10,11
 389 936 389 936 389 970 c 0,12,13
 389 983 389 983 392 997 c 0,14,15
 403 1047 403 1047 445.5 1083.5 c 128,-1,16
 488 1120 488 1120 538 1120 c 0,0,1
119 -430 m 1,17,-1
 109 -430 l 1,18,-1
 330 610 l 1,19,-1
 539 700 l 1,20,-1
 549 700 l 1,21,-1
 328 -340 l 1,22,-1
 119 -430 l 1,17,-1
EndSplineSet
Validated: 1
EndChar

StartChar: cent
Encoding: 162 162 98
Width: 1070
GlyphClass: 2
Flags: W
VStem: 232 178<143.306 350.148> 975 166<806 960.238>
DStem2: 134.021 -120 329.702 -120 0.207912 0.978148<434.344 1081.4> 499 -120 599.073 -120 0.207912 0.978148<63.7446 107.28 208.879 1179.72 1283.48 1327.02>
LayerCount: 2
Fore
SplineSet
608 -78 m 1,0,-1
 509 -120 l 1,1,-1
 499 -120 l 1,2,-1
 521 -15 l 1,3,4
 396 4 396 4 312 97 c 0,5,6
 232 184 232 184 232 302 c 0,7,8
 232 341 232 341 242 388 c 2,9,-1
 311 712 l 2,10,11
 352 905 352 905 474 1003 c 0,12,13
 607 1110 607 1110 762 1119 c 1,14,-1
 775 1178 l 1,15,-1
 874 1220 l 1,16,-1
 884 1220 l 1,17,-1
 862 1115 l 1,18,19
 988 1096 988 1096 1066 1003 c 0,20,21
 1140 914 1140 914 1141 806 c 1,22,-1
 960 727 l 1,23,-1
 950 727 l 1,24,-1
 968 814 l 2,25,26
 975 848 975 848 975 874 c 0,27,28
 975 934 975 934 944 976 c 0,29,30
 910 1025 910 1025 845 1036 c 1,31,-1
 638 64 l 1,32,33
 708 76 708 76 763 124 c 0,34,35
 835 187 835 187 856 286 c 2,36,-1
 859 300 l 1,37,-1
 1062 388 l 1,38,-1
 1072 388 l 1,39,40
 1031 195 1031 195 909 97 c 0,41,42
 776 -10 776 -10 621 -19 c 1,43,-1
 608 -78 l 1,0,-1
539 66 m 1,44,-1
 744 1034 l 1,45,46
 680 1020 680 1020 626 976 c 0,47,48
 549 912 549 912 528 814 c 2,49,-1
 416 286 l 2,50,51
 410 258 410 258 410 231 c 0,52,53
 410 170 410 170 445 124 c 0,54,55
 480 79 480 79 539 66 c 1,44,-1
EndSplineSet
Validated: 1
EndChar

StartChar: sterling
Encoding: 163 163 99
Width: 1335
GlyphClass: 2
Flags: W
HStem: 0 90<207 319 519 1147> 645 90<345 437 656 1014> 1462 68<895.327 1135.64>
VStem: 1179 195<1211.73 1401.97>
DStem2: 299.87 0 499.87 0 0.207912 0.978148<133.593 659.416 792.982 1399.05>
LayerCount: 2
Fore
SplineSet
150 0 m 1,0,-1
 152 10 l 1,1,-1
 207 90 l 1,2,-1
 319 90 l 1,3,-1
 437 645 l 1,4,-1
 288 645 l 1,5,-1
 290 655 l 1,6,-1
 345 735 l 1,7,-1
 456 735 l 1,8,-1
 542 1137 l 2,9,10
 587 1350 587 1350 709 1434 c 0,11,12
 847 1530 847 1530 1020 1530 c 0,13,14
 1198 1530 1198 1530 1301 1434 c 0,15,16
 1374 1367 1374 1367 1374 1238 c 0,17,18
 1374 1229 1374 1229 1373 1220 c 1,19,-1
 1165 1130 l 1,20,-1
 1155 1130 l 1,21,22
 1179 1244 1179 1244 1179 1314 c 0,23,24
 1179 1376 1179 1376 1160 1404 c 0,25,26
 1119 1462 1119 1462 1023 1462 c 128,-1,27
 927 1462 927 1462 856 1401 c 0,28,29
 785 1339 785 1339 742 1137 c 2,30,-1
 656 735 l 1,31,-1
 1071 735 l 1,32,-1
 1069 725 l 1,33,-1
 1014 645 l 1,34,-1
 637 645 l 1,35,-1
 519 90 l 1,36,-1
 1204 90 l 1,37,-1
 1202 80 l 1,38,-1
 1147 0 l 1,39,-1
 150 0 l 1,0,-1
EndSplineSet
Validated: 1
EndChar

StartChar: currency
Encoding: 164 164 100
Width: 1395
GlyphClass: 2
Flags: W
HStem: 241 90<622.673 928.139> 1179 90<784 1091.16>
VStem: 339 187<452.171 851.372> 1187 185<659.286 1062.66>
DStem2: 224 346 394 275 0.771708 0.635977<86.036 196.48 1298.26 1428.53>
LayerCount: 2
Fore
SplineSet
947 1179 m 128,-1,1
 816 1179 816 1179 704 1076 c 0,2,3
 591 973 591 973 544 755 c 0,4,5
 526 672 526 672 526 599 c 0,6,7
 526 496 526 496 567 434 c 0,8,9
 635 331 635 331 765.5 331 c 128,-1,10
 896 331 896 331 1009 434.5 c 128,-1,11
 1122 538 1122 538 1168 755 c 0,12,13
 1187 842 1187 842 1187 911 c 0,14,15
 1187 1014 1187 1014 1146 1076 c 0,16,0
 1078 1179 1078 1179 947 1179 c 128,-1,1
946 1269 m 0,17,18
 1128 1269 1128 1269 1233 1179 c 1,19,-1
 1326 1255 l 1,20,-1
 1491 1191 l 1,21,-1
 1497 1184 l 1,22,-1
 1333 1049 l 1,23,24
 1372 957 1372 957 1372 857 c 0,25,26
 1372 799 1372 799 1359 739 c 0,27,28
 1326 584 1326 584 1230 463 c 1,29,-1
 1335 330 l 1,30,-1
 1327 323 l 1,31,-1
 1134 259 l 1,32,-1
 1076 332 l 1,33,34
 952 241 952 241 767 241 c 0,35,36
 592 241 592 241 471 338 c 1,37,-1
 394 275 l 1,38,-1
 229 339 l 1,39,-1
 224 346 l 1,40,-1
 375 471 l 1,41,42
 339 552 339 552 339 651 c 0,43,44
 339 696 339 696 346 745 c 0,45,46
 370 902 370 902 486 1050 c 1,47,-1
 382 1184 l 1,48,-1
 390 1191 l 1,49,-1
 582 1255 l 1,50,-1
 642 1180 l 1,51,52
 785 1269 785 1269 946 1269 c 0,17,18
EndSplineSet
Validated: 1
EndChar

StartChar: yen
Encoding: 165 165 101
Width: 1310
GlyphClass: 2
Flags: W
HStem: -20 21G<551 607.444> 114 90<371 579 798 1006> 314 90<414 622 841 1049> 1510 20G<628.556 685 1418.56 1475>
VStem: 346 179<658.259 872.691>
DStem2: 155.347 -20 356.003 -20 0.207912 0.978148<878.249 1492.68> 946.003 -20 1145.35 -20 0.207912 0.978148<756.916 1492.55>
LayerCount: 2
Fore
SplineSet
561 -20 m 1,0,-1
 551 -20 l 1,1,-1
 579 114 l 1,2,-1
 314 114 l 1,3,-1
 316 124 l 1,4,-1
 371 204 l 1,5,-1
 598 204 l 1,6,-1
 622 314 l 1,7,-1
 357 314 l 1,8,-1
 359 324 l 1,9,-1
 414 404 l 1,10,-1
 641 404 l 1,11,-1
 648 438 l 1,12,13
 526 477 526 477 448 571 c 0,14,15
 346 695 346 695 346 836 c 0,16,17
 346 879 346 879 356 924 c 2,18,-1
 466 1440 l 1,19,-1
 675 1530 l 1,20,-1
 685 1530 l 1,21,-1
 532 808 l 2,22,23
 525 773 525 773 525 742 c 0,24,25
 525 658 525 658 577 600 c 0,26,27
 649 520 649 520 765.5 520 c 128,-1,28
 882 520 882 520 988.5 600.5 c 128,-1,29
 1095 681 1095 681 1122 808 c 2,30,-1
 1256 1440 l 1,31,-1
 1465 1530 l 1,32,-1
 1475 1530 l 1,33,-1
 1346 924 l 2,34,35
 1297 694 1297 694 1143 571 c 0,36,37
 1010 464 1010 464 848 439 c 1,38,-1
 841 404 l 1,39,-1
 1106 404 l 1,40,-1
 1104 394 l 1,41,-1
 1049 314 l 1,42,-1
 822 314 l 1,43,-1
 798 204 l 1,44,-1
 1063 204 l 1,45,-1
 1061 194 l 1,46,-1
 1006 114 l 1,47,-1
 779 114 l 1,48,-1
 770 70 l 1,49,-1
 561 -20 l 1,0,-1
EndSplineSet
Validated: 1
EndChar

StartChar: brokenbar
Encoding: 166 166 102
Width: 650
GlyphClass: 2
Flags: W
VStem: 207 556
DStem2: 207 -200 357.971 -200 0.207912 0.978148<98.8632 804.731 1171.1 1885.21>
LayerCount: 2
Fore
SplineSet
207 -200 m 1,0,-1
 375 587 l 1,1,-1
 529 653 l 1,2,-1
 539 653 l 1,3,-1
 372 -134 l 1,4,-1
 217 -200 l 1,5,-1
 207 -200 l 1,0,-1
753 1710 m 1,6,-1
 763 1710 l 1,7,-1
 594 915 l 1,8,-1
 440 849 l 1,9,-1
 430 849 l 1,10,-1
 599 1644 l 1,11,-1
 753 1710 l 1,6,-1
EndSplineSet
Validated: 1
EndChar

StartChar: section
Encoding: 167 167 103
Width: 1090
GlyphClass: 2
Flags: W
HStem: -20 80<473.2 659.742> 1450 80<751.258 937.8>
VStem: 279 176<106.692 213> 309 185<583.326 880.738> 480 178<1092.14 1348.62> 753 178<161.379 417.856> 917 185<629.262 926.674> 956 176<1297 1403.31>
LayerCount: 2
Fore
SplineSet
556 -20 m 0,0,1
 414 -20 414 -20 341 64 c 0,2,3
 282 132 282 132 279 213 c 1,4,-1
 461 292 l 1,5,-1
 471 292 l 1,6,7
 455 218 455 218 455 170 c 0,8,9
 455 128 455 128 468 106 c 0,10,11
 495 60 495 60 553.5 60 c 128,-1,12
 612 60 612 60 664 102 c 0,13,14
 717 144 717 144 747 273 c 0,15,16
 753 299 753 299 753 322 c 0,17,18
 753 437 753 437 607 453 c 0,19,20
 437 472 437 472 369 547 c 0,21,22
 309 613 309 613 309 713 c 0,23,24
 309 736 309 736 312 761 c 0,25,26
 330 909 330 909 444 1006 c 1,27,-1
 560 924 l 1,28,29
 522 861 522 861 501 758 c 0,30,31
 494 724 494 724 494 694 c 0,32,33
 494 556 494 556 658 537 c 0,34,35
 803 520 803 520 867 456 c 0,36,37
 931 391 931 391 931 302 c 0,38,39
 931 285 931 285 929 268 c 0,40,41
 913 140 913 140 805 62 c 0,42,43
 692 -20 692 -20 556 -20 c 0,0,1
855 1530 m 0,44,45
 997 1530 997 1530 1070 1446 c 0,46,47
 1129 1378 1129 1378 1132 1297 c 1,48,-1
 950 1218 l 1,49,-1
 940 1218 l 1,50,51
 956 1292 956 1292 956 1340 c 0,52,53
 956 1382 956 1382 943 1404 c 0,54,55
 916 1450 916 1450 857.5 1450 c 128,-1,56
 799 1450 799 1450 747 1408 c 0,57,58
 694 1366 694 1366 664 1237 c 0,59,60
 658 1211 658 1211 658 1188 c 0,61,62
 658 1073 658 1073 804 1057 c 0,63,64
 974 1038 974 1038 1042 963 c 0,65,66
 1102 897 1102 897 1102 797 c 0,67,68
 1102 774 1102 774 1099 749 c 0,69,70
 1081 601 1081 601 967 504 c 1,71,-1
 851 586 l 1,72,73
 889 649 889 649 910 752 c 0,74,75
 917 786 917 786 917 816 c 0,76,77
 917 954 917 954 753 973 c 0,78,79
 608 990 608 990 544 1054 c 0,80,81
 480 1119 480 1119 480 1208 c 0,82,83
 480 1225 480 1225 482 1242 c 0,84,85
 498 1370 498 1370 606 1448 c 0,86,87
 719 1530 719 1530 855 1530 c 0,44,45
EndSplineSet
Validated: 1
EndChar

StartChar: dieresis
Encoding: 168 168 104
Width: 600
GlyphClass: 2
Flags: W
HStem: 1230 227<374.232 520.636 650.141 796.574>
VStem: 333 229<1271.58 1415.8> 610 229<1272.58 1416.8>
LayerCount: 2
Fore
SplineSet
749 1458 m 128,-1,1
 795 1458 795 1458 821 1425 c 0,2,3
 839 1402 839 1402 839 1369 c 0,4,5
 839 1357 839 1357 837 1345 c 0,6,7
 827 1299 827 1299 786.5 1265 c 128,-1,8
 746 1231 746 1231 700 1231 c 0,9,10
 655 1231 655 1231 629 1265 c 0,11,12
 610 1289 610 1289 610 1320 c 0,13,14
 611 1333 611 1333 613 1345 c 0,15,16
 623 1391 623 1391 663 1424.5 c 128,-1,0
 703 1458 703 1458 749 1458 c 128,-1,1
472 1457 m 128,-1,18
 518 1457 518 1457 544 1424 c 0,19,20
 562 1401 562 1401 562 1368 c 0,21,22
 562 1356 562 1356 560 1344 c 0,23,24
 550 1298 550 1298 509.5 1264 c 128,-1,25
 469 1230 469 1230 423 1230 c 0,26,27
 378 1230 378 1230 352 1264 c 0,28,29
 333 1288 333 1288 333 1319 c 0,30,31
 334 1332 334 1332 336 1344 c 0,32,33
 346 1390 346 1390 386 1423.5 c 128,-1,17
 426 1457 426 1457 472 1457 c 128,-1,18
EndSplineSet
Validated: 1
EndChar

StartChar: copyright
Encoding: 169 169 105
Width: 1401
GlyphClass: 2
Flags: W
HStem: 386 52<634.584 955.646> 547 65<754.141 931.255> 1294 66<884.227 1064.05> 1478 52<854.632 1173.39>
VStem: 332 59<686.575 1015.56> 601 131<638.417 928.852> 1087 132<1138 1259.19> 1416 59<900.437 1234>
DStem2: 516.451 386 660.605 386 0.207912 0.978148<380.319 901.228>
LayerCount: 2
Fore
SplineSet
987 1360 m 0,0,1
 1108 1360 1108 1360 1168 1285 c 0,2,3
 1219 1222 1219 1222 1219 1138 c 1,4,-1
 1081 1088 l 1,5,-1
 1066 1088 l 1,6,-1
 1084 1171 l 2,7,8
 1087 1186 1087 1186 1087 1200 c 0,9,10
 1086 1234 1086 1234 1066 1260 c 0,11,12
 1038 1294 1038 1294 982 1294 c 128,-1,13
 926 1294 926 1294 882 1260 c 0,14,15
 840 1228 840 1228 828 1171 c 2,16,-1
 735 736 l 2,17,18
 732 720 732 720 732 706 c 0,19,20
 732 670 732 670 752 646 c 0,21,22
 782 612 782 612 836 612 c 128,-1,23
 890 612 890 612 934 646 c 0,24,25
 976 678 976 678 989 736 c 2,26,-1
 999 779 l 1,27,-1
 1147 833 l 1,28,-1
 1157 833 l 1,29,-1
 1153 813 l 2,30,31
 1129 691 1129 691 1042 623 c 0,32,33
 945 547 945 547 832.5 547 c 128,-1,34
 720 547 720 547 652 623 c 0,35,36
 601 679 601 679 601 756 c 0,37,38
 601 783 601 783 607 812 c 2,39,-1
 667 1095 l 2,40,41
 694 1220 694 1220 777 1285 c 0,42,43
 875 1360 875 1360 987 1360 c 0,0,1
784 386 m 0,44,45
 558 386 558 386 428 549 c 0,46,47
 332 669 332 669 332 841 c 0,48,49
 332 890 332 890 340 943 c 0,50,51
 375 1183 375 1183 585 1362 c 0,52,53
 782 1530 782 1530 1023 1530 c 0,54,55
 1249 1530 1249 1530 1379 1367 c 0,56,57
 1475 1247 1475 1247 1475 1075 c 0,58,59
 1475 1026 1475 1026 1467 973 c 0,60,61
 1432 733 1432 733 1222 554 c 0,62,63
 1024 386 1024 386 784 386 c 0,44,45
1013 1478 m 0,64,65
 813 1478 813 1478 633 1330 c 0,66,67
 451 1181 451 1181 403 953 c 0,68,69
 391 897 391 897 391 843 c 0,70,71
 391 704 391 704 472 587 c 0,72,73
 575 438 575 438 794 438 c 0,74,75
 994 438 994 438 1174 586 c 0,76,77
 1356 735 1356 735 1404 963 c 0,78,79
 1416 1022 1416 1022 1416 1077 c 0,80,81
 1416 1216 1416 1216 1338 1329 c 0,82,83
 1235 1478 1235 1478 1013 1478 c 0,64,65
EndSplineSet
Validated: 1
EndChar

StartChar: ordfeminine
Encoding: 170 170 106
Width: 554
GlyphClass: 2
Flags: W
HStem: 790 120<295 620> 959 60<423.359 565.977> 1318 62<471.445 613.887> 1505 65<506 645.247>
VStem: 290 120<1044.53 1172> 664 118<1356.68 1488.12>
DStem2: 533.538 790 658.819 790 0.207912 0.978148<237.71 467.503 577.637 639.83>
LayerCount: 2
Fore
SplineSet
413 1112 m 2,0,1
 410 1099 410 1099 410 1087 c 0,2,3
 410 1061 410 1061 424 1044 c 0,4,5
 444 1019 444 1019 485.5 1019 c 128,-1,6
 527 1019 527 1019 560 1044 c 128,-1,7
 593 1069 593 1069 602 1112 c 2,8,-1
 626 1225 l 2,9,10
 629 1237 629 1237 629 1248 c 0,11,12
 628 1275 628 1275 612 1293 c 0,13,14
 590 1318 590 1318 549 1318 c 128,-1,15
 508 1318 508 1318 477.5 1293 c 128,-1,16
 447 1268 447 1268 437 1225 c 2,17,-1
 413 1112 l 2,0,1
506 1570 m 1,18,-1
 598 1570 l 2,19,20
 691 1570 691 1570 744 1505 c 0,21,22
 782 1460 782 1460 782 1392 c 0,23,24
 782 1370 782 1370 777 1346 c 2,25,-1
 703 997 l 1,26,-1
 573 949 l 1,27,-1
 563 949 l 1,28,-1
 570 983 l 1,29,30
 522 959 522 959 476 959 c 0,31,32
 372 960 372 960 326 1022 c 0,33,34
 291 1070 291 1070 290 1132 c 0,35,36
 290 1151 290 1151 294 1171 c 0,37,38
 308 1258 308 1258 382 1319 c 128,-1,39
 456 1380 456 1380 529 1380 c 0,40,41
 612 1380 612 1380 649 1356 c 1,42,-1
 662 1417 l 2,43,44
 664 1426 664 1426 664 1435 c 0,45,46
 664 1460 664 1460 646 1479 c 0,47,48
 622 1505 622 1505 584 1505 c 2,49,-1
 466 1505 l 1,50,-1
 468 1515 l 1,51,-1
 506 1570 l 1,18,-1
218 790 m 1,52,-1
 220 800 l 1,53,-1
 295 910 l 1,54,-1
 697 910 l 1,55,-1
 695 900 l 1,56,-1
 620 790 l 1,57,-1
 218 790 l 1,52,-1
EndSplineSet
Validated: 1
EndChar

StartChar: guillemotleft
Encoding: 171 171 107
Width: 1100
GlyphClass: 2
Flags: W
DStem2: 310 755 458 818 0.625082 0.780559<141.687 630.317> 458 818 310 755 0.355733 -0.934588<6.23058 475.076> 662 755 810 818 0.625082 0.780559<141.687 630.317> 810 818 662 755 0.355733 -0.934588<6.23058 475.076>
LayerCount: 2
Fore
SplineSet
662 755 m 1,0,-1
 1056 1247 l 1,1,-1
 1066 1247 l 1,2,-1
 1129 1213 l 1,3,-1
 810 818 l 1,4,-1
 979 374 l 1,5,-1
 839 313 l 1,6,-1
 829 313 l 1,7,-1
 662 755 l 1,0,-1
310 755 m 1,8,-1
 704 1247 l 1,9,-1
 714 1247 l 1,10,-1
 777 1213 l 1,11,-1
 458 818 l 1,12,-1
 627 374 l 1,13,-1
 487 313 l 1,14,-1
 477 313 l 1,15,-1
 310 755 l 1,8,-1
EndSplineSet
Validated: 1
EndChar

StartChar: logicalnot
Encoding: 172 172 108
Width: 1200
GlyphClass: 2
Flags: W
HStem: 680 150<392 1009>
VStem: 827 120<418 538>
DStem2: 827 418 947 418 0.567398 0.823444<68.0877 319.009>
LayerCount: 2
Fore
SplineSet
392 830 m 1,0,-1
 1226 830 l 1,1,-1
 1224 820 l 1,2,-1
 947 418 l 1,3,-1
 827 418 l 1,4,-1
 1009 680 l 1,5,-1
 295 680 l 1,6,-1
 297 690 l 1,7,-1
 392 830 l 1,0,-1
EndSplineSet
Validated: 1
EndChar

StartChar: uni00AD
Encoding: 173 173 109
Width: 1200
GlyphClass: 2
Flags: W
HStem: 680 150<392 1129>
LayerCount: 2
Fore
SplineSet
392 830 m 5,0,-1
 1226 830 l 5,1,-1
 1224 820 l 5,2,-1
 1129 680 l 5,3,-1
 295 680 l 5,4,-1
 297 690 l 5,5,-1
 392 830 l 5,0,-1
EndSplineSet
Validated: 1
EndChar

StartChar: registered
Encoding: 174 174 110
Width: 1401
GlyphClass: 2
Flags: W
HStem: 386 52<634.584 955.646> 817 65<791 872> 1284 65<877 1056.43> 1478 52<854.632 1173.39>
VStem: 332 59<686.575 1015.56> 1079 135<977.336 1241.31> 1416 59<900.437 1234>
DStem2: 545.778 386 685.938 386 0.207912 0.978148<245.877 469.863 536.146 947.241> 1027 849 872 817 0.43921 -0.898384<-1.7414 261.21>
LayerCount: 2
Fore
SplineSet
791 882 m 1,0,-1
 900 882 l 2,1,2
 954 882 954 882 998 923 c 128,-1,3
 1042 964 1042 964 1067 1083 c 0,4,5
 1079 1141 1079 1141 1079 1180 c 0,6,7
 1079 1220 1079 1220 1066 1242 c 0,8,9
 1040 1284 1040 1284 986 1284 c 2,10,-1
 877 1284 l 1,11,-1
 791 882 l 1,0,-1
784 386 m 0,12,13
 558 386 558 386 428 549 c 0,14,15
 332 669 332 669 332 841 c 0,16,17
 332 890 332 890 340 943 c 0,18,19
 375 1183 375 1183 585 1362 c 0,20,21
 782 1530 782 1530 1023 1530 c 0,22,23
 1249 1530 1249 1530 1379 1367 c 0,24,25
 1475 1247 1475 1247 1475 1075 c 0,26,27
 1475 1026 1475 1026 1467 973 c 0,28,29
 1432 733 1432 733 1222 554 c 0,30,31
 1024 386 1024 386 784 386 c 0,12,13
1013 1478 m 0,32,33
 813 1478 813 1478 633 1330 c 0,34,35
 451 1181 451 1181 403 953 c 0,36,37
 391 897 391 897 391 843 c 0,38,39
 391 704 391 704 472 587 c 0,40,41
 575 438 575 438 794 438 c 0,42,43
 994 438 994 438 1174 586 c 0,44,45
 1356 735 1356 735 1404 963 c 0,46,47
 1416 1022 1416 1022 1416 1077 c 0,48,49
 1416 1216 1416 1216 1338 1329 c 0,50,51
 1235 1478 1235 1478 1013 1478 c 0,32,33
819 1349 m 1,52,-1
 993 1349 l 2,53,54
 1108 1349 1108 1349 1168 1271 c 0,55,56
 1214 1212 1214 1212 1214 1128 c 0,57,58
 1214 1106 1214 1106 1211 1082 c 0,59,60
 1195 972 1195 972 1102 895 c 0,61,62
 1076 873 1076 873 1027 849 c 1,63,-1
 1150 600 l 1,64,-1
 1014 547 l 1,65,-1
 1004 547 l 1,66,-1
 872 817 l 1,67,-1
 778 817 l 1,68,-1
 731 598 l 1,69,-1
 590 547 l 1,70,-1
 580 547 l 1,71,-1
 744 1318 l 1,72,-1
 819 1349 l 1,52,-1
EndSplineSet
Validated: 1
EndChar

StartChar: macron
Encoding: 175 175 111
Width: 600
GlyphClass: 2
Flags: W
HStem: 1299 130<411 769>
VStem: 326 528
LayerCount: 2
Fore
SplineSet
411 1429 m 1,0,-1
 854 1429 l 1,1,-1
 852 1419 l 1,2,-1
 769 1299 l 1,3,-1
 326 1299 l 1,4,-1
 328 1309 l 1,5,-1
 411 1429 l 1,0,-1
EndSplineSet
Validated: 1
EndChar

StartChar: degree
Encoding: 176 176 112
Width: 650
GlyphClass: 2
Flags: W
HStem: 1016 112<473.449 674.063> 1458 112<524.361 726.551>
VStem: 314 133<1165.64 1378.56> 753 133<1206.98 1420.36>
LayerCount: 2
Fore
SplineSet
635 1458 m 128,-1,1
 574 1458 574 1458 519.5 1409 c 128,-1,2
 465 1360 465 1360 451 1293 c 16,3,4
 447 1273 447 1273 447 1255 c 0,5,6
 447 1210 447 1210 470 1177 c 0,7,8
 504 1128 504 1128 565 1128 c 128,-1,9
 626 1128 626 1128 680.5 1177 c 128,-1,10
 735 1226 735 1226 749 1293 c 16,11,12
 753 1313 753 1313 753 1331 c 0,13,14
 753 1376 753 1376 730 1409 c 0,15,0
 696 1458 696 1458 635 1458 c 128,-1,1
644 1570 m 128,-1,17
 758 1570 758 1570 828 1488 c 0,18,19
 886 1421 886 1421 886 1335 c 0,20,21
 886 1314 886 1314 883 1292 c 8,22,23
 867 1178 867 1178 768.5 1097 c 128,-1,24
 670 1016 670 1016 556 1016 c 128,-1,25
 442 1016 442 1016 372 1098 c 0,26,27
 314 1165 314 1165 314 1251 c 0,28,29
 314 1271 314 1271 318 1293 c 8,30,31
 334 1407 334 1407 432 1488.5 c 128,-1,16
 530 1570 530 1570 644 1570 c 128,-1,17
EndSplineSet
Validated: 1
EndChar

StartChar: plusminus
Encoding: 177 177 113
Width: 1200
GlyphClass: 2
Flags: W
HStem: 275 150<306 1042> 858 150<430 707 889 1166>
DStem2: 583.788 275 733.76 275 0.207912 0.978148<311.302 595.877 780.439 1065.22>
LayerCount: 2
Fore
SplineSet
306 425 m 1,0,-1
 1140 425 l 1,1,-1
 1138 415 l 1,2,-1
 1042 275 l 1,3,-1
 208 275 l 1,4,-1
 211 285 l 1,5,-1
 306 425 l 1,0,-1
805 1317 m 1,6,-1
 959 1383 l 1,7,-1
 969 1383 l 1,8,-1
 889 1008 l 1,9,-1
 1264 1008 l 1,10,-1
 1262 998 l 1,11,-1
 1166 858 l 1,12,-1
 857 858 l 1,13,-1
 792 549 l 1,14,-1
 638 483 l 1,15,-1
 628 483 l 1,16,-1
 707 858 l 1,17,-1
 332 858 l 1,18,-1
 334 868 l 1,19,-1
 430 1008 l 1,20,-1
 739 1008 l 1,21,-1
 805 1317 l 1,6,-1
EndSplineSet
Validated: 1
EndChar

StartChar: uni00B2
Encoding: 178 178 114
Width: 651
VWidth: 1406
GlyphClass: 2
Flags: W
HStem: 764 132<427 716> 1507 63<554.502 718.77>
VStem: 331 145<1231.25 1423.98> 744 140<1238.25 1462.28>
DStem2: 283 887 427 896 0.829588 0.558376<124.486 501.83>
LayerCount: 2
Fore
SplineSet
652 1570 m 128,-1,1
 778 1570 778 1570 839 1494 c 0,2,3
 884 1438 884 1438 884 1367 c 0,4,5
 884 1339 884 1339 877 1309 c 0,6,7
 844 1165 844 1165 652 1041 c 2,8,-1
 427 896 l 1,9,-1
 791 895 l 1,10,-1
 789 885 l 1,11,-1
 716 764 l 1,12,-1
 212 764 l 1,13,-1
 215 774 l 1,14,-1
 283 887 l 1,15,-1
 543 1062 l 2,16,17
 699 1167 699 1167 737 1344 c 0,18,19
 744 1376 744 1376 744 1402 c 0,20,21
 744 1440 744 1440 729 1463 c 0,22,23
 702 1507 702 1507 644 1507 c 0,24,25
 587 1507 587 1507 542 1466 c 0,26,27
 500 1430 500 1430 484 1352 c 0,28,29
 476 1313 476 1313 476 1282 c 0,30,31
 476 1253 476 1253 484 1234 c 1,32,-1
 354 1181 l 1,33,-1
 344 1181 l 1,34,35
 331 1222 331 1222 331 1266 c 0,36,37
 331 1299 331 1299 338 1333 c 0,38,39
 357 1425 357 1425 436 1493 c 0,40,0
 526 1570 526 1570 652 1570 c 128,-1,1
EndSplineSet
Validated: 1
EndChar

StartChar: uni00B3
Encoding: 179 179 115
Width: 643
VWidth: 1396
GlyphClass: 2
Flags: W
HStem: 774 67<422.476 593.421> 1493 67<467 686>
VStem: 263 135<868.073 1015.97> 682 138<933.652 1183.43>
DStem2: 505 1249 674 1269 0.60826 0.793738<118.671 303.767>
LayerCount: 2
Fore
SplineSet
467 1560 m 1,0,-1
 897 1560 l 1,1,-1
 674 1269 l 1,2,3
 743 1248 743 1248 783 1200 c 0,4,5
 820 1158 820 1158 820 1093 c 0,6,7
 820 1066 820 1066 813 1035 c 0,8,9
 790 919 790 919 710 850 c 0,10,11
 621 774 621 774 500 774 c 128,-1,12
 379 774 379 774 315 844 c 0,13,14
 263 903 263 903 263 989 c 0,15,16
 263 999 263 999 264 1009 c 1,17,-1
 410 1060 l 1,18,-1
 420 1060 l 1,19,-1
 402 976 l 2,20,21
 398 958 398 958 398 943 c 0,22,23
 398 907 398 907 417 880 c 0,24,25
 444 841 444 841 501.5 841 c 128,-1,26
 559 841 559 841 602 881 c 0,27,28
 646 922 646 922 670 1037 c 0,29,30
 682 1095 682 1095 682 1133 c 0,31,32
 682 1166 682 1166 673 1184 c 0,33,34
 654 1222 654 1222 594 1222 c 0,35,36
 559 1222 559 1222 527 1214 c 1,37,-1
 505 1249 l 1,38,-1
 686 1493 l 1,39,-1
 425 1493 l 1,40,-1
 427 1503 l 1,41,-1
 467 1560 l 1,0,-1
EndSplineSet
Validated: 1
EndChar

StartChar: acute
Encoding: 180 180 116
Width: 372
GlyphClass: 2
Flags: W
HStem: 1160 367
VStem: 310 323
DStem2: 310 1224 433 1160 0.550881 0.834584<14.3449 363.055>
LayerCount: 2
Fore
SplineSet
520 1527 m 1,0,-1
 633 1463 l 1,1,-1
 433 1160 l 1,2,-1
 423 1160 l 1,3,-1
 310 1224 l 1,4,-1
 510 1527 l 1,5,-1
 520 1527 l 1,0,-1
EndSplineSet
Validated: 1
EndChar

StartChar: uni00B5
Encoding: 181 181 117
Width: 1190
GlyphClass: 2
Flags: W
HStem: -430 21G<89 145.173> -20 80<481.731 751.428> 1100 20G<541.827 598 1191.83 1248>
DStem2: 89 -430 268.783 -430 0.207912 0.978148<120.189 526.956 718.034 1501.77> 738.754 -430 918.537 -430 0.207912 0.978148<644.818 1501.82>
LayerCount: 2
Fore
SplineSet
89 -430 m 1,0,-1
 401 1039 l 1,1,-1
 588 1120 l 1,2,-1
 598 1120 l 1,3,-1
 421 286 l 2,4,5
 415 259 415 259 415 234 c 0,6,7
 415 170 415 170 455 124 c 0,8,9
 510 60 510 60 608 60 c 128,-1,10
 706 60 706 60 788 123.5 c 128,-1,11
 870 187 870 187 891 286 c 2,12,-1
 1051 1039 l 1,13,-1
 1238 1120 l 1,14,-1
 1248 1120 l 1,15,-1
 1092 388 l 2,16,17
 1051 195 1051 195 929 97 c 0,18,19
 783 -20 783 -20 611 -20 c 0,20,21
 459 -20 459 -20 370 49 c 1,22,-1
 286 -349 l 1,23,-1
 99 -430 l 1,24,-1
 89 -430 l 1,0,-1
EndSplineSet
Validated: 1
EndChar

StartChar: paragraph
Encoding: 182 182 118
Width: 1180
GlyphClass: 2
Flags: W
HStem: -20 21G<776 833.143> 548 982<670.03 884.948>
DStem2: 776 -20 846.048 -20 0.207912 0.978148<43.1894 637.808> 909.459 -20 975.87 -20 0.207912 0.978148<105.818 1185.5>
LayerCount: 2
Fore
SplineSet
786 -20 m 1,0,-1
 776 -20 l 1,1,-1
 908 604 l 1,2,3
 803 548 803 548 691 548 c 0,4,5
 518 548 518 548 422 665 c 0,6,7
 344 759 344 759 344 876 c 0,8,9
 344 915 344 915 353 956 c 2,10,-1
 388 1122 l 2,11,12
 430 1315 430 1315 552 1413 c 0,13,14
 698 1530 698 1530 870 1530 c 128,-1,15
 1042 1530 1042 1530 1148 1413 c 0,16,17
 1227 1326 1227 1326 1228 1208 c 0,18,19
 1228 1167 1228 1167 1218 1122 c 2,20,-1
 995 70 l 1,21,-1
 922 39 l 1,22,-1
 1156 1140 l 1,23,-1
 1086 1110 l 1,24,-1
 852 8 l 1,25,-1
 786 -20 l 1,0,-1
EndSplineSet
Validated: 1
EndChar

StartChar: periodcentered
Encoding: 183 183 119
Width: 340
GlyphClass: 2
Flags: W
HStem: 632 245<254.711 405.42>
VStem: 207 246<679.592 828.764>
LayerCount: 2
Fore
SplineSet
356 877 m 0,0,1
 408 877 408 877 434 841 c 0,2,3
 453 816 453 816 453 782 c 0,4,5
 453 768 453 768 450 754 c 0,6,7
 439 704 439 704 396.5 668 c 128,-1,8
 354 632 354 632 304 632 c 128,-1,9
 254 632 254 632 226 668 c 0,10,11
 207 693 207 693 207 727 c 0,12,13
 207 740 207 740 210 754 c 0,14,15
 221 804 221 804 263.5 840.5 c 128,-1,16
 306 877 306 877 356 877 c 0,0,1
EndSplineSet
Validated: 1
EndChar

StartChar: cedilla
Encoding: 184 184 120
Width: 420
GlyphClass: 2
Flags: W
HStem: -410 410 -20 20G<156 254.5>
VStem: 188 143<-239.266 -78.4795>
LayerCount: 2
Fore
SplineSet
-37 -410 m 1,0,-1
 -35 -400 l 1,1,-1
 47 -280 l 1,2,3
 165 -264 165 -264 185 -173 c 0,4,5
 188 -158 188 -158 188 -145 c 0,6,7
 188 -95 188 -95 140 -76 c 1,8,-1
 156 0 l 1,9,-1
 259 0 l 1,10,-1
 250 -40 l 1,11,12
 331 -77 331 -77 331 -165 c 0,13,14
 331 -176 331 -176 330 -187 c 0,15,16
 304 -410 304 -410 -37 -410 c 1,0,-1
EndSplineSet
Validated: 1
EndChar

StartChar: uni00B9
Encoding: 185 185 121
Width: 412
VWidth: 1401
GlyphClass: 2
Flags: W
VStem: 328 318
DStem2: 328 736 468.16 736 0.207912 0.978148<81.2802 729.022> 360 1460 346 1391 0.92894 0.37023<0 107.4>
LayerCount: 2
Fore
SplineSet
636 1570 m 1,0,-1
 646 1570 l 1,1,-1
 479 787 l 1,2,-1
 338 736 l 1,3,-1
 328 736 l 1,4,-1
 480 1449 l 1,5,-1
 346 1391 l 1,6,-1
 360 1460 l 1,7,-1
 636 1570 l 1,0,-1
EndSplineSet
Validated: 1
EndChar

StartChar: ordmasculine
Encoding: 186 186 122
Width: 554
GlyphClass: 2
Flags: W
HStem: 790 120<295 620> 960 60<429.374 571.361> 1509 61<518.416 662.137>
VStem: 296 118<1036.05 1311.09> 678 117<1217.91 1492.09>
DStem2: 217.465 790 348.344 790 0.207912 0.978148<356.419 728.353> 542.344 790 671.465 790 0.207912 0.978148<269.286 638.746>
LayerCount: 2
Fore
SplineSet
598 1509 m 0,0,1
 556 1509 556 1509 523 1483 c 0,2,3
 489 1456 489 1456 481 1416 c 2,4,-1
 417 1113 l 2,5,6
 414 1101 414 1101 414 1091 c 0,7,8
 414 1065 414 1065 430 1046 c 0,9,10
 451 1020 451 1020 493.5 1020 c 128,-1,11
 536 1020 536 1020 568 1046 c 0,12,13
 602 1073 602 1073 611 1113 c 2,14,-1
 675 1416 l 2,15,16
 678 1428 678 1428 678 1438 c 0,17,18
 678 1465 678 1465 661 1483 c 0,19,20
 636 1509 636 1509 598 1509 c 0,0,1
218 790 m 1,21,-1
 220 800 l 1,22,-1
 295 910 l 1,23,-1
 697 910 l 1,24,-1
 695 900 l 1,25,-1
 620 790 l 1,26,-1
 218 790 l 1,21,-1
602 1570 m 0,27,28
 700 1570 700 1570 753 1505 c 0,29,30
 795 1453 795 1453 795 1390 c 0,31,32
 795 1368 795 1368 790 1346 c 2,33,-1
 755 1183 l 2,34,35
 732 1077 732 1077 665 1024 c 0,36,37
 585 960 585 960 491 960 c 128,-1,38
 397 960 397 960 339 1024 c 0,39,40
 296 1072 296 1072 296 1137 c 0,41,42
 296 1159 296 1159 301 1183 c 2,43,-1
 336 1346 l 2,44,45
 358 1450 358 1450 427 1506 c 0,46,47
 507 1570 507 1570 602 1570 c 0,27,28
EndSplineSet
Validated: 1
EndChar

StartChar: guillemotright
Encoding: 187 187 123
Width: 1100
GlyphClass: 2
Flags: W
DStem2: 291 297 364 263 0.625082 0.780559<19.092 507.722> 591 1197 441 1136 0.355733 -0.934588<3.64994 472.495> 643 297 716 263 0.625082 0.780559<19.092 507.722> 943 1197 793 1136 0.355733 -0.934588<3.64994 472.495>
LayerCount: 2
Fore
SplineSet
758 755 m 1,0,-1
 364 263 l 1,1,-1
 354 263 l 1,2,-1
 291 297 l 1,3,-1
 610 692 l 1,4,-1
 441 1136 l 1,5,-1
 581 1197 l 1,6,-1
 591 1197 l 1,7,-1
 758 755 l 1,0,-1
1110 755 m 1,8,-1
 716 263 l 1,9,-1
 706 263 l 1,10,-1
 643 297 l 1,11,-1
 962 692 l 1,12,-1
 793 1136 l 1,13,-1
 933 1197 l 1,14,-1
 943 1197 l 1,15,-1
 1110 755 l 1,8,-1
EndSplineSet
Validated: 1
EndChar

StartChar: onequarter
Encoding: 188 188 124
Width: 1572
VWidth: 1401
GlyphClass: 2
Flags: W
HStem: -20 21G<413.284 473.756 1202 1267.29> 180 66<996 1244 1398 1434> 1510 20G<677 737 1332.26 1393.01>
DStem2: 267.81 -20 407.969 -20 0.207912 0.978148<813.276 1460.81> 327 47 460 -20 0.566694 0.823928<20.1671 1799.35> 452 1420 437 1351 0.928477 0.371391<0 106.403> 860 190 996 246 0.666606 0.74541<132.401 647.206> 1202 -20 1342.16 -20 0.207912 0.978148<81.2802 204.362 300.938 663.51>
LayerCount: 2
Fore
SplineSet
727 1530 m 1,0,-1
 737 1530 l 1,1,-1
 571 747 l 1,2,-1
 430 696 l 1,3,-1
 420 696 l 1,4,-1
 571 1409 l 1,5,-1
 437 1351 l 1,6,-1
 452 1420 l 1,7,-1
 727 1530 l 1,0,-1
996 246 m 1,8,-1
 1258 246 l 1,9,-1
 1340 629 l 1,10,-1
 996 246 l 1,8,-1
1212 -20 m 1,11,-1
 1202 -20 l 1,12,-1
 1244 180 l 1,13,-1
 858 180 l 1,14,-1
 860 190 l 1,15,-1
 1376 767 l 1,16,-1
 1509 815 l 1,17,-1
 1519 815 l 1,18,-1
 1398 246 l 1,19,-1
 1474 246 l 1,20,-1
 1472 236 l 1,21,-1
 1434 180 l 1,22,-1
 1384 180 l 1,23,-1
 1353 31 l 1,24,-1
 1212 -20 l 1,11,-1
450 -20 m 1,25,-1
 327 47 l 1,26,-1
 1346 1530 l 1,27,-1
 1356 1530 l 1,28,-1
 1480 1463 l 1,29,-1
 460 -20 l 1,30,-1
 450 -20 l 1,25,-1
EndSplineSet
Validated: 1
EndChar

StartChar: onehalf
Encoding: 189 189 125
Width: 1718
VWidth: 1401
GlyphClass: 2
Flags: W
HStem: -20 21G<413.284 473.756> 0 132<1232 1521> 743 63<1359.5 1523.77> 1510 20G<676.818 737 1332.26 1393.01>
VStem: 1136 145<467.247 659.977> 1549 140<474.25 698.278>
DStem2: 266.81 -20 406.969 -20 0.207912 0.978148<813.276 1461.02> 327 47 460 -20 0.566694 0.823928<20.1671 1799.35> 451 1420 437 1351 0.92894 0.37023<0 107.4> 1088 123 1232 132 0.829588 0.558376<124.486 501.83>
LayerCount: 2
Fore
SplineSet
727 1530 m 1,0,-1
 737 1530 l 1,1,-1
 570 747 l 1,2,-1
 429 696 l 1,3,-1
 419 696 l 1,4,-1
 571 1409 l 1,5,-1
 437 1351 l 1,6,-1
 451 1420 l 1,7,-1
 727 1530 l 1,0,-1
1457 806 m 128,-1,9
 1583 806 1583 806 1644 730 c 0,10,11
 1689 674 1689 674 1689 603 c 0,12,13
 1689 575 1689 575 1682 545 c 0,14,15
 1649 401 1649 401 1457 277 c 2,16,-1
 1232 132 l 1,17,-1
 1596 131 l 1,18,-1
 1594 121 l 1,19,-1
 1521 0 l 1,20,-1
 1017 0 l 1,21,-1
 1020 10 l 1,22,-1
 1088 123 l 1,23,-1
 1348 298 l 2,24,25
 1504 403 1504 403 1542 580 c 0,26,27
 1549 612 1549 612 1549 638 c 0,28,29
 1549 676 1549 676 1534 699 c 0,30,31
 1507 743 1507 743 1449 743 c 0,32,33
 1392 743 1392 743 1347 702 c 0,34,35
 1305 666 1305 666 1289 588 c 0,36,37
 1281 549 1281 549 1281 518 c 0,38,39
 1281 489 1281 489 1289 470 c 1,40,-1
 1159 417 l 1,41,-1
 1149 417 l 1,42,43
 1136 458 1136 458 1136 502 c 0,44,45
 1136 535 1136 535 1143 569 c 0,46,47
 1162 661 1162 661 1241 729 c 0,48,8
 1331 806 1331 806 1457 806 c 128,-1,9
450 -20 m 1,49,-1
 327 47 l 1,50,-1
 1346 1530 l 1,51,-1
 1356 1530 l 1,52,-1
 1480 1463 l 1,53,-1
 460 -20 l 1,54,-1
 450 -20 l 1,49,-1
EndSplineSet
Validated: 1
EndChar

StartChar: threequarters
Encoding: 190 190 126
Width: 1796
VWidth: 1401
GlyphClass: 2
Flags: W
HStem: -20 21G<637.284 697.756 1426 1491.29> 180 66<1220 1468 1622 1658> 744 67<515.476 686.421> 1463 67<560 779>
VStem: 356 135<838.073 985.969> 775 138<903.652 1153.43>
DStem2: 551 47 684 -20 0.566694 0.823928<20.1671 1799.35> 598 1219 767 1239 0.60826 0.793738<118.671 303.767> 1084 190 1220 246 0.666606 0.74541<132.401 647.206> 1426 -20 1566.16 -20 0.207912 0.978148<81.2802 204.362 300.938 663.51>
LayerCount: 2
Fore
SplineSet
560 1530 m 1,0,-1
 990 1530 l 1,1,-1
 767 1239 l 1,2,3
 836 1218 836 1218 876 1170 c 0,4,5
 913 1128 913 1128 913 1063 c 0,6,7
 913 1036 913 1036 906 1005 c 0,8,9
 883 889 883 889 803 820 c 0,10,11
 714 744 714 744 593 744 c 128,-1,12
 472 744 472 744 408 814 c 0,13,14
 356 873 356 873 356 959 c 0,15,16
 356 969 356 969 357 979 c 1,17,-1
 503 1030 l 1,18,-1
 513 1030 l 1,19,-1
 495 946 l 2,20,21
 491 928 491 928 491 913 c 0,22,23
 491 877 491 877 510 850 c 0,24,25
 537 811 537 811 594.5 811 c 128,-1,26
 652 811 652 811 695 851 c 0,27,28
 739 892 739 892 763 1007 c 0,29,30
 775 1065 775 1065 775 1103 c 0,31,32
 775 1136 775 1136 766 1154 c 0,33,34
 747 1192 747 1192 687 1192 c 0,35,36
 652 1192 652 1192 620 1184 c 1,37,-1
 598 1219 l 1,38,-1
 779 1463 l 1,39,-1
 518 1463 l 1,40,-1
 520 1473 l 1,41,-1
 560 1530 l 1,0,-1
1220 246 m 1,42,-1
 1482 246 l 1,43,-1
 1564 629 l 1,44,-1
 1220 246 l 1,42,-1
1436 -20 m 1,45,-1
 1426 -20 l 1,46,-1
 1468 180 l 1,47,-1
 1082 180 l 1,48,-1
 1084 190 l 1,49,-1
 1600 767 l 1,50,-1
 1733 815 l 1,51,-1
 1743 815 l 1,52,-1
 1622 246 l 1,53,-1
 1698 246 l 1,54,-1
 1696 236 l 1,55,-1
 1658 180 l 1,56,-1
 1608 180 l 1,57,-1
 1577 31 l 1,58,-1
 1436 -20 l 1,45,-1
674 -20 m 1,59,-1
 551 47 l 1,60,-1
 1570 1530 l 1,61,-1
 1580 1530 l 1,62,-1
 1704 1463 l 1,63,-1
 684 -20 l 1,64,-1
 674 -20 l 1,59,-1
EndSplineSet
Validated: 1
EndChar

StartChar: questiondown
Encoding: 191 191 127
Width: 1300
GlyphClass: 2
Flags: W
HStem: -430 90<415.445 747.759> 875 245<811.58 962.42>
VStem: 146 191<-237.59 108.368> 764 246<923.236 1072.41> 965 203<-80.2958 197.688>
LayerCount: 2
Fore
SplineSet
574 -430 m 0,0,1
 353 -430 353 -430 225 -285 c 0,2,3
 146 -196 146 -196 146 -70 c 0,4,5
 146 -23 146 -23 157 30 c 0,6,7
 218 319 218 319 582 484 c 0,8,9
 682 529 682 529 711 666 c 1,10,-1
 924 759 l 1,11,-1
 934 759 l 1,12,13
 885 527 885 527 652 422 c 0,14,15
 418 316 418 316 353 8 c 0,16,17
 337 -68 337 -68 337 -125 c 0,18,19
 337 -196 337 -196 362 -237 c 0,20,21
 425 -340 425 -340 573 -340 c 0,22,23
 718 -340 718 -340 828 -237 c 0,24,25
 918 -153 918 -153 957 33 c 0,26,27
 965 70 965 70 965 104 c 0,28,29
 965 149 965 149 951 186 c 1,30,-1
 1136 267 l 1,31,-1
 1146 267 l 1,32,33
 1168 204 1168 204 1168 134 c 0,34,35
 1168 84 1168 84 1157 30 c 0,36,37
 1114 -173 1114 -173 975 -285 c 0,38,39
 796 -430 796 -430 574 -430 c 0,0,1
913 1120 m 0,40,41
 962 1120 962 1120 990 1084 c 0,42,43
 1010 1058 1010 1058 1010 1025 c 0,44,45
 1010 1012 1010 1012 1007 998 c 0,46,47
 996 948 996 948 953.5 911.5 c 128,-1,48
 911 875 911 875 861 875 c 0,49,50
 812 875 812 875 784 911 c 0,51,52
 764 937 764 937 764 970 c 0,53,54
 764 984 764 984 767 998 c 0,55,56
 778 1048 778 1048 820.5 1084 c 128,-1,57
 863 1120 863 1120 913 1120 c 0,40,41
EndSplineSet
Validated: 1
EndChar

StartChar: endash
Encoding: 8211 8211 128
Width: 1200
GlyphClass: 2
Flags: W
HStem: 680 150<392 1129>
LayerCount: 2
Fore
SplineSet
392 830 m 5,0,-1
 1226 830 l 5,1,-1
 1224 820 l 5,2,-1
 1129 680 l 5,3,-1
 295 680 l 5,4,-1
 297 690 l 5,5,-1
 392 830 l 5,0,-1
EndSplineSet
Validated: 1
EndChar

StartChar: emdash
Encoding: 8212 8212 129
Width: 1500
GlyphClass: 2
Flags: W
HStem: 680 150<392 1429>
LayerCount: 2
Fore
SplineSet
392 830 m 1,0,-1
 1526 830 l 1,1,-1
 1524 820 l 1,2,-1
 1429 680 l 1,3,-1
 295 680 l 1,4,-1
 297 690 l 1,5,-1
 392 830 l 1,0,-1
EndSplineSet
Validated: 1
EndChar

StartChar: afii00208
Encoding: 8213 8213 130
Width: 1500
GlyphClass: 2
Flags: W
HStem: 680 150<392 1429>
LayerCount: 2
Fore
SplineSet
392 830 m 1,0,-1
 1526 830 l 1,1,-1
 1524 820 l 1,2,-1
 1429 680 l 1,3,-1
 295 680 l 1,4,-1
 297 690 l 1,5,-1
 392 830 l 1,0,-1
EndSplineSet
Validated: 1
EndChar

StartChar: quoteleft
Encoding: 8216 8216 131
Width: 389
GlyphClass: 2
Flags: W
HStem: 1046 554
VStem: 317 166<1169.5 1389.61>
LayerCount: 2
Fore
SplineSet
615 1600 m 1,0,-1
 621 1593 l 1,1,2
 516 1463 516 1463 488 1334 c 0,3,4
 483 1309 483 1309 483 1287 c 0,5,6
 483 1190 483 1190 578 1126 c 1,7,-1
 391 1046 l 1,8,-1
 381 1046 l 1,9,10
 317 1126 317 1126 317 1223 c 0,11,12
 317 1256 317 1256 324 1290 c 0,13,14
 366 1487 366 1487 615 1600 c 1,0,-1
EndSplineSet
Validated: 1
EndChar

StartChar: quoteright
Encoding: 8217 8217 132
Width: 389
GlyphClass: 2
Flags: W
HStem: 1046 554
VStem: 468 166<1257.27 1476.22>
LayerCount: 2
Fore
SplineSet
560 1600 m 1,0,-1
 570 1600 l 1,1,2
 634 1520 634 1520 634 1423 c 0,3,4
 634 1390 634 1390 627 1356 c 0,5,6
 585 1159 585 1159 336 1046 c 1,7,-1
 331 1053 l 1,8,9
 436 1183 436 1183 463 1312 c 0,10,11
 468 1336 468 1336 468 1359 c 0,12,13
 468 1456 468 1456 373 1520 c 1,14,-1
 560 1600 l 1,0,-1
EndSplineSet
Validated: 1
EndChar

StartChar: quotesinglbase
Encoding: 8218 8218 133
Width: 389
GlyphClass: 2
Flags: W
HStem: -276 554
VStem: 187 166<-64.7295 154.218>
LayerCount: 2
Fore
SplineSet
279 278 m 1,0,-1
 289 278 l 1,1,2
 353 198 353 198 353 101 c 0,3,4
 353 68 353 68 346 34 c 0,5,6
 304 -163 304 -163 55 -276 c 1,7,-1
 50 -269 l 1,8,9
 155 -139 155 -139 182 -10 c 0,10,11
 187 14 187 14 187 37 c 0,12,13
 187 134 187 134 92 198 c 1,14,-1
 279 278 l 1,0,-1
EndSplineSet
Validated: 1
EndChar

StartChar: quotereversed
Encoding: 8219 8219 134
Width: 389
GlyphClass: 2
Flags: W
HStem: 1053 547
VStem: 331 143<1149.75 1394.36>
LayerCount: 2
Fore
SplineSet
509 1600 m 1,0,-1
 662 1520 l 1,1,2
 512 1441 512 1441 484 1312 c 0,3,4
 474 1266 474 1266 474 1220 c 0,5,6
 474 1137 474 1137 506 1053 c 1,7,-1
 497 1046 l 1,8,9
 331 1139 331 1139 331 1290 c 0,10,11
 331 1322 331 1322 338 1356 c 0,12,13
 367 1493 367 1493 499 1600 c 1,14,-1
 509 1600 l 1,0,-1
EndSplineSet
Validated: 1
EndChar

StartChar: quotedblleft
Encoding: 8220 8220 135
Width: 688
GlyphClass: 2
Flags: W
HStem: 1046 554
VStem: 317 166<1169.5 1389.61> 616 166<1169.5 1389.61>
LayerCount: 2
Fore
SplineSet
615 1600 m 1,0,-1
 621 1593 l 1,1,2
 516 1463 516 1463 488 1334 c 0,3,4
 483 1309 483 1309 483 1287 c 0,5,6
 483 1190 483 1190 578 1126 c 1,7,-1
 391 1046 l 1,8,-1
 381 1046 l 1,9,10
 317 1126 317 1126 317 1223 c 0,11,12
 317 1256 317 1256 324 1290 c 0,13,14
 366 1487 366 1487 615 1600 c 1,0,-1
914 1600 m 1,15,-1
 920 1593 l 1,16,17
 816 1463 816 1463 788 1334 c 0,18,19
 783 1309 783 1309 782 1287 c 0,20,21
 782 1190 782 1190 877 1126 c 1,22,-1
 690 1046 l 1,23,-1
 680 1046 l 1,24,25
 616 1126 616 1126 616 1223 c 0,26,27
 616 1256 616 1256 623 1290 c 0,28,29
 665 1487 665 1487 914 1600 c 1,15,-1
EndSplineSet
Validated: 1
EndChar

StartChar: quotedblright
Encoding: 8221 8221 136
Width: 688
GlyphClass: 2
Flags: W
HStem: 1046 554
VStem: 468 166<1257.27 1476.22> 767 166<1257.27 1476.22>
LayerCount: 2
Fore
SplineSet
859 1600 m 1,0,-1
 869 1600 l 1,1,2
 933 1520 933 1520 933 1423 c 0,3,4
 933 1390 933 1390 926 1356 c 0,5,6
 884 1159 884 1159 635 1046 c 1,7,-1
 630 1053 l 1,8,9
 735 1183 735 1183 762 1312 c 0,10,11
 767 1336 767 1336 767 1359 c 0,12,13
 767 1456 767 1456 672 1520 c 1,14,-1
 859 1600 l 1,0,-1
560 1600 m 1,15,-1
 570 1600 l 1,16,17
 634 1520 634 1520 634 1423 c 0,18,19
 634 1390 634 1390 627 1356 c 0,20,21
 585 1159 585 1159 336 1046 c 1,22,-1
 331 1053 l 1,23,24
 436 1183 436 1183 463 1312 c 0,25,26
 468 1336 468 1336 468 1359 c 0,27,28
 468 1456 468 1456 373 1520 c 1,29,-1
 560 1600 l 1,15,-1
EndSplineSet
Validated: 1
EndChar

StartChar: quotedblbase
Encoding: 8222 8222 137
Width: 688
GlyphClass: 2
Flags: W
HStem: -276 554
VStem: 187 166<-64.7295 154.218> 486 166<-64.7295 154.218>
LayerCount: 2
Fore
SplineSet
578 278 m 1,0,-1
 588 278 l 1,1,2
 652 198 652 198 652 101 c 0,3,4
 652 68 652 68 645 34 c 0,5,6
 603 -163 603 -163 354 -276 c 1,7,-1
 349 -269 l 1,8,9
 454 -139 454 -139 481 -10 c 0,10,11
 486 14 486 14 486 37 c 0,12,13
 486 134 486 134 391 198 c 1,14,-1
 578 278 l 1,0,-1
279 278 m 1,15,-1
 289 278 l 1,16,17
 353 198 353 198 353 101 c 0,18,19
 353 68 353 68 346 34 c 0,20,21
 304 -163 304 -163 55 -276 c 1,22,-1
 50 -269 l 1,23,24
 155 -139 155 -139 182 -10 c 0,25,26
 187 14 187 14 187 37 c 0,27,28
 187 134 187 134 92 198 c 1,29,-1
 279 278 l 1,15,-1
EndSplineSet
Validated: 1
EndChar

StartChar: dagger
Encoding: 8224 8224 138
Width: 1214
GlyphClass: 2
Flags: W
HStem: -20 21G<503 559.444> 1088 90<438 738 957 1257> 1510 20G<975.556 1032>
DStem2: 503 -20 702.87 -20 0.207912 0.978148<133.566 1132.65 1266.21 1492.55>
LayerCount: 2
Fore
SplineSet
513 -20 m 1,0,-1
 503 -20 l 1,1,-1
 738 1088 l 1,2,-1
 381 1088 l 1,3,-1
 383 1098 l 1,4,-1
 438 1178 l 1,5,-1
 757 1178 l 1,6,-1
 813 1440 l 1,7,-1
 1022 1530 l 1,8,-1
 1032 1530 l 1,9,-1
 957 1178 l 1,10,-1
 1314 1178 l 1,11,-1
 1312 1168 l 1,12,-1
 1257 1088 l 1,13,-1
 938 1088 l 1,14,-1
 722 70 l 1,15,-1
 513 -20 l 1,0,-1
EndSplineSet
Validated: 1
EndChar

StartChar: daggerdbl
Encoding: 8225 8225 139
Width: 1214
GlyphClass: 2
Flags: W
HStem: -20 21G<503 559.444> 332 90<278 578 797 1097> 1088 90<438 738 957 1257> 1510 20G<975.556 1032>
DStem2: 503 -20 702.87 -20 0.207912 0.978148<133.566 359.901 493.467 1132.65 1266.21 1492.55>
LayerCount: 2
Fore
SplineSet
513 -20 m 1,0,-1
 503 -20 l 1,1,-1
 578 332 l 1,2,-1
 221 332 l 1,3,-1
 223 342 l 1,4,-1
 278 422 l 1,5,-1
 597 422 l 1,6,-1
 738 1088 l 1,7,-1
 381 1088 l 1,8,-1
 383 1098 l 1,9,-1
 438 1178 l 1,10,-1
 757 1178 l 1,11,-1
 813 1440 l 1,12,-1
 1022 1530 l 1,13,-1
 1032 1530 l 1,14,-1
 957 1178 l 1,15,-1
 1314 1178 l 1,16,-1
 1312 1168 l 1,17,-1
 1257 1088 l 1,18,-1
 938 1088 l 1,19,-1
 797 422 l 1,20,-1
 1154 422 l 1,21,-1
 1152 412 l 1,22,-1
 1097 332 l 1,23,-1
 778 332 l 1,24,-1
 722 70 l 1,25,-1
 513 -20 l 1,0,-1
EndSplineSet
Validated: 1
EndChar

StartChar: bullet
Encoding: 8226 8226 140
Width: 910
GlyphClass: 2
Flags: W
HStem: 447 616<497.518 734.37>
VStem: 300 632<640.532 870.9>
LayerCount: 2
Fore
SplineSet
666 1063 m 0,0,1
 795 1063 795 1063 871 973 c 0,2,3
 932 901 932 901 932 805 c 0,4,5
 932 780 932 780 929 755 c 8,6,7
 909 628 909 628 800.5 537.5 c 128,-1,8
 692 447 692 447 565 447 c 128,-1,9
 438 447 438 447 361 537 c 0,10,11
 300 609 300 609 300 705 c 0,12,13
 300 731 300 731 303 755 c 8,14,15
 323 882 323 882 431 972.5 c 128,-1,16
 539 1063 539 1063 666 1063 c 0,0,1
EndSplineSet
Validated: 1
EndChar

StartChar: ellipsis
Encoding: 8230 8230 141
Width: 1012
GlyphClass: 2
Flags: W
HStem: -20 245<116.901 267.42 452.901 603.42 788.901 939.42>
VStem: 69 246<27.5918 176.764> 405 246<27.5918 176.764> 741 246<27.5918 176.764>
CounterMasks: 1 70
LayerCount: 2
Fore
SplineSet
838 -20 m 0,0,1
 786 -20 786 -20 760 16 c 0,2,3
 741 42 741 42 741 75 c 0,4,5
 741 88 741 88 744 102 c 0,6,7
 755 152 755 152 797.5 188.5 c 128,-1,8
 840 225 840 225 890 225 c 128,-1,9
 940 225 940 225 968 189 c 0,10,11
 987 165 987 165 987 130 c 0,12,13
 987 116 987 116 984 102 c 0,14,15
 973 52 973 52 930.5 16 c 128,-1,16
 888 -20 888 -20 838 -20 c 0,0,1
502 -20 m 0,17,18
 450 -20 450 -20 424 16 c 0,19,20
 405 42 405 42 405 75 c 0,21,22
 405 88 405 88 408 102 c 0,23,24
 419 152 419 152 461.5 188.5 c 128,-1,25
 504 225 504 225 554 225 c 128,-1,26
 604 225 604 225 632 189 c 0,27,28
 651 165 651 165 651 130 c 0,29,30
 651 116 651 116 648 102 c 0,31,32
 637 52 637 52 594.5 16 c 128,-1,33
 552 -20 552 -20 502 -20 c 0,17,18
166 -20 m 0,34,35
 114 -20 114 -20 88 16 c 0,36,37
 69 42 69 42 69 75 c 0,38,39
 69 88 69 88 72 102 c 0,40,41
 83 152 83 152 125.5 188.5 c 128,-1,42
 168 225 168 225 218 225 c 128,-1,43
 268 225 268 225 296 189 c 0,44,45
 315 165 315 165 315 130 c 0,46,47
 315 116 315 116 312 102 c 0,48,49
 301 52 301 52 258.5 16 c 128,-1,50
 216 -20 216 -20 166 -20 c 0,34,35
EndSplineSet
Validated: 1
EndChar

StartChar: perthousand
Encoding: 8240 8240 142
Width: 2220
GlyphClass: 2
Flags: W
HStem: -20 63<1011.83 1187.59 1684.83 1860.59> 533 63<1101.93 1278.17 1774.93 1951.17> 914 63<581.845 757.605> 1467 63<671.945 848.181>
VStem: 399 145<1031.91 1326.14> 829 145<97.9121 392.139> 886 145<1117.86 1412.09> 1316 145<183.861 478.088> 1502 145<97.9121 392.139> 1989 145<183.861 478.088>
DStem2: 358 47 491 -20 0.566694 0.823928<20.1671 1799.35>
LayerCount: 2
Fore
SplineSet
1766 43 m 0,0,1
 1834 43 1834 43 1890.5 97 c 128,-1,2
 1947 151 1947 151 1976 288 c 16,3,4
 1989 352 1989 352 1989 397 c 0,5,6
 1989 450 1989 450 1971 479 c 0,7,8
 1937 533 1937 533 1869.5 533 c 128,-1,9
 1802 533 1802 533 1745.5 479 c 128,-1,10
 1689 425 1689 425 1660 288 c 16,11,12
 1647 224 1647 224 1647 179 c 0,13,14
 1647 126 1647 126 1665 97 c 0,15,16
 1699 43 1699 43 1766 43 c 0,0,1
1093 43 m 0,17,18
 1161 43 1161 43 1217.5 97 c 128,-1,19
 1274 151 1274 151 1303 288 c 16,20,21
 1316 352 1316 352 1316 397 c 0,22,23
 1316 450 1316 450 1298 479 c 0,24,25
 1264 533 1264 533 1196.5 533 c 128,-1,26
 1129 533 1129 533 1072.5 479 c 128,-1,27
 1016 425 1016 425 987 288 c 16,28,29
 974 224 974 224 974 179 c 0,30,31
 974 126 974 126 992 97 c 0,32,33
 1026 43 1026 43 1093 43 c 0,17,18
767 1467 m 0,34,35
 699 1467 699 1467 642.5 1413 c 128,-1,36
 586 1359 586 1359 557 1222 c 16,37,38
 544 1158 544 1158 544 1113 c 0,39,40
 544 1060 544 1060 562 1031 c 0,41,42
 596 977 596 977 663.5 977 c 128,-1,43
 731 977 731 977 787.5 1031 c 128,-1,44
 844 1085 844 1085 873 1222 c 16,45,46
 886 1286 886 1286 886 1331 c 0,47,48
 886 1384 886 1384 868 1413 c 0,49,50
 834 1467 834 1467 767 1467 c 0,34,35
1767 -20 m 128,-1,52
 1640 -20 1640 -20 1563 70 c 0,53,54
 1502 142 1502 142 1502 238 c 0,55,56
 1502 264 1502 264 1505 288 c 8,57,58
 1525 415 1525 415 1633 505.5 c 128,-1,59
 1741 596 1741 596 1868 596 c 0,60,61
 1997 596 1997 596 2073 506 c 0,62,63
 2134 434 2134 434 2134 338 c 0,64,65
 2134 313 2134 313 2131 288 c 8,66,67
 2111 161 2111 161 2002.5 70.5 c 128,-1,51
 1894 -20 1894 -20 1767 -20 c 128,-1,52
1094 -20 m 128,-1,69
 967 -20 967 -20 890 70 c 0,70,71
 829 142 829 142 829 238 c 0,72,73
 829 264 829 264 832 288 c 8,74,75
 852 415 852 415 960 505.5 c 128,-1,76
 1068 596 1068 596 1195 596 c 0,77,78
 1324 596 1324 596 1400 506 c 0,79,80
 1461 434 1461 434 1461 338 c 0,81,82
 1461 313 1461 313 1458 288 c 8,83,84
 1438 161 1438 161 1329.5 70.5 c 128,-1,68
 1221 -20 1221 -20 1094 -20 c 128,-1,69
481 -20 m 1,85,-1
 358 47 l 1,86,-1
 1377 1530 l 1,87,-1
 1387 1530 l 1,88,-1
 1511 1463 l 1,89,-1
 491 -20 l 1,90,-1
 481 -20 l 1,85,-1
765 1530 m 0,91,92
 894 1530 894 1530 970 1440 c 0,93,94
 1031 1368 1031 1368 1031 1272 c 0,95,96
 1031 1247 1031 1247 1028 1222 c 8,97,98
 1008 1095 1008 1095 899.5 1004.5 c 128,-1,99
 791 914 791 914 664 914 c 128,-1,100
 537 914 537 914 460 1004 c 0,101,102
 399 1076 399 1076 399 1172 c 0,103,104
 399 1198 399 1198 402 1222 c 8,105,106
 422 1349 422 1349 530 1439.5 c 128,-1,107
 638 1530 638 1530 765 1530 c 0,91,92
EndSplineSet
Validated: 1
EndChar

StartChar: minute
Encoding: 8242 8242 143
Width: 414
GlyphClass: 2
Flags: W
HStem: 1201 399
VStem: 315 374
LayerCount: 2
Fore
SplineSet
541 1600 m 1,0,-1
 551 1600 l 1,1,-1
 689 1527 l 1,2,-1
 409 1201 l 1,3,-1
 399 1201 l 1,4,-1
 315 1245 l 1,5,-1
 541 1600 l 1,0,-1
EndSplineSet
Validated: 1
EndChar

StartChar: second
Encoding: 8243 8243 144
Width: 667
GlyphClass: 2
Flags: W
HStem: 1201 399
VStem: 315 627
LayerCount: 2
Fore
SplineSet
794 1600 m 1,0,-1
 804 1600 l 1,1,-1
 942 1527 l 1,2,-1
 662 1201 l 1,3,-1
 652 1201 l 1,4,-1
 568 1245 l 1,5,-1
 794 1600 l 1,0,-1
541 1600 m 1,6,-1
 551 1600 l 1,7,-1
 689 1527 l 1,8,-1
 409 1201 l 1,9,-1
 399 1201 l 1,10,-1
 315 1245 l 1,11,-1
 541 1600 l 1,6,-1
EndSplineSet
Validated: 1
EndChar

StartChar: guilsinglleft
Encoding: 8249 8249 145
Width: 748
GlyphClass: 2
Flags: W
VStem: 310 467
DStem2: 310 755 458 818 0.625082 0.780559<141.687 630.317> 458 818 310 755 0.355733 -0.934588<6.23058 475.076>
LayerCount: 2
Fore
SplineSet
310 755 m 1,0,-1
 704 1247 l 1,1,-1
 714 1247 l 1,2,-1
 777 1213 l 1,3,-1
 458 818 l 1,4,-1
 627 374 l 1,5,-1
 487 313 l 1,6,-1
 477 313 l 1,7,-1
 310 755 l 1,0,-1
EndSplineSet
Validated: 1
EndChar

StartChar: guilsinglright
Encoding: 8250 8250 146
Width: 798
GlyphClass: 2
Flags: W
VStem: 291 467
DStem2: 291 297 364 263 0.625082 0.780559<19.092 507.722> 591 1197 441 1136 0.355733 -0.934588<3.64994 472.495>
LayerCount: 2
Fore
SplineSet
758 755 m 1,0,-1
 364 263 l 1,1,-1
 354 263 l 1,2,-1
 291 297 l 1,3,-1
 610 692 l 1,4,-1
 441 1136 l 1,5,-1
 581 1197 l 1,6,-1
 591 1197 l 1,7,-1
 758 755 l 1,0,-1
EndSplineSet
Validated: 1
EndChar

StartChar: fraction
Encoding: 8260 8260 147
Width: 872
GlyphClass: 2
Flags: W
HStem: -20 21G<106.284 166.756> 1510 20G<1025.26 1086.01>
DStem2: 20 47 153 -20 0.566694 0.823928<20.1671 1799.35>
LayerCount: 2
Fore
SplineSet
143 -20 m 1,0,-1
 20 47 l 1,1,-1
 1039 1530 l 1,2,-1
 1049 1530 l 1,3,-1
 1173 1463 l 1,4,-1
 153 -20 l 1,5,-1
 143 -20 l 1,0,-1
EndSplineSet
Validated: 1
EndChar

StartChar: Euro
Encoding: 8364 8364 148
Width: 1400
GlyphClass: 2
Flags: W
HStem: -20 90<604.267 934.595> 595 90<264 367 596 1058> 795 90<306 409 638 1101> 1440 90<877.301 1203.54>
VStem: 329 189<191.69 416.58> 1288 185<1143 1312.25>
DStem2: 235.997 -20 445.654 -20 0.207912 0.978148<400.358 628.798 764.443 833.16 968.805 1330.42>
LayerCount: 2
Fore
SplineSet
762 -20 m 128,-1,1
 552 -20 552 -20 424 121 c 0,2,3
 329 226 329 226 329 368 c 0,4,5
 329 417 329 417 341 474 c 2,6,-1
 367 595 l 1,7,-1
 206 595 l 1,8,-1
 209 605 l 1,9,-1
 264 685 l 1,10,-1
 386 685 l 1,11,-1
 409 795 l 1,12,-1
 249 795 l 1,13,-1
 251 805 l 1,14,-1
 306 885 l 1,15,-1
 428 885 l 1,16,-1
 460 1036 l 2,17,18
 509 1268 509 1268 662 1389 c 0,19,20
 840 1530 840 1530 1050 1530 c 0,21,22
 1262 1530 1262 1530 1378 1389 c 0,23,24
 1472 1275 1472 1275 1473 1143 c 1,25,-1
 1269 1055 l 1,26,-1
 1259 1055 l 1,27,-1
 1280 1152 l 2,28,29
 1288 1189 1288 1189 1288 1223 c 0,30,31
 1288 1304 1288 1304 1242 1360 c 0,32,33
 1178 1440 1178 1440 1051.5 1440 c 128,-1,34
 925 1440 925 1440 824 1360 c 0,35,36
 722 1279 722 1279 695 1152 c 2,37,-1
 638 885 l 1,38,-1
 1158 885 l 1,39,-1
 1156 875 l 1,40,-1
 1101 795 l 1,41,-1
 619 795 l 1,42,-1
 596 685 l 1,43,-1
 1116 685 l 1,44,-1
 1113 675 l 1,45,-1
 1058 595 l 1,46,-1
 576 595 l 1,47,-1
 526 358 l 2,48,49
 518 320 518 320 518 289 c 0,50,51
 518 206 518 206 566 150 c 0,52,53
 634 70 634 70 760 70 c 0,54,55
 890 70 890 70 986 150 c 0,56,57
 1083 231 1083 231 1111 358 c 2,58,-1
 1115 376 l 1,59,-1
 1341 474 l 1,60,-1
 1351 474 l 1,61,62
 1302 243 1302 243 1149 121 c 0,63,0
 972 -20 972 -20 762 -20 c 128,-1,1
EndSplineSet
Validated: 1
EndChar

StartChar: afii61248
Encoding: 8453 8453 149
Width: 1625
GlyphClass: 2
Flags: W
HStem: -20 65<1131.56 1306.77> 717 65<506.141 683.255 1246.16 1443.34> 1464 66<636.227 816.049>
VStem: 353 131<808.417 1098.85> 839 132<1308 1429.19> 975 132<71.9174 365.25> 1462 131<413.359 701.083>
DStem2: 146.018 -20 290.173 -20 0.207912 0.978148<969.188 1490.1> 397 47 530 -20 0.566694 0.823928<20.1671 1799.35> 924.673 -20 1069.83 -20 0.207912 0.978148<215.723 733.896> 1325.36 -20 1470.52 -20 0.207912 0.978148<127.062 645.62>
LayerCount: 2
Fore
SplineSet
1212 45 m 0,0,1
 1269 45 1269 45 1311.5 80 c 128,-1,2
 1354 115 1354 115 1366 169 c 2,3,-1
 1458 604 l 2,4,5
 1462 620 1462 620 1462 635 c 0,6,7
 1462 669 1462 669 1442 693 c 0,8,9
 1414 727 1414 727 1357.5 727 c 128,-1,10
 1301 727 1301 727 1256 693 c 0,11,12
 1214 661 1214 661 1202 604 c 2,13,-1
 1110 169 l 2,14,15
 1107 153 1107 153 1107 139 c 0,16,17
 1108 104 1108 104 1128 80 c 0,18,19
 1158 46 1158 46 1212 45 c 0,0,1
739 1530 m 0,20,21
 860 1530 860 1530 920 1455 c 0,22,23
 971 1392 971 1392 971 1308 c 1,24,-1
 833 1258 l 1,25,-1
 818 1258 l 1,26,-1
 836 1341 l 2,27,28
 839 1356 839 1356 839 1370 c 0,29,30
 838 1404 838 1404 818 1430 c 0,31,32
 790 1464 790 1464 734 1464 c 128,-1,33
 678 1464 678 1464 634 1430 c 0,34,35
 592 1398 592 1398 580 1341 c 2,36,-1
 487 906 l 2,37,38
 484 890 484 890 484 876 c 0,39,40
 484 840 484 840 504 816 c 0,41,42
 534 782 534 782 588 782 c 128,-1,43
 642 782 642 782 686 816 c 0,44,45
 728 848 728 848 741 906 c 2,46,-1
 751 949 l 1,47,-1
 899 1003 l 1,48,-1
 909 1003 l 1,49,-1
 905 983 l 2,50,51
 881 861 881 861 794 793 c 0,52,53
 697 717 697 717 584.5 717 c 128,-1,54
 472 717 472 717 404 793 c 0,55,56
 353 849 353 849 353 926 c 0,57,58
 353 953 353 953 359 982 c 2,59,-1
 419 1265 l 2,60,61
 446 1390 446 1390 529 1455 c 0,62,63
 627 1530 627 1530 739 1530 c 0,20,21
520 -20 m 1,64,-1
 397 47 l 1,65,-1
 1416 1530 l 1,66,-1
 1426 1530 l 1,67,-1
 1550 1463 l 1,68,-1
 530 -20 l 1,69,-1
 520 -20 l 1,64,-1
1207.5 -20 m 128,-1,71
 1095 -20 1095 -20 1026 56 c 0,72,73
 975 112 975 112 975 189 c 0,74,75
 975 216 975 216 981 245 c 2,76,-1
 1041 528 l 2,77,78
 1067 652 1067 652 1152 718 c 0,79,80
 1249 793 1249 793 1361.5 793 c 128,-1,81
 1474 793 1474 793 1542 717 c 0,82,83
 1593 661 1593 661 1593 584 c 0,84,85
 1593 557 1593 557 1587 528 c 2,86,-1
 1527 245 l 2,87,88
 1500 120 1500 120 1416 55 c 0,89,70
 1320 -20 1320 -20 1207.5 -20 c 128,-1,71
EndSplineSet
Validated: 1
EndChar

StartChar: afii61289
Encoding: 8467 8467 150
Width: 958
GlyphClass: 2
Flags: W
HStem: -20 136<493.285 609.793> 0 21G<50 267.222> 1510 20G<957 1028>
LayerCount: 2
Fore
SplineSet
486 466 m 1,0,1
 648 708 648 708 737 860 c 0,2,3
 896 1134 896 1134 944 1359 c 1,4,5
 826 1238 826 1238 730 1067 c 0,6,7
 544 740 544 740 486 466 c 1,0,1
50 0 m 1,8,9
 205 158 205 158 304 282 c 1,10,11
 310 366 310 366 326 443 c 0,12,13
 366 629 366 629 459 848 c 0,14,15
 633 1251 633 1251 822 1434 c 0,16,17
 920 1530 920 1530 994 1530 c 0,18,19
 1062 1530 1062 1530 1086 1479 c 0,20,21
 1099 1453 1099 1453 1099 1410 c 0,22,23
 1099 1371 1099 1371 1088 1318 c 0,24,25
 1068 1226 1068 1226 1006 1072 c 0,26,27
 862 722 862 722 480 271 c 1,28,29
 480 116 480 116 536 116 c 0,30,31
 560 116 560 116 593.5 145 c 128,-1,32
 627 174 627 174 664 228 c 1,33,-1
 840 228 l 1,34,35
 736 100 736 100 659 40 c 128,-1,36
 582 -20 582 -20 498 -20 c 0,37,38
 378 -20 378 -20 324 90 c 1,39,-1
 251 0 l 1,40,-1
 50 0 l 1,8,9
EndSplineSet
Validated: 1
EndChar

StartChar: trademark
Encoding: 8482 8482 151
Width: 1778
GlyphClass: 2
Flags: W
HStem: 1465 65<451 624 764 951 1152.97 1353.86 1557.25 1759.22>
VStem: 1779 126<1287.3 1441.25>
DStem2: 465 716 605.16 716 0.207912 0.978148<81.2802 765.691> 830 716 969.735 716 0.207912 0.978148<83.2365 745.106> 1235 716 1374.73 716 0.207912 0.978148<83.2365 678.97> 1640 716 1779.73 716 0.207912 0.978148<83.2365 652.927>
LayerCount: 2
Fore
SplineSet
840 716 m 1,0,-1
 830 716 l 1,1,-1
 949 1274 l 2,2,3
 976 1399 976 1399 1059 1465 c 0,4,5
 1156 1541 1156 1541 1270 1541 c 0,6,7
 1386 1541 1386 1541 1445 1466 c 0,8,9
 1449 1461 1449 1461 1452 1455 c 1,10,11
 1458 1460 1458 1460 1464 1465 c 0,12,13
 1559 1541 1559 1541 1673 1541 c 0,14,15
 1792 1541 1792 1541 1855 1464 c 0,16,17
 1905 1404 1905 1404 1905 1328 c 0,18,19
 1905 1302 1905 1302 1899 1274 c 2,20,-1
 1791 769 l 1,21,-1
 1650 716 l 1,22,-1
 1640 716 l 1,23,-1
 1776 1353 l 2,24,25
 1779 1368 1779 1368 1779 1382 c 0,26,27
 1779 1418 1779 1418 1756 1442 c 0,28,29
 1724 1476 1724 1476 1669 1476 c 0,30,31
 1612 1476 1612 1476 1568 1442 c 0,32,33
 1523 1408 1523 1408 1511 1353 c 2,34,-1
 1386 769 l 1,35,-1
 1245 716 l 1,36,-1
 1235 716 l 1,37,-1
 1371 1353 l 2,38,39
 1374 1368 1374 1368 1374 1381 c 0,40,41
 1374 1417 1374 1417 1351 1442 c 0,42,43
 1319 1477 1319 1477 1264 1477 c 128,-1,44
 1209 1477 1209 1477 1163 1442 c 0,45,46
 1118 1408 1118 1408 1106 1353 c 2,47,-1
 981 769 l 1,48,-1
 840 716 l 1,0,-1
451 1530 m 1,49,-1
 991 1530 l 1,50,-1
 989 1520 l 1,51,-1
 951 1465 l 1,52,-1
 764 1465 l 1,53,-1
 616 767 l 1,54,-1
 475 716 l 1,55,-1
 465 716 l 1,56,-1
 624 1465 l 1,57,-1
 411 1465 l 1,58,-1
 414 1475 l 1,59,-1
 451 1530 l 1,49,-1
EndSplineSet
Validated: 1
EndChar

StartChar: uni2126
Encoding: 8486 8486 152
Width: 1410
GlyphClass: 2
Flags: W
HStem: 0 90<257 465 983 1172> 1440 90<831.723 1167.37>
VStem: 331 175<388.359 595.945> 1262 179<1088.06 1316.03>
DStem2: 200.012 0 399.92 0 0.207912 0.978148<585.268 1309.55> 1009.92 0 1210.01 0 0.207912 0.978148<464.633 1199.33>
LayerCount: 2
Fore
SplineSet
608 0 m 1,0,-1
 200 0 l 1,1,-1
 202 10 l 1,2,-1
 257 90 l 1,3,-1
 465 90 l 1,4,-1
 499 248 l 1,5,6
 457 275 457 275 424 315 c 16,7,8
 331 428 331 428 331 569 c 0,9,10
 331 617 331 617 342 668 c 2,11,-1
 420 1036 l 2,12,13
 469 1267 469 1267 622 1389 c 0,14,15
 799 1530 799 1530 1010 1530 c 0,16,17
 1227 1530 1227 1530 1347 1389 c 0,18,19
 1441 1278 1441 1278 1441 1136 c 0,20,21
 1441 1088 1441 1088 1430 1036 c 2,22,-1
 1352 668 l 2,23,24
 1299 418 1299 418 1149 315 c 0,25,26
 1092 276 1092 276 1017 247 c 1,27,-1
 983 90 l 1,28,-1
 1229 90 l 1,29,-1
 1227 80 l 1,30,-1
 1172 0 l 1,31,-1
 802 0 l 1,32,-1
 855 251 l 1,33,34
 932 282 932 282 989 324 c 0,35,36
 1095 401 1095 401 1123 532 c 2,37,-1
 1255 1152 l 2,38,39
 1262 1186 1262 1186 1262 1217 c 0,40,41
 1262 1300 1262 1300 1209 1360 c 0,42,43
 1138 1440 1138 1440 1011 1440 c 0,44,45
 882 1440 882 1440 778 1360 c 0,46,47
 672 1278 672 1278 645 1152 c 2,48,-1
 513 532 l 2,49,50
 506 497 506 497 506 466 c 0,51,52
 506 382 506 382 558 324 c 0,53,54
 598 280 598 280 661 251 c 1,55,-1
 608 0 l 1,0,-1
EndSplineSet
Validated: 1
EndChar

StartChar: estimated
Encoding: 8494 8494 153
Width: 1330
GlyphClass: 2
Flags: W
HStem: -20 92<474.816 877.904> 525 80<477 1112> 1036 84<679.003 1065.2>
LayerCount: 2
Fore
SplineSet
1147 204 m 1,0,1
 1056 113 1056 113 961 61 c 0,2,3
 813 -20 813 -20 661 -20 c 0,4,5
 405 -20 405 -20 286 139 c 0,6,7
 201 252 201 252 201 407 c 0,8,9
 201 474 201 474 217 550 c 0,10,11
 268 788 268 788 451 952 c 24,12,13
 640 1120 640 1120 904 1120 c 0,14,15
 1153 1120 1153 1120 1269 964 c 272,16,17
 1359 843 1359 843 1359 677 c 0,18,19
 1359 605 1359 605 1342 525 c 1,20,-1
 460 525 l 1,21,-1
 389 192 l 1,22,23
 474 72 474 72 681 72 c 256,24,25
 804 72 804 72 908 132 c 0,26,27
 1001 186 1001 186 1068 266 c 1,28,-1
 1147 204 l 1,0,1
477 605 m 1,29,-1
 1112 605 l 1,30,-1
 1175 903 l 1,31,32
 1072 1036 1072 1036 886 1036 c 0,33,34
 695 1036 695 1036 542 914 c 1,35,-1
 477 605 l 1,29,-1
EndSplineSet
Validated: 1
EndChar

StartChar: partialdiff
Encoding: 8706 8706 154
Width: 1285
GlyphClass: 2
Flags: W
HStem: -20 153<436.608 700.456> 870 170<722.652 999.863> 1378 152<776.721 1116.12>
VStem: 215 190<165.92 478.052> 1176 187<906.621 1315.43>
LayerCount: 2
Fore
SplineSet
528 -20 m 0,0,1
 215 -20 215 -20 215 245 c 0,2,3
 215 303 215 303 230 375 c 0,4,5
 284 631 284 631 459 815 c 0,6,7
 675 1040 675 1040 893 1040 c 0,8,9
 1064 1040 1064 1040 1142 898 c 1,10,11
 1176 1073 1176 1073 1176 1170 c 0,12,13
 1176 1212 1176 1212 1170 1239 c 0,14,15
 1139 1378 1139 1378 971 1378 c 0,16,17
 840 1378 840 1378 695 1294 c 1,18,-1
 732 1468 l 1,19,20
 879 1530 879 1530 1028 1530 c 0,21,22
 1363 1530 1363 1530 1363 1174 c 0,23,24
 1363 1069 1363 1069 1334 934 c 0,25,26
 1251 545 1251 545 1032.5 262.5 c 128,-1,27
 814 -20 814 -20 528 -20 c 0,0,1
553 133 m 0,28,29
 691 133 691 133 833 286 c 128,-1,30
 975 439 975 439 1065 680 c 1,31,32
 1061 765 1061 765 1008.5 817.5 c 128,-1,33
 956 870 956 870 880 870 c 0,34,35
 720 870 720 870 587.5 710 c 128,-1,36
 455 550 455 550 416 369 c 0,37,38
 405 319 405 319 405 280 c 0,39,40
 405 133 405 133 553 133 c 0,28,29
EndSplineSet
Validated: 1
EndChar

StartChar: uni2206
Encoding: 8710 8710 155
Width: 1331
GlyphClass: 2
Flags: W
HStem: 0 90<165 1110>
DStem2: 5 0 165 90 0.509835 0.860272<158.998 1612.13> 1075 1550 906 1340 0.159853 -0.987141<180.284 1446.82>
LayerCount: 2
Fore
SplineSet
5 0 m 1,0,-1
 875 1468 l 1,1,-1
 1065 1550 l 1,2,-1
 1075 1550 l 1,3,-1
 1326 0 l 1,4,-1
 5 0 l 1,0,-1
165 90 m 1,5,-1
 1110 90 l 1,6,-1
 906 1340 l 1,7,-1
 165 90 l 1,5,-1
EndSplineSet
Validated: 1
EndChar

StartChar: product
Encoding: 8719 8719 156
Width: 1400
GlyphClass: 2
Flags: W
HStem: -430 21G<109 165.444 909 965.444> 1420 90<702 1302>
DStem2: 109 -430 308.87 -430 0.207912 0.978148<133.566 1932.07> 909 -430 1108.87 -430 0.207912 0.978148<133.566 1891.28>
LayerCount: 2
Fore
SplineSet
119 -430 m 1,0,-1
 109 -430 l 1,1,-1
 510 1460 l 1,2,-1
 627 1510 l 1,3,-1
 1521 1510 l 1,4,-1
 1128 -340 l 1,5,-1
 919 -430 l 1,6,-1
 909 -430 l 1,7,-1
 1302 1420 l 1,8,-1
 702 1420 l 1,9,-1
 328 -340 l 1,10,-1
 119 -430 l 1,0,-1
EndSplineSet
Validated: 1
EndChar

StartChar: summation
Encoding: 8721 8721 157
Width: 1203
GlyphClass: 2
Flags: W
HStem: -410 90<300 928> 1420 90<638 1297>
DStem2: 638 1420 411 1460 0.318189 -0.948027<0 807.545>
LayerCount: 2
Fore
SplineSet
13 -410 m 1,0,-1
 703 590 l 1,1,-1
 411 1460 l 1,2,-1
 528 1510 l 1,3,-1
 1354 1510 l 1,4,-1
 1352 1500 l 1,5,-1
 1297 1420 l 1,6,-1
 638 1420 l 1,7,-1
 936 574 l 1,8,-1
 300 -320 l 1,9,-1
 985 -320 l 1,10,-1
 983 -330 l 1,11,-1
 928 -410 l 1,12,-1
 13 -410 l 1,0,-1
EndSplineSet
Validated: 1
EndChar

StartChar: minus
Encoding: 8722 8722 158
Width: 1200
GlyphClass: 2
Flags: W
HStem: 680 150<392 1129>
LayerCount: 2
Fore
SplineSet
392 830 m 5,0,-1
 1226 830 l 5,1,-1
 1224 820 l 5,2,-1
 1129 680 l 5,3,-1
 295 680 l 5,4,-1
 297 690 l 5,5,-1
 392 830 l 5,0,-1
EndSplineSet
Validated: 1
EndChar

StartChar: uni2215
Encoding: 8725 8725 159
Width: 872
GlyphClass: 2
Flags: W
HStem: -20 21G<106.284 166.756> 1510 20G<1025.26 1086.01>
DStem2: 20 47 153 -20 0.566694 0.823928<20.1671 1799.35>
LayerCount: 2
Fore
SplineSet
143 -20 m 1,0,-1
 20 47 l 1,1,-1
 1039 1530 l 1,2,-1
 1049 1530 l 1,3,-1
 1173 1463 l 1,4,-1
 153 -20 l 1,5,-1
 143 -20 l 1,0,-1
EndSplineSet
Validated: 1
EndChar

StartChar: uni2219
Encoding: 8729 8729 160
Width: 340
GlyphClass: 2
Flags: W
HStem: 632 245<254.711 405.42>
VStem: 207 246<679.592 828.764>
LayerCount: 2
Fore
SplineSet
356 877 m 0,0,1
 408 877 408 877 434 841 c 0,2,3
 453 816 453 816 453 782 c 0,4,5
 453 768 453 768 450 754 c 0,6,7
 439 704 439 704 396.5 668 c 128,-1,8
 354 632 354 632 304 632 c 128,-1,9
 254 632 254 632 226 668 c 0,10,11
 207 693 207 693 207 727 c 0,12,13
 207 740 207 740 210 754 c 0,14,15
 221 804 221 804 263.5 840.5 c 128,-1,16
 306 877 306 877 356 877 c 0,0,1
EndSplineSet
Validated: 1
EndChar

StartChar: radical
Encoding: 8730 8730 161
Width: 1093
GlyphClass: 2
Flags: W
HStem: -20 21G<315.071 374.4> 1510 20G<1259.23 1318.14>
DStem2: 374 806 207 738 0.144893 -0.989447<43.0853 653.213> 464 159 502 55 0.513262 0.858232<0 1590.84>
LayerCount: 2
Fore
SplineSet
318 -20 m 1,0,-1
 207 738 l 1,1,-1
 364 806 l 1,2,-1
 374 806 l 1,3,-1
 464 159 l 1,4,-1
 1271 1530 l 1,5,-1
 1281 1530 l 1,6,-1
 1359 1488 l 1,7,-1
 502 55 l 1,8,-1
 328 -20 l 1,9,-1
 318 -20 l 1,0,-1
EndSplineSet
Validated: 1
EndChar

StartChar: infinity
Encoding: 8734 8734 162
Width: 1373
GlyphClass: 2
Flags: W
HStem: 446 63<481.211 658.679 942.88 1121.68> 999 63<571.773 749.039 1034.82 1212.45>
VStem: 297 147<565.004 858.139> 786 121<646.885 861.115> 1249 147<649.861 943.031>
CounterMasks: 1 38
LayerCount: 2
Fore
SplineSet
1026 509 m 128,-1,1
 1094 509 1094 509 1150.5 563 c 128,-1,2
 1207 617 1207 617 1236 754 c 0,3,4
 1249 818 1249 818 1249 863 c 0,5,6
 1249 917 1249 917 1232 945 c 0,7,8
 1198 999 1198 999 1130 999 c 128,-1,9
 1062 999 1062 999 1005.5 945 c 128,-1,10
 949 891 949 891 920 754 c 0,11,12
 907 690 907 690 907 645 c 0,13,14
 907 590 907 590 924 563 c 0,15,0
 958 509 958 509 1026 509 c 128,-1,1
563 509 m 0,16,17
 631 509 631 509 687.5 563 c 128,-1,18
 744 617 744 617 773 754 c 0,19,20
 786 818 786 818 786 863 c 0,21,22
 786 916 786 916 768 945 c 0,23,24
 734 999 734 999 666.5 999 c 128,-1,25
 599 999 599 999 542.5 945 c 128,-1,26
 486 891 486 891 457 754 c 0,27,28
 444 690 444 690 444 645 c 0,29,30
 444 592 444 592 462 563 c 0,31,32
 496 509 496 509 563 509 c 0,16,17
1033 446 m 0,33,34
 892 446 892 446 836 536 c 0,35,36
 831 544 831 544 825 553 c 1,37,38
 816 544 816 544 805 536 c 0,39,40
 697 446 697 446 570 446 c 128,-1,41
 443 446 443 446 363 536 c 0,42,43
 297 611 297 611 297 711 c 0,44,45
 297 732 297 732 300 754 c 0,46,47
 317 881 317 881 425.5 971.5 c 128,-1,48
 534 1062 534 1062 661 1062 c 0,49,50
 790 1062 790 1062 858 972 c 0,51,52
 864 964 864 964 870 955 c 1,53,54
 879 964 879 964 889 972 c 0,55,56
 997 1062 997 1062 1124 1062 c 0,57,58
 1250 1062 1250 1062 1330 972 c 0,59,60
 1395 897 1395 897 1396 798 c 0,61,62
 1396 777 1396 777 1393 754 c 0,63,64
 1376 627 1376 627 1268 536.5 c 128,-1,65
 1160 446 1160 446 1033 446 c 0,33,34
EndSplineSet
Validated: 1
EndChar

StartChar: approxequal
Encoding: 8776 8776 163
Width: 1138
GlyphClass: 2
Flags: W
HStem: 376 127<794.669 967.533> 610 127<407.556 580.331> 776 127<879.669 1052.53> 1010 127<492.556 665.331>
LayerCount: 2
Fore
SplineSet
563 737 m 0,0,1
 672 737 672 737 747 610 c 0,2,3
 811 503 811 503 884 503 c 0,4,5
 999 503 999 503 1042 696 c 1,6,-1
 1135 737 l 1,7,-1
 1145 737 l 1,8,9
 1068 376 1068 376 812 376 c 0,10,11
 703 376 703 376 628 503 c 0,12,13
 564 610 564 610 491 610 c 0,14,15
 376 610 376 610 334 417 c 1,16,-1
 240 376 l 1,17,-1
 230 376 l 1,18,19
 307 737 307 737 563 737 c 0,0,1
648 1137 m 0,20,21
 757 1137 757 1137 832 1010 c 0,22,23
 896 903 896 903 969 903 c 0,24,25
 1084 903 1084 903 1127 1096 c 1,26,-1
 1220 1137 l 1,27,-1
 1230 1137 l 1,28,29
 1153 776 1153 776 897 776 c 0,30,31
 788 776 788 776 713 903 c 0,32,33
 649 1010 649 1010 576 1010 c 0,34,35
 461 1010 461 1010 419 817 c 1,36,-1
 325 776 l 1,37,-1
 315 776 l 1,38,39
 392 1137 392 1137 648 1137 c 0,20,21
EndSplineSet
Validated: 1
EndChar

StartChar: notequal
Encoding: 8800 8800 164
Width: 1200
GlyphClass: 2
Flags: W
HStem: 480 150<350 519 730 1086> 880 150<435 790 1002 1171>
DStem2: 308 170 415 166 0.561828 0.827254<56.8066 374.994 617.628 858.151 1101.35 1420.36>
LayerCount: 2
Fore
SplineSet
435 1030 m 1,0,-1
 892 1030 l 1,1,-1
 1106 1345 l 1,2,-1
 1205 1345 l 1,3,-1
 1213 1341 l 1,4,-1
 1002 1030 l 1,5,-1
 1269 1030 l 1,6,-1
 1267 1020 l 1,7,-1
 1171 880 l 1,8,-1
 900 880 l 1,9,-1
 730 630 l 1,10,-1
 1184 630 l 1,11,-1
 1182 620 l 1,12,-1
 1086 480 l 1,13,-1
 628 480 l 1,14,-1
 415 166 l 1,15,-1
 316 166 l 1,16,-1
 308 170 l 1,17,-1
 519 480 l 1,18,-1
 252 480 l 1,19,-1
 254 490 l 1,20,-1
 350 630 l 1,21,-1
 621 630 l 1,22,-1
 790 880 l 1,23,-1
 337 880 l 1,24,-1
 339 890 l 1,25,-1
 435 1030 l 1,0,-1
EndSplineSet
Validated: 1
EndChar

StartChar: lessequal
Encoding: 8804 8804 165
Width: 1315
GlyphClass: 2
Flags: W
HStem: 275 150<306 1107>
DStem2: 513 912 324 818 0.933865 -0.357626<0 749.109> 421 968 513 912 0.945706 0.325023<68.8037 977.047>
LayerCount: 2
Fore
SplineSet
421 968 m 1,0,-1
 1355 1289 l 1,1,-1
 1374 1217 l 1,2,-1
 1372 1207 l 1,3,-1
 513 912 l 1,4,-1
 1251 643 l 1,5,-1
 1249 633 l 1,6,-1
 1157 499 l 1,7,-1
 324 818 l 1,8,-1
 326 828 l 1,9,-1
 421 968 l 1,0,-1
306 425 m 1,10,-1
 1205 425 l 1,11,-1
 1203 415 l 1,12,-1
 1107 275 l 1,13,-1
 208 275 l 1,14,-1
 211 285 l 1,15,-1
 306 425 l 1,10,-1
EndSplineSet
Validated: 1
EndChar

StartChar: greaterequal
Encoding: 8805 8805 166
Width: 1315
GlyphClass: 2
Flags: W
HStem: 275 150<356 1157>
DStem2: 321 571 338 489 0.945706 0.325023<0 908.243> 536 1279 442 1135 0.933865 -0.357626<0 749.109>
LayerCount: 2
Fore
SplineSet
1272 810 m 1,0,-1
 338 489 l 1,1,-1
 319 561 l 1,2,-1
 321 571 l 1,3,-1
 1180 866 l 1,4,-1
 442 1135 l 1,5,-1
 444 1145 l 1,6,-1
 536 1279 l 1,7,-1
 1369 960 l 1,8,-1
 1367 950 l 1,9,-1
 1272 810 l 1,0,-1
356 425 m 1,10,-1
 1255 425 l 1,11,-1
 1253 415 l 1,12,-1
 1157 275 l 1,13,-1
 258 275 l 1,14,-1
 261 285 l 1,15,-1
 356 425 l 1,10,-1
EndSplineSet
Validated: 1
EndChar

StartChar: lozenge
Encoding: 9674 9674 167
Width: 1134
GlyphClass: 2
Flags: W
HStem: -20 21G<554.926 579.531> 1510 20G<875.965 899.605>
DStem2: 257 738 426 806 0.625536 0.780196<158.769 744.264> 426 806 257 738 0.374342 -0.927291<0 628.938> 657 221 563 -20 0.637091 0.770789<0 576.711> 892 1530 792 1263 0.355404 -0.934713<214.028 844.11>
LayerCount: 2
Fore
SplineSet
657 221 m 1,0,-1
 1019 670 l 1,1,-1
 792 1263 l 1,2,-1
 426 806 l 1,3,-1
 657 221 l 1,0,-1
563 -20 m 1,4,-1
 257 738 l 1,5,-1
 892 1530 l 1,6,-1
 1192 741 l 1,7,-1
 563 -20 l 1,4,-1
EndSplineSet
Validated: 1
EndChar

StartChar: Oslash
Encoding: 216 216 168
Width: 1330
Flags: W
HStem: -20 90<525.679 854.278> 1440 90<792.344 1126.36>
VStem: 249 179<258.136 529.188> 1223 179<980.812 1252.2>
DStem2: 151.746 -40 351.402 -40 0.207912 0.978148<420.835 1350.3> 233 -36 340 -40 0.562139 0.827043<56.8407 179.987 352.8 1621.72 1794.79 1917.11> 961.402 -40 1161.75 -40 0.207912 0.978148<316.685 1246.22>
LayerCount: 2
Fore
SplineSet
475 158 m 1,0,1
 554 70 554 70 680.5 70 c 128,-1,2
 807 70 807 70 913 150.5 c 128,-1,3
 1019 231 1019 231 1046 358 c 2,4,-1
 1215 1152 l 2,5,6
 1223 1187 1223 1187 1223 1219 c 0,7,8
 1223 1237 1223 1237 1220 1254 c 1,9,-1
 475 158 l 1,0,1
1176 1352 m 1,10,11
 1102 1440 1102 1440 971 1440 c 0,12,13
 844 1440 844 1440 738 1360 c 0,14,15
 632 1279 632 1279 605 1152 c 2,16,-1
 436 358 l 2,17,18
 428 323 428 323 428 292 c 0,19,20
 428 274 428 274 431 256 c 1,21,-1
 1176 1352 l 1,10,11
682 -20 m 0,22,23
 522 -20 522 -20 409 62 c 1,24,-1
 340 -40 l 1,25,-1
 241 -40 l 1,26,-1
 233 -36 l 1,27,-1
 342 124 l 1,28,29
 250 227 250 227 249 368 c 0,30,31
 249 418 249 418 261 474 c 2,32,-1
 380 1036 l 2,33,34
 428 1267 428 1267 582 1389 c 0,35,36
 760 1530 760 1530 970 1530 c 0,37,38
 1129 1530 1129 1530 1241 1449 c 1,39,-1
 1310 1550 l 1,40,-1
 1409 1550 l 1,41,-1
 1418 1546 l 1,42,-1
 1310 1387 l 1,43,44
 1402 1284 1402 1284 1402 1142 c 0,45,46
 1402 1091 1402 1091 1390 1036 c 2,47,-1
 1271 474 l 2,48,49
 1222 243 1222 243 1069 121 c 0,50,51
 892 -20 892 -20 682 -20 c 0,22,23
EndSplineSet
Validated: 1
EndChar

StartChar: oslash
Encoding: 248 248 169
Width: 1150
Flags: W
HStem: -20 80<460.539 731.428> 1040 80<652.072 922.662>
VStem: 232 163<198.587 468.25> 989 162<631.75 901.165>
DStem2: 151.026 -40 331.707 -40 0.207912 0.978148<352.556 997.786> 239 -36 346 -40 0.561501 0.827476<56.7707 146.939 282.908 1195.61 1331.36 1421.19> 801.477 -40 981.157 -40 0.207912 0.978148<246.141 891.163>
LayerCount: 2
Fore
SplineSet
588 60 m 0,0,1
 686 60 686 60 768 123.5 c 128,-1,2
 850 187 850 187 871 286 c 2,3,-1
 983 814 l 2,4,5
 989 842 989 842 989 868 c 0,6,7
 989 886 989 886 986 902 c 1,8,-1
 448 110 l 1,9,10
 501 60 501 60 588 60 c 0,0,1
398 198 m 1,11,-1
 935 990 l 1,12,13
 882 1040 882 1040 796 1040 c 0,14,15
 698 1040 698 1040 616 976.5 c 128,-1,16
 534 913 534 913 513 814 c 2,17,-1
 401 286 l 2,18,19
 395 258 395 258 395 232 c 0,20,21
 395 214 395 214 398 198 c 1,11,-1
591 -20 m 0,22,23
 478 -20 478 -20 394 30 c 1,24,-1
 346 -40 l 1,25,-1
 247 -40 l 1,26,-1
 239 -36 l 1,27,-1
 322 86 l 1,28,29
 232 183 232 183 232 302 c 0,30,31
 232 341 232 341 242 388 c 2,32,-1
 311 712 l 2,33,34
 352 905 352 905 474 1003 c 0,35,36
 620 1120 620 1120 792 1120 c 0,37,38
 905 1120 905 1120 990 1070 c 1,39,-1
 1037 1140 l 1,40,-1
 1136 1140 l 1,41,-1
 1144 1136 l 1,42,-1
 1061 1014 l 1,43,44
 1151 916 1151 916 1151 798 c 0,45,46
 1151 759 1151 759 1141 712 c 2,47,-1
 1072 388 l 2,48,49
 1031 195 1031 195 909 97 c 0,50,51
 763 -20 763 -20 591 -20 c 0,22,23
EndSplineSet
Validated: 1
EndChar

StartChar: multiply
Encoding: 215 215 170
Width: 1142
Flags: W
HStem: 430 650
DStem2: 304 490 444 430 0.771307 0.636463<69.7952 413.577 583.216 926.998> 583 1080 417 1020 0.61735 -0.786688<0 277.852 416.849 694.7>
LayerCount: 2
Fore
SplineSet
1019 1080 m 1,0,-1
 1153 1027 l 1,1,-1
 1159 1020 l 1,2,-1
 837 755 l 1,3,-1
 1046 490 l 1,4,-1
 1038 483 l 1,5,-1
 880 430 l 1,6,-1
 709 649 l 1,7,-1
 444 430 l 1,8,-1
 310 483 l 1,9,-1
 304 490 l 1,10,-1
 625 755 l 1,11,-1
 417 1020 l 1,12,-1
 425 1027 l 1,13,-1
 583 1080 l 1,14,-1
 754 861 l 1,15,-1
 1019 1080 l 1,0,-1
EndSplineSet
Validated: 1
EndChar

StartChar: divide
Encoding: 247 247 171
Width: 1200
Flags: W
HStem: 306 245<615.58 766.42> 680 150<392 1129> 959 245<754.58 905.42>
VStem: 568 246<353.592 502.764> 707 246<1006.59 1155.76>
CounterMasks: 1 e0
LayerCount: 2
Fore
SplineSet
856 1204 m 0,0,1
 905 1204 905 1204 933 1168 c 0,2,3
 953 1142 953 1142 953 1109 c 0,4,5
 953 1095 953 1095 950 1081 c 0,6,7
 939 1031 939 1031 896.5 995 c 128,-1,8
 854 959 854 959 804 959 c 0,9,10
 755 959 755 959 727 995 c 0,11,12
 707 1021 707 1021 707 1054 c 0,13,14
 707 1067 707 1067 710 1081 c 0,15,16
 721 1131 721 1131 763.5 1167.5 c 128,-1,17
 806 1204 806 1204 856 1204 c 0,0,1
392 830 m 1,18,-1
 1226 830 l 1,19,-1
 1224 820 l 1,20,-1
 1129 680 l 1,21,-1
 295 680 l 1,22,-1
 297 690 l 1,23,-1
 392 830 l 1,18,-1
665 306 m 0,24,25
 616 306 616 306 588 342 c 0,26,27
 568 368 568 368 568 401 c 0,28,29
 568 414 568 414 571 428 c 0,30,31
 582 478 582 478 624.5 514.5 c 128,-1,32
 667 551 667 551 717 551 c 0,33,34
 766 551 766 551 794 515 c 0,35,36
 814 489 814 489 814 456 c 0,37,38
 814 442 814 442 811 428 c 0,39,40
 800 378 800 378 757.5 342 c 128,-1,41
 715 306 715 306 665 306 c 0,24,25
EndSplineSet
Validated: 1
EndChar

StartChar: uni1E02
Encoding: 7682 7682 172
Width: 1250
Flags: W
HStem: 0 90<419 847.943> 791 90<587 983.139> 1420 90<702 1088.19> 1630 245<903.027 1054.61>
VStem: 856 245<1676.4 1827.97> 1059 218<336.355 715.554> 1128 199<1047.65 1350.7>
DStem2: 200 0 399.87 0 0.207912 0.978148<133.566 850.226 942.21 1472.15>
LayerCount: 2
Fore
SplineSet
587 881 m 1,0,-1
 842 881 l 2,1,2
 934 881 934 881 1003 932 c 0,3,4
 1080 989 1080 989 1115 1154 c 0,5,6
 1128 1216 1128 1216 1128 1262 c 0,7,8
 1128 1334 1128 1334 1096 1369 c 0,9,10
 1049 1420 1049 1420 957 1420 c 2,11,-1
 702 1420 l 1,12,-1
 587 881 l 1,0,-1
419 90 m 1,13,-1
 663 90 l 2,14,15
 818 90 818 90 923 185 c 0,16,17
 1004 258 1004 258 1042 438 c 0,18,19
 1059 519 1059 519 1059 578 c 0,20,21
 1059 653 1059 653 1032 696 c 0,22,23
 971 791 971 791 812 791 c 2,24,-1
 568 791 l 1,25,-1
 419 90 l 1,13,-1
200 0 m 1,26,-1
 506 1440 l 1,27,-1
 669 1510 l 1,28,-1
 966 1510 l 2,29,30
 1130 1510 1130 1510 1227 1418 c 0,31,32
 1327 1324 1327 1324 1327 1197 c 0,33,34
 1327 1170 1327 1170 1322 1141 c 0,35,36
 1288 938 1288 938 1103 838 c 1,37,38
 1156 814 1156 814 1189 777 c 0,39,40
 1277 679 1277 679 1277 543 c 0,41,42
 1277 490 1277 490 1264 430 c 0,43,44
 1222 244 1222 244 1091 137 c 0,45,46
 925 0 925 0 685 0 c 2,47,-1
 200 0 l 1,26,-1
1004 1875 m 0,48,49
 1053 1875 1053 1875 1081 1839 c 0,50,51
 1101 1813 1101 1813 1101 1779 c 0,52,53
 1101 1763 1101 1763 1099 1752 c 0,54,55
 1089 1702 1089 1702 1045.5 1666 c 128,-1,56
 1002 1630 1002 1630 952 1630 c 128,-1,57
 902 1630 902 1630 875 1666 c 0,58,59
 856 1692 856 1692 856 1725 c 0,60,61
 856 1739 856 1739 859 1752 c 0,62,63
 869 1802 869 1802 911.5 1838.5 c 128,-1,64
 954 1875 954 1875 1004 1875 c 0,48,49
EndSplineSet
Validated: 1
EndChar

StartChar: uni1E03
Encoding: 7683 7683 173
Width: 1170
Flags: W
HStem: -20 80<477.221 742.358> 1040 80<668.238 934.594> 1220 245<806.027 957.615> 1510 20G<628.827 685>
VStem: 252 163<142.731 460.906> 759 245<1266.4 1417.97> 994 175<631.75 948.807>
DStem2: 175.277 -20 355.958 -20 0.207912 0.978148<332.17 1042.29 1111.97 1501.92> 810.728 -20 1005.41 -20 0.207912 0.978148<228.749 861.775>
LayerCount: 2
Fore
SplineSet
603 60 m 0,0,1
 701 60 701 60 778 123.5 c 128,-1,2
 855 187 855 187 876 286 c 2,3,-1
 988 814 l 2,4,5
 994 843 994 843 994 869 c 0,6,7
 994 930 994 930 959 976 c 0,8,9
 909 1040 909 1040 811 1040 c 128,-1,10
 713 1040 713 1040 633.5 976.5 c 128,-1,11
 554 913 554 913 533 814 c 2,12,-1
 421 286 l 2,13,14
 415 258 415 258 415 232 c 0,15,16
 415 169 415 169 452 124 c 0,17,18
 504 60 504 60 603 60 c 0,0,1
611 -20 m 128,-1,20
 439 -20 439 -20 332 97 c 0,21,22
 252 184 252 184 252 302 c 0,23,24
 252 343 252 343 262 388 c 2,25,-1
 488 1449 l 1,26,-1
 675 1530 l 1,27,-1
 685 1530 l 1,28,-1
 579 1031 l 1,29,30
 682 1120 682 1120 813 1120 c 0,31,32
 990 1120 990 1120 1086 1003 c 0,33,34
 1169 903 1169 903 1169 786 c 0,35,36
 1169 750 1169 750 1161 712 c 2,37,-1
 1092 388 l 2,38,39
 1051 195 1051 195 929 97 c 0,40,19
 783 -20 783 -20 611 -20 c 128,-1,20
907 1465 m 0,41,42
 956 1465 956 1465 984 1429 c 0,43,44
 1004 1403 1004 1403 1004 1369 c 0,45,46
 1004 1353 1004 1353 1002 1342 c 0,47,48
 992 1292 992 1292 948.5 1256 c 128,-1,49
 905 1220 905 1220 855 1220 c 128,-1,50
 805 1220 805 1220 778 1256 c 0,51,52
 759 1282 759 1282 759 1315 c 0,53,54
 759 1329 759 1329 762 1342 c 0,55,56
 772 1392 772 1392 814.5 1428.5 c 128,-1,57
 857 1465 857 1465 907 1465 c 0,41,42
EndSplineSet
Validated: 1
EndChar

StartChar: uni1E0A
Encoding: 7690 7690 174
Width: 1350
Flags: W
HStem: 0 90<419 870.661> 1420 90<702 1136.5> 1630 245<933.027 1084.61>
VStem: 886 245<1676.4 1827.97> 1228 188<957.094 1283.52>
DStem2: 200 0 399.87 0 0.207912 0.978148<133.566 1472.15> 979.654 0 1190 0 0.207912 0.978148<300.091 1170.23>
LayerCount: 2
Fore
SplineSet
419 90 m 1,0,-1
 694 90 l 2,1,2
 819 90 819 90 926 170 c 128,-1,3
 1033 250 1033 250 1060 378 c 18,4,-1
 1221 1132 l 2,5,6
 1228 1166 1228 1166 1228 1198 c 0,7,8
 1228 1282 1228 1282 1176 1340 c 0,9,10
 1104 1420 1104 1420 977 1420 c 2,11,-1
 702 1420 l 1,12,-1
 419 90 l 1,0,-1
200 0 m 1,13,-1
 506 1440 l 1,14,-1
 669 1510 l 1,15,-1
 986 1510 l 2,16,17
 1197 1510 1197 1510 1314 1369 c 0,18,19
 1416 1247 1416 1247 1416 1105 c 0,20,21
 1416 1061 1416 1061 1406 1016 c 2,22,-1
 1295 494 l 2,23,24
 1246 265 1246 265 1092 141 c 0,25,26
 916 0 916 0 705 0 c 2,27,-1
 200 0 l 1,13,-1
1034 1875 m 0,28,29
 1083 1875 1083 1875 1111 1839 c 0,30,31
 1131 1813 1131 1813 1131 1779 c 0,32,33
 1131 1763 1131 1763 1129 1752 c 0,34,35
 1119 1702 1119 1702 1075.5 1666 c 128,-1,36
 1032 1630 1032 1630 982 1630 c 128,-1,37
 932 1630 932 1630 905 1666 c 0,38,39
 886 1692 886 1692 886 1725 c 0,40,41
 886 1739 886 1739 889 1752 c 0,42,43
 899 1802 899 1802 941.5 1838.5 c 128,-1,44
 984 1875 984 1875 1034 1875 c 0,28,29
EndSplineSet
Validated: 1
EndChar

StartChar: uni1E0B
Encoding: 7691 7691 175
Width: 1170
Flags: W
HStem: -20 80<470.156 735.678> 1040 80<661.34 927.512> 1220 245<784.027 935.615> 1510 20G<1258.83 1315>
VStem: 232 178<142.872 468.25> 737 245<1266.4 1417.97>
DStem2: 155.277 -20 350.958 -20 0.207912 0.978148<332.17 977.403> 805.728 -20 985.277 -20 0.207912 0.978148<223.659 905.904 1074.45 1501.82>
LayerCount: 2
Fore
SplineSet
593 60 m 128,-1,1
 691 60 691 60 770.5 123.5 c 128,-1,2
 850 187 850 187 871 286 c 2,3,-1
 983 814 l 2,4,5
 989 842 989 842 989 868 c 0,6,7
 989 931 989 931 952 976 c 0,8,9
 900 1040 900 1040 801.5 1040 c 128,-1,10
 703 1040 703 1040 626 976.5 c 128,-1,11
 549 913 549 913 528 814 c 2,12,-1
 416 286 l 2,13,14
 410 257 410 257 410 231 c 0,15,16
 410 170 410 170 445 124 c 0,17,0
 495 60 495 60 593 60 c 128,-1,1
591 -20 m 128,-1,19
 419 -20 419 -20 312 97 c 0,20,21
 232 184 232 184 232 302 c 0,22,23
 232 343 232 343 242 388 c 2,24,-1
 311 712 l 2,25,26
 352 905 352 905 474 1003 c 0,27,28
 620 1120 620 1120 793 1120 c 0,29,30
 945 1120 945 1120 1029 1031 c 1,31,-1
 1118 1449 l 1,32,-1
 1305 1530 l 1,33,-1
 1315 1530 l 1,34,-1
 1072 388 l 2,35,36
 1031 195 1031 195 909 97 c 0,37,18
 763 -20 763 -20 591 -20 c 128,-1,19
885 1465 m 0,38,39
 934 1465 934 1465 962 1429 c 0,40,41
 982 1403 982 1403 982 1369 c 0,42,43
 982 1353 982 1353 980 1342 c 0,44,45
 970 1292 970 1292 926.5 1256 c 128,-1,46
 883 1220 883 1220 833 1220 c 128,-1,47
 783 1220 783 1220 756 1256 c 0,48,49
 737 1282 737 1282 737 1315 c 0,50,51
 737 1329 737 1329 740 1342 c 0,52,53
 750 1392 750 1392 792.5 1428.5 c 128,-1,54
 835 1465 835 1465 885 1465 c 0,38,39
EndSplineSet
Validated: 1
EndChar

StartChar: uni1E1E
Encoding: 7710 7710 176
Width: 1010
Flags: W
HStem: -20 21G<196 252.444> 710 90<570 1073> 1420 90<702 1224> 1630 245<892.027 1043.61>
VStem: 845 245<1676.4 1827.97>
DStem2: 196 -20 395.87 -20 0.207912 0.978148<133.566 787.856 879.84 1492.55>
LayerCount: 2
Fore
SplineSet
196 -20 m 1,0,-1
 506 1440 l 1,1,-1
 669 1510 l 1,2,-1
 1281 1510 l 1,3,-1
 1279 1500 l 1,4,-1
 1224 1420 l 1,5,-1
 702 1420 l 1,6,-1
 570 800 l 1,7,-1
 1130 800 l 1,8,-1
 1128 790 l 1,9,-1
 1073 710 l 1,10,-1
 551 710 l 1,11,-1
 415 70 l 1,12,-1
 206 -20 l 1,13,-1
 196 -20 l 1,0,-1
993 1875 m 0,14,15
 1042 1875 1042 1875 1070 1839 c 0,16,17
 1090 1813 1090 1813 1090 1779 c 0,18,19
 1090 1763 1090 1763 1088 1752 c 0,20,21
 1078 1702 1078 1702 1034.5 1666 c 128,-1,22
 991 1630 991 1630 941 1630 c 128,-1,23
 891 1630 891 1630 864 1666 c 0,24,25
 845 1692 845 1692 845 1725 c 0,26,27
 845 1739 845 1739 848 1752 c 0,28,29
 858 1802 858 1802 900.5 1838.5 c 128,-1,30
 943 1875 943 1875 993 1875 c 0,14,15
EndSplineSet
Validated: 1
EndChar

StartChar: uni1E1F
Encoding: 7711 7711 177
Width: 780
Flags: W
HStem: -20 21G<176 232.173> 820 80<551 872> 1430 80<755.641 1041> 1630 245<738.027 889.615>
VStem: 691 245<1676.4 1827.97>
DStem2: 176 -20 355.783 -20 0.207912 0.978148<120.189 896.076 977.863 1377.84>
LayerCount: 2
Fore
SplineSet
176 -20 m 1,0,-1
 414 1102 l 2,1,2
 455 1295 455 1295 578 1393 c 0,3,4
 724 1510 724 1510 896 1510 c 2,5,-1
 1091 1510 l 1,6,-1
 1089 1500 l 1,7,-1
 1041 1430 l 1,8,-1
 899 1430 l 2,9,10
 801 1430 801 1430 719 1366 c 0,11,12
 637 1303 637 1303 616 1204 c 2,13,-1
 551 900 l 1,14,-1
 922 900 l 1,15,-1
 920 890 l 1,16,-1
 872 820 l 1,17,-1
 534 820 l 1,18,-1
 373 61 l 1,19,-1
 186 -20 l 1,20,-1
 176 -20 l 1,0,-1
839 1875 m 0,21,22
 888 1875 888 1875 916 1839 c 0,23,24
 936 1813 936 1813 936 1779 c 0,25,26
 936 1763 936 1763 934 1752 c 0,27,28
 924 1702 924 1702 880.5 1666 c 128,-1,29
 837 1630 837 1630 787 1630 c 128,-1,30
 737 1630 737 1630 710 1666 c 0,31,32
 691 1692 691 1692 691 1725 c 0,33,34
 691 1739 691 1739 694 1752 c 0,35,36
 704 1802 704 1802 746.5 1838.5 c 128,-1,37
 789 1875 789 1875 839 1875 c 0,21,22
EndSplineSet
Validated: 1
EndChar

StartChar: uni1E40
Encoding: 7744 7744 178
Width: 2180
Flags: W
HStem: -20 21G<176 232.444 986 1042.44 1796 1852.44> 1440 90<817.582 1148.35 1626.78 1959.26> 1630 245<1385.03 1536.61>
VStem: 1338 245<1676.4 1827.97> 2052 180<1086.37 1320.19>
DStem2: 176 -20 375.87 -20 0.207912 0.978148<133.566 1329.85> 986 -20 1185.87 -20 0.207912 0.978148<133.566 1263.22> 1796 -20 1995.87 -20 0.207912 0.978148<133.566 1225.7>
LayerCount: 2
Fore
SplineSet
176 -20 m 1,0,-1
 400 1036 l 2,1,2
 448 1267 448 1267 602 1389 c 0,3,4
 780 1530 780 1530 990.5 1530 c 128,-1,5
 1201 1530 1201 1530 1318 1389 c 0,6,7
 1339 1364 1339 1364 1354 1337 c 1,8,9
 1378 1361 1378 1361 1413 1389 c 0,10,11
 1586 1530 1586 1530 1801 1530 c 0,12,13
 2011 1530 2011 1530 2138 1389 c 0,14,15
 2232 1285 2232 1285 2232 1142 c 0,16,17
 2232 1091 2232 1091 2220 1036 c 2,18,-1
 2015 70 l 1,19,-1
 1806 -20 l 1,20,-1
 1796 -20 l 1,21,-1
 2045 1152 l 2,22,23
 2052 1187 2052 1187 2052 1218 c 0,24,25
 2052 1302 2052 1302 2000 1360 c 0,26,27
 1928 1440 1928 1440 1801.5 1440 c 128,-1,28
 1675 1440 1675 1440 1568.5 1359.5 c 128,-1,29
 1462 1279 1462 1279 1435 1152 c 2,30,-1
 1205 70 l 1,31,-1
 996 -20 l 1,32,-1
 986 -20 l 1,33,-1
 1235 1152 l 2,34,35
 1242 1187 1242 1187 1242 1218 c 0,36,37
 1242 1302 1242 1302 1190 1360 c 0,38,39
 1118 1440 1118 1440 991.5 1440 c 128,-1,40
 865 1440 865 1440 758.5 1359.5 c 128,-1,41
 652 1279 652 1279 625 1152 c 2,42,-1
 395 70 l 1,43,-1
 186 -20 l 1,44,-1
 176 -20 l 1,0,-1
1486 1875 m 0,45,46
 1535 1875 1535 1875 1563 1839 c 0,47,48
 1583 1813 1583 1813 1583 1779 c 0,49,50
 1583 1763 1583 1763 1581 1752 c 0,51,52
 1571 1702 1571 1702 1527.5 1666 c 128,-1,53
 1484 1630 1484 1630 1434 1630 c 128,-1,54
 1384 1630 1384 1630 1357 1666 c 0,55,56
 1338 1692 1338 1692 1338 1725 c 0,57,58
 1338 1739 1338 1739 1341 1752 c 0,59,60
 1351 1802 1351 1802 1393.5 1838.5 c 128,-1,61
 1436 1875 1436 1875 1486 1875 c 0,45,46
EndSplineSet
Validated: 1
EndChar

StartChar: uni1E41
Encoding: 7745 7745 179
Width: 1840
Flags: W
HStem: -20 21G<176 232.173 826 882.173 1476 1532.17> 1040 80<672.239 942.276 1322.49 1592.87> 1220 245<1126.03 1277.61>
VStem: 1079 245<1266.4 1417.97> 1659 162<748.665 957.562>
DStem2: 176 -20 355.783 -20 0.207912 0.978148<120.189 979.016> 826 -20 1005.78 -20 0.207912 0.978148<120.189 903.922> 1476 -20 1655.78 -20 0.207912 0.978148<120.189 870.6>
LayerCount: 2
Fore
SplineSet
176 -20 m 1,0,-1
 331 712 l 2,1,2
 372 905 372 905 494 1003 c 0,3,4
 640 1120 640 1120 813 1120 c 0,5,6
 979 1120 979 1120 1081 1003 c 0,7,8
 1095 987 1095 987 1106 969 c 1,9,10
 1126 986 1126 986 1145 1003 c 0,11,12
 1290 1120 1290 1120 1464 1120 c 0,13,14
 1636 1120 1636 1120 1742 1003 c 0,15,16
 1821 916 1821 916 1821 798 c 0,17,18
 1821 757 1821 757 1811 712 c 2,19,-1
 1673 61 l 1,20,-1
 1486 -20 l 1,21,-1
 1476 -20 l 1,22,-1
 1653 814 l 2,23,24
 1659 841 1659 841 1659 866 c 0,25,26
 1659 930 1659 930 1619 976 c 0,27,28
 1564 1040 1564 1040 1466 1040 c 128,-1,29
 1368 1040 1368 1040 1286 976.5 c 128,-1,30
 1204 913 1204 913 1183 814 c 2,31,-1
 1023 61 l 1,32,-1
 836 -20 l 1,33,-1
 826 -20 l 1,34,-1
 1003 814 l 2,35,36
 1009 841 1009 841 1009 866 c 0,37,38
 1009 930 1009 930 969 976 c 0,39,40
 914 1040 914 1040 816 1040 c 128,-1,41
 718 1040 718 1040 636 976.5 c 128,-1,42
 554 913 554 913 533 814 c 2,43,-1
 373 61 l 1,44,-1
 186 -20 l 1,45,-1
 176 -20 l 1,0,-1
1227 1465 m 0,46,47
 1276 1465 1276 1465 1304 1429 c 0,48,49
 1324 1403 1324 1403 1324 1369 c 0,50,51
 1324 1353 1324 1353 1322 1342 c 0,52,53
 1312 1292 1312 1292 1268.5 1256 c 128,-1,54
 1225 1220 1225 1220 1175 1220 c 128,-1,55
 1125 1220 1125 1220 1098 1256 c 0,56,57
 1079 1282 1079 1282 1079 1315 c 0,58,59
 1079 1329 1079 1329 1082 1342 c 0,60,61
 1092 1392 1092 1392 1134.5 1428.5 c 128,-1,62
 1177 1465 1177 1465 1227 1465 c 0,46,47
EndSplineSet
Validated: 1
EndChar

StartChar: uni1E56
Encoding: 7766 7766 180
Width: 1210
Flags: W
HStem: -20 21G<196 252.444> 500 90<525 940.188> 1420 90<702 1093.89> 1630 245<886.027 1037.61>
VStem: 839 245<1676.4 1827.97> 1178 200<909.865 1296.55>
DStem2: 196 -20 395.87 -20 0.207912 0.978148<133.566 573.089 665.073 1492.55>
LayerCount: 2
Fore
SplineSet
525 590 m 1,0,-1
 781 590 l 10,1,2
 908 590 908 590 1010 689 c 128,-1,3
 1112 788 1112 788 1158 1004 c 0,4,5
 1178 1098 1178 1098 1178 1172 c 0,6,7
 1178 1264 1178 1264 1144 1320 c 0,8,9
 1084 1420 1084 1420 958 1420 c 18,10,-1
 702 1420 l 1,11,-1
 525 590 l 1,0,-1
196 -20 m 1,12,-1
 506 1440 l 1,13,-1
 669 1510 l 1,14,-1
 967 1510 l 2,15,16
 1188 1510 1188 1510 1294 1364 c 0,17,18
 1377 1250 1377 1250 1378 1079 c 0,19,20
 1378 1042 1378 1042 1374 1004 c 0,21,22
 1350 781 1350 781 1187 644 c 0,23,24
 1017 500 1017 500 792 500 c 2,25,-1
 506 500 l 1,26,-1
 415 70 l 1,27,-1
 206 -20 l 1,28,-1
 196 -20 l 1,12,-1
987 1875 m 0,29,30
 1036 1875 1036 1875 1064 1839 c 0,31,32
 1084 1813 1084 1813 1084 1779 c 0,33,34
 1084 1763 1084 1763 1082 1752 c 0,35,36
 1072 1702 1072 1702 1028.5 1666 c 128,-1,37
 985 1630 985 1630 935 1630 c 128,-1,38
 885 1630 885 1630 858 1666 c 0,39,40
 839 1692 839 1692 839 1725 c 0,41,42
 839 1739 839 1739 842 1752 c 0,43,44
 852 1802 852 1802 894.5 1838.5 c 128,-1,45
 937 1875 937 1875 987 1875 c 0,29,30
EndSplineSet
Validated: 1
EndChar

StartChar: uni1E57
Encoding: 7767 7767 181
Width: 1170
Flags: W
HStem: -430 21G<89 145.173> -20 80<476.5 742.358> 1040 80<670.418 933.746> 1220 245<808.027 959.615>
VStem: 761 245<1266.4 1417.97> 994 177<631.75 957.893>
DStem2: 89 -430 268.783 -430 0.207912 0.978148<120.189 547.558 716.108 1398.15> 723.58 -430 918.26 -430 0.207912 0.978148<647.909 1292.93>
LayerCount: 2
Fore
SplineSet
603 60 m 0,0,1
 701 60 701 60 778 123.5 c 128,-1,2
 855 187 855 187 876 286 c 2,3,-1
 988 814 l 2,4,5
 994 843 994 843 994 869 c 0,6,7
 994 930 994 930 959 976 c 0,8,9
 909 1040 909 1040 811 1040 c 128,-1,10
 713 1040 713 1040 633.5 976.5 c 128,-1,11
 554 913 554 913 533 814 c 2,12,-1
 421 286 l 2,13,14
 415 258 415 258 415 232 c 0,15,16
 415 169 415 169 452 124 c 0,17,18
 504 60 504 60 603 60 c 0,0,1
89 -430 m 1,19,-1
 331 712 l 2,20,21
 372 905 372 905 494 1003 c 0,22,23
 640 1120 640 1120 812.5 1120 c 128,-1,24
 985 1120 985 1120 1092 1003 c 0,25,26
 1171 916 1171 916 1171 798 c 0,27,28
 1171 757 1171 757 1161 712 c 2,29,-1
 1092 388 l 2,30,31
 1051 195 1051 195 929 97 c 0,32,33
 783 -20 783 -20 611 -20 c 0,34,35
 459 -20 459 -20 375 69 c 1,36,-1
 286 -349 l 1,37,-1
 99 -430 l 1,38,-1
 89 -430 l 1,19,-1
909 1465 m 0,39,40
 958 1465 958 1465 986 1429 c 0,41,42
 1006 1403 1006 1403 1006 1369 c 0,43,44
 1006 1353 1006 1353 1004 1342 c 0,45,46
 994 1292 994 1292 950.5 1256 c 128,-1,47
 907 1220 907 1220 857 1220 c 128,-1,48
 807 1220 807 1220 780 1256 c 0,49,50
 761 1282 761 1282 761 1315 c 0,51,52
 761 1329 761 1329 764 1342 c 0,53,54
 774 1392 774 1392 816.5 1428.5 c 128,-1,55
 859 1465 859 1465 909 1465 c 0,39,40
EndSplineSet
Validated: 1
EndChar

StartChar: uni1E6A
Encoding: 7786 7786 182
Width: 1070
Flags: W
HStem: -20 21G<431 487.444> 1420 90<369 737 937 1324> 1630 245<827.027 978.615>
VStem: 780 245<1676.4 1827.97>
DStem2: 431 -20 630.87 -20 0.207912 0.978148<133.566 1472.15>
LayerCount: 2
Fore
SplineSet
431 -20 m 1,0,-1
 737 1420 l 1,1,-1
 312 1420 l 1,2,-1
 314 1430 l 1,3,-1
 369 1510 l 1,4,-1
 1381 1510 l 1,5,-1
 1379 1500 l 1,6,-1
 1324 1420 l 1,7,-1
 937 1420 l 1,8,-1
 650 70 l 1,9,-1
 441 -20 l 1,10,-1
 431 -20 l 1,0,-1
928 1875 m 0,11,12
 977 1875 977 1875 1005 1839 c 0,13,14
 1025 1813 1025 1813 1025 1779 c 0,15,16
 1025 1763 1025 1763 1023 1752 c 0,17,18
 1013 1702 1013 1702 969.5 1666 c 128,-1,19
 926 1630 926 1630 876 1630 c 128,-1,20
 826 1630 826 1630 799 1666 c 0,21,22
 780 1692 780 1692 780 1725 c 0,23,24
 780 1739 780 1739 783 1752 c 0,25,26
 793 1802 793 1802 835.5 1838.5 c 128,-1,27
 878 1875 878 1875 928 1875 c 0,11,12
EndSplineSet
Validated: 1
EndChar

StartChar: uni1E6B
Encoding: 7787 7787 183
Width: 780
Flags: W
HStem: -20 21G<296 352.076> 1020 80<277 517 709 954> 1510 20G<743.924 800> 1630 245<688.027 839.615>
VStem: 641 245<1676.4 1827.97>
DStem2: 296 -20 471.208 -20 0.207912 0.978148<117.193 1063.22 1181.39 1503.72>
LayerCount: 2
Fore
SplineSet
296 -20 m 1,0,-1
 517 1020 l 1,1,-1
 227 1020 l 1,2,-1
 229 1030 l 1,3,-1
 277 1100 l 1,4,-1
 534 1100 l 1,5,-1
 608 1451 l 1,6,-1
 790 1530 l 1,7,-1
 800 1530 l 1,8,-1
 709 1100 l 1,9,-1
 1004 1100 l 1,10,-1
 1002 1090 l 1,11,-1
 954 1020 l 1,12,-1
 692 1020 l 1,13,-1
 488 59 l 1,14,-1
 306 -20 l 1,15,-1
 296 -20 l 1,0,-1
789 1875 m 0,16,17
 838 1875 838 1875 866 1839 c 0,18,19
 886 1813 886 1813 886 1779 c 0,20,21
 886 1763 886 1763 884 1752 c 0,22,23
 874 1702 874 1702 830.5 1666 c 128,-1,24
 787 1630 787 1630 737 1630 c 128,-1,25
 687 1630 687 1630 660 1666 c 0,26,27
 641 1692 641 1692 641 1725 c 0,28,29
 641 1739 641 1739 644 1752 c 0,30,31
 654 1802 654 1802 696.5 1838.5 c 128,-1,32
 739 1875 739 1875 789 1875 c 0,16,17
EndSplineSet
Validated: 1
EndChar

StartChar: uni1E60
Encoding: 7776 7776 184
Width: 1140
Flags: W
HStem: -20 90<416.594 727.73> 1440 90<730.317 983.504> 1630 245<865.027 1016.61>
VStem: 147 192<180.977 363> 391 210<969.279 1278.02> 818 245<1676.4 1827.97> 950 215<328.423 697.784> 1020 190<1233 1368.12>
LayerCount: 2
Fore
SplineSet
564 -20 m 0,0,1
 350 -20 350 -20 232 121 c 0,2,3
 147 222 147 222 147 363 c 1,4,-1
 360 459 l 1,5,-1
 370 459 l 1,6,-1
 348 358 l 2,7,8
 339 317 339 317 339 283 c 0,9,10
 339 205 339 205 382 150 c 0,11,12
 443 70 443 70 563 70 c 0,13,14
 690 70 690 70 795 161 c 0,15,16
 898 250 898 250 935 425 c 0,17,18
 950 494 950 494 950 549 c 0,19,20
 950 624 950 624 922 674 c 0,21,22
 866 774 866 774 735 792 c 0,23,24
 609 809 609 809 521 858 c 0,25,26
 391 930 391 930 391 1090 c 0,27,28
 391 1109 391 1109 393 1129 c 0,29,30
 410 1309 410 1309 561 1424 c 0,31,32
 700 1530 700 1530 868 1530 c 0,33,34
 1034 1530 1034 1530 1130 1417 c 0,35,36
 1208 1325 1208 1325 1210 1233 c 1,37,-1
 1010 1146 l 1,38,-1
 1002 1146 l 1,39,40
 1020 1230 1020 1230 1020 1287 c 128,-1,41
 1020 1344 1020 1344 1002 1373 c 0,42,43
 960 1440 960 1440 864 1440 c 0,44,45
 776 1440 776 1440 704 1375 c 0,46,47
 637 1314 637 1314 611 1190 c 0,48,49
 601 1141 601 1141 601 1101 c 0,50,51
 601 928 601 928 790 902 c 0,52,53
 983 875 983 875 1086 763 c 0,54,55
 1165 677 1165 677 1165 540 c 0,56,57
 1165 510 1165 510 1161 477 c 0,58,59
 1138 266 1138 266 956 122 c 0,60,61
 776 -20 776 -20 564 -20 c 0,0,1
966 1875 m 0,62,63
 1015 1875 1015 1875 1043 1839 c 0,64,65
 1063 1813 1063 1813 1063 1779 c 0,66,67
 1063 1763 1063 1763 1061 1752 c 0,68,69
 1051 1702 1051 1702 1007.5 1666 c 128,-1,70
 964 1630 964 1630 914 1630 c 128,-1,71
 864 1630 864 1630 837 1666 c 0,72,73
 818 1692 818 1692 818 1725 c 0,74,75
 818 1739 818 1739 821 1752 c 0,76,77
 831 1802 831 1802 873.5 1838.5 c 128,-1,78
 916 1875 916 1875 966 1875 c 0,62,63
EndSplineSet
Validated: 1
EndChar

StartChar: uni1E61
Encoding: 7777 7777 185
Width: 930
Flags: W
HStem: -20 80<346.619 596.635> 1040 80<574.258 760.8> 1220 245<663.027 814.615>
VStem: 128 179<124.203 276> 303 178<682.144 938.621> 616 245<1266.4 1417.97> 740 185<217.125 516.674> 779 176<887 993.308>
LayerCount: 2
Fore
SplineSet
465 -20 m 0,0,1
 292 -20 292 -20 201 85 c 0,2,3
 132 165 132 165 128 276 c 1,4,-1
 314 356 l 1,5,-1
 324 356 l 1,6,7
 307 275 307 275 307 218 c 0,8,9
 307 140 307 140 339 107 c 0,10,11
 385 60 385 60 475 60 c 0,12,13
 554 60 554 60 625 119 c 0,14,15
 701 181 701 181 733 342 c 0,16,17
 740 377 740 377 740 406 c 0,18,19
 740 544 740 544 576 563 c 0,20,21
 431 580 431 580 367 644 c 0,22,23
 303 709 303 709 303 798 c 0,24,25
 303 815 303 815 305 832 c 0,26,27
 321 960 321 960 429 1038 c 0,28,29
 542 1120 542 1120 678 1120 c 0,30,31
 820 1120 820 1120 893 1036 c 0,32,33
 952 968 952 968 955 887 c 1,34,-1
 773 808 l 1,35,-1
 763 808 l 1,36,37
 779 882 779 882 779 930 c 0,38,39
 779 972 779 972 766 994 c 0,40,41
 739 1040 739 1040 680.5 1040 c 128,-1,42
 622 1040 622 1040 570 998 c 0,43,44
 517 956 517 956 487 827 c 0,45,46
 481 801 481 801 481 778 c 0,47,48
 481 663 481 663 627 647 c 0,49,50
 797 628 797 628 865 553 c 0,51,52
 925 487 925 487 925 387 c 0,53,54
 925 364 925 364 922 339 c 0,55,56
 901 176 901 176 769 77 c 0,57,58
 641 -20 641 -20 465 -20 c 0,0,1
764 1465 m 0,59,60
 813 1465 813 1465 841 1429 c 0,61,62
 861 1403 861 1403 861 1369 c 0,63,64
 861 1353 861 1353 859 1342 c 0,65,66
 849 1292 849 1292 805.5 1256 c 128,-1,67
 762 1220 762 1220 712 1220 c 128,-1,68
 662 1220 662 1220 635 1256 c 0,69,70
 616 1282 616 1282 616 1315 c 0,71,72
 616 1329 616 1329 619 1342 c 0,73,74
 629 1392 629 1392 671.5 1428.5 c 128,-1,75
 714 1465 714 1465 764 1465 c 0,59,60
EndSplineSet
Validated: 1
EndChar

StartChar: Wgrave
Encoding: 7808 7808 186
Width: 2180
Flags: W
HStem: -20 90<541.74 874.221 1352.56 1683> 1510 20G<648.556 705 1458.56 1515 2268.56 2325>
VStem: 269 180<189.809 423.632>
DStem2: 175.997 -20 375.654 -20 0.207912 0.978148<400.418 1492.55> 985.654 -20 1185.65 -20 0.207912 0.978148<362.963 1492.62> 1442 1937 1300 1880 0.252042 -0.967716<19.3699 321.375> 1795.65 -20 1996 -20 0.207912 0.978148<296.863 1492.62>
LayerCount: 2
Fore
SplineSet
700 -20 m 0,0,1
 490 -20 490 -20 363 121 c 0,2,3
 269 225 269 225 269 368 c 0,4,5
 269 419 269 419 281 474 c 2,6,-1
 486 1440 l 1,7,-1
 695 1530 l 1,8,-1
 705 1530 l 1,9,-1
 456 358 l 2,10,11
 449 323 449 323 449 292 c 0,12,13
 449 208 449 208 501 150 c 0,14,15
 573 70 573 70 699.5 70 c 128,-1,16
 826 70 826 70 932.5 150.5 c 128,-1,17
 1039 231 1039 231 1066 358 c 2,18,-1
 1296 1440 l 1,19,-1
 1505 1530 l 1,20,-1
 1515 1530 l 1,21,-1
 1266 358 l 2,22,23
 1259 323 1259 323 1259 292 c 0,24,25
 1259 208 1259 208 1311 150 c 0,26,27
 1383 70 1383 70 1509.5 70 c 128,-1,28
 1636 70 1636 70 1742.5 150.5 c 128,-1,29
 1849 231 1849 231 1876 358 c 2,30,-1
 2106 1440 l 1,31,-1
 2315 1530 l 1,32,-1
 2325 1530 l 1,33,-1
 2101 474 l 2,34,35
 2052 243 2052 243 1898 121 c 0,36,37
 1720 -20 1720 -20 1510 -20 c 128,-1,38
 1300 -20 1300 -20 1183 121 c 0,39,40
 1162 146 1162 146 1147 173 c 1,41,42
 1119 146 1119 146 1088 121 c 0,43,44
 915 -20 915 -20 700 -20 c 0,0,1
1432 1937 m 1,45,-1
 1442 1937 l 1,46,-1
 1523 1626 l 1,47,-1
 1393 1570 l 1,48,-1
 1383 1570 l 1,49,-1
 1300 1880 l 1,50,-1
 1432 1937 l 1,45,-1
EndSplineSet
Validated: 1
EndChar

StartChar: wgrave
Encoding: 7809 7809 187
Width: 1840
Flags: W
HStem: -20 80<481.131 751.505 1131.72 1401.43> 1100 20G<541.827 598 1191.83 1248 1841.83 1898> 1507 20G<1130.33 1192.14>
VStem: 252 163<143.43 351.335>
DStem2: 175.277 -20 355.958 -20 0.207912 0.978148<332.17 1082.79> 825.903 -20 1005.96 -20 0.207912 0.978148<298.926 1082.66> 1187 1527 1044 1470 0.261536 -0.965194<17.6163 321.098> 1475.9 -20 1655.69 -20 0.207912 0.978148<225.658 1082.66>
LayerCount: 2
Fore
SplineSet
610 -20 m 0,0,1
 438 -20 438 -20 332 97 c 0,2,3
 252 184 252 184 252 302 c 0,4,5
 252 343 252 343 262 388 c 2,6,-1
 401 1039 l 1,7,-1
 588 1120 l 1,8,-1
 598 1120 l 1,9,-1
 421 286 l 2,10,11
 415 259 415 259 415 234 c 0,12,13
 415 170 415 170 455 124 c 0,14,15
 510 60 510 60 608 60 c 128,-1,16
 706 60 706 60 788 123.5 c 128,-1,17
 870 187 870 187 891 286 c 2,18,-1
 1051 1039 l 1,19,-1
 1238 1120 l 1,20,-1
 1248 1120 l 1,21,-1
 1071 286 l 2,22,23
 1065 259 1065 259 1065 234 c 0,24,25
 1065 170 1065 170 1105 124 c 0,26,27
 1160 60 1160 60 1258 60 c 128,-1,28
 1356 60 1356 60 1438 123.5 c 128,-1,29
 1520 187 1520 187 1541 286 c 2,30,-1
 1701 1039 l 1,31,-1
 1888 1120 l 1,32,-1
 1898 1120 l 1,33,-1
 1742 388 l 2,34,35
 1701 195 1701 195 1579 97 c 0,36,37
 1433 -20 1433 -20 1261 -20 c 0,38,39
 1095 -20 1095 -20 993 97 c 0,40,41
 979 113 979 113 968 131 c 1,42,43
 948 114 948 114 929 97 c 0,44,45
 784 -20 784 -20 610 -20 c 0,0,1
1177 1527 m 1,46,-1
 1187 1527 l 1,47,-1
 1267 1216 l 1,48,-1
 1138 1160 l 1,49,-1
 1128 1160 l 1,50,-1
 1044 1470 l 1,51,-1
 1177 1527 l 1,46,-1
EndSplineSet
Validated: 1
EndChar

StartChar: Wacute
Encoding: 7810 7810 188
Width: 2180
Flags: W
HStem: -20 90<541.74 874.221 1352.56 1683> 1510 20G<648.556 705 1458.56 1515 2268.56 2325>
VStem: 269 180<189.809 423.632>
DStem2: 175.997 -20 375.654 -20 0.207912 0.978148<400.418 1492.55> 985.654 -20 1185.65 -20 0.207912 0.978148<362.963 1492.62> 1319 1634 1442 1570 0.550881 0.834584<14.3449 363.055> 1795.65 -20 1996 -20 0.207912 0.978148<296.863 1492.62>
LayerCount: 2
Fore
SplineSet
700 -20 m 0,0,1
 490 -20 490 -20 363 121 c 0,2,3
 269 225 269 225 269 368 c 0,4,5
 269 419 269 419 281 474 c 2,6,-1
 486 1440 l 1,7,-1
 695 1530 l 1,8,-1
 705 1530 l 1,9,-1
 456 358 l 2,10,11
 449 323 449 323 449 292 c 0,12,13
 449 208 449 208 501 150 c 0,14,15
 573 70 573 70 699.5 70 c 128,-1,16
 826 70 826 70 932.5 150.5 c 128,-1,17
 1039 231 1039 231 1066 358 c 2,18,-1
 1296 1440 l 1,19,-1
 1505 1530 l 1,20,-1
 1515 1530 l 1,21,-1
 1266 358 l 2,22,23
 1259 323 1259 323 1259 292 c 0,24,25
 1259 208 1259 208 1311 150 c 0,26,27
 1383 70 1383 70 1509.5 70 c 128,-1,28
 1636 70 1636 70 1742.5 150.5 c 128,-1,29
 1849 231 1849 231 1876 358 c 2,30,-1
 2106 1440 l 1,31,-1
 2315 1530 l 1,32,-1
 2325 1530 l 1,33,-1
 2101 474 l 2,34,35
 2052 243 2052 243 1898 121 c 0,36,37
 1720 -20 1720 -20 1510 -20 c 128,-1,38
 1300 -20 1300 -20 1183 121 c 0,39,40
 1162 146 1162 146 1147 173 c 1,41,42
 1119 146 1119 146 1088 121 c 0,43,44
 915 -20 915 -20 700 -20 c 0,0,1
1529 1937 m 1,45,-1
 1642 1873 l 1,46,-1
 1442 1570 l 1,47,-1
 1432 1570 l 1,48,-1
 1319 1634 l 1,49,-1
 1519 1937 l 1,50,-1
 1529 1937 l 1,45,-1
EndSplineSet
Validated: 1
EndChar

StartChar: wacute
Encoding: 7811 7811 189
Width: 1840
Flags: W
HStem: -20 80<481.131 751.505 1131.72 1401.43> 1100 20G<541.827 598 1191.83 1248 1841.83 1898> 1507 20G<1240.8 1299.31>
VStem: 252 163<143.43 351.335>
DStem2: 175.277 -20 355.958 -20 0.207912 0.978148<332.17 1082.79> 825.903 -20 1005.96 -20 0.207912 0.978148<298.926 1082.66> 1054 1224 1177 1160 0.550881 0.834584<14.3449 363.055> 1475.9 -20 1655.69 -20 0.207912 0.978148<225.658 1082.66>
LayerCount: 2
Fore
SplineSet
610 -20 m 0,0,1
 438 -20 438 -20 332 97 c 0,2,3
 252 184 252 184 252 302 c 0,4,5
 252 343 252 343 262 388 c 2,6,-1
 401 1039 l 1,7,-1
 588 1120 l 1,8,-1
 598 1120 l 1,9,-1
 421 286 l 2,10,11
 415 259 415 259 415 234 c 0,12,13
 415 170 415 170 455 124 c 0,14,15
 510 60 510 60 608 60 c 128,-1,16
 706 60 706 60 788 123.5 c 128,-1,17
 870 187 870 187 891 286 c 2,18,-1
 1051 1039 l 1,19,-1
 1238 1120 l 1,20,-1
 1248 1120 l 1,21,-1
 1071 286 l 2,22,23
 1065 259 1065 259 1065 234 c 0,24,25
 1065 170 1065 170 1105 124 c 0,26,27
 1160 60 1160 60 1258 60 c 128,-1,28
 1356 60 1356 60 1438 123.5 c 128,-1,29
 1520 187 1520 187 1541 286 c 2,30,-1
 1701 1039 l 1,31,-1
 1888 1120 l 1,32,-1
 1898 1120 l 1,33,-1
 1742 388 l 2,34,35
 1701 195 1701 195 1579 97 c 0,36,37
 1433 -20 1433 -20 1261 -20 c 0,38,39
 1095 -20 1095 -20 993 97 c 0,40,41
 979 113 979 113 968 131 c 1,42,43
 948 114 948 114 929 97 c 0,44,45
 784 -20 784 -20 610 -20 c 0,0,1
1264 1527 m 1,46,-1
 1377 1463 l 1,47,-1
 1177 1160 l 1,48,-1
 1167 1160 l 1,49,-1
 1054 1224 l 1,50,-1
 1254 1527 l 1,51,-1
 1264 1527 l 1,46,-1
EndSplineSet
Validated: 1
EndChar

StartChar: Wdieresis
Encoding: 7812 7812 190
Width: 2180
Flags: W
HStem: -20 90<541.74 874.221 1352.56 1683> 1510 20G<648.556 705 1458.56 1515 2268.56 2325> 1640 227<1243.23 1389.64 1519.14 1665.57>
VStem: 269 180<189.809 423.632> 1202 229<1681.58 1825.8> 1479 229<1682.58 1826.8>
DStem2: 175.997 -20 375.654 -20 0.207912 0.978148<400.418 1492.55> 985.654 -20 1185.65 -20 0.207912 0.978148<362.963 1492.62> 1795.65 -20 1996 -20 0.207912 0.978148<296.863 1492.62>
LayerCount: 2
Fore
SplineSet
700 -20 m 0,0,1
 490 -20 490 -20 363 121 c 0,2,3
 269 225 269 225 269 368 c 0,4,5
 269 419 269 419 281 474 c 2,6,-1
 486 1440 l 1,7,-1
 695 1530 l 1,8,-1
 705 1530 l 1,9,-1
 456 358 l 2,10,11
 449 323 449 323 449 292 c 0,12,13
 449 208 449 208 501 150 c 0,14,15
 573 70 573 70 699.5 70 c 128,-1,16
 826 70 826 70 932.5 150.5 c 128,-1,17
 1039 231 1039 231 1066 358 c 2,18,-1
 1296 1440 l 1,19,-1
 1505 1530 l 1,20,-1
 1515 1530 l 1,21,-1
 1266 358 l 2,22,23
 1259 323 1259 323 1259 292 c 0,24,25
 1259 208 1259 208 1311 150 c 0,26,27
 1383 70 1383 70 1509.5 70 c 128,-1,28
 1636 70 1636 70 1742.5 150.5 c 128,-1,29
 1849 231 1849 231 1876 358 c 2,30,-1
 2106 1440 l 1,31,-1
 2315 1530 l 1,32,-1
 2325 1530 l 1,33,-1
 2101 474 l 2,34,35
 2052 243 2052 243 1898 121 c 0,36,37
 1720 -20 1720 -20 1510 -20 c 128,-1,38
 1300 -20 1300 -20 1183 121 c 0,39,40
 1162 146 1162 146 1147 173 c 1,41,42
 1119 146 1119 146 1088 121 c 0,43,44
 915 -20 915 -20 700 -20 c 0,0,1
1618 1868 m 128,-1,46
 1664 1868 1664 1868 1690 1835 c 0,47,48
 1708 1812 1708 1812 1708 1779 c 0,49,50
 1708 1767 1708 1767 1706 1755 c 0,51,52
 1696 1709 1696 1709 1655.5 1675 c 128,-1,53
 1615 1641 1615 1641 1569 1641 c 0,54,55
 1524 1641 1524 1641 1498 1675 c 0,56,57
 1479 1699 1479 1699 1479 1730 c 0,58,59
 1480 1743 1480 1743 1482 1755 c 0,60,61
 1492 1801 1492 1801 1532 1834.5 c 128,-1,45
 1572 1868 1572 1868 1618 1868 c 128,-1,46
1341 1867 m 128,-1,63
 1387 1867 1387 1867 1413 1834 c 0,64,65
 1431 1811 1431 1811 1431 1778 c 0,66,67
 1431 1766 1431 1766 1429 1754 c 0,68,69
 1419 1708 1419 1708 1378.5 1674 c 128,-1,70
 1338 1640 1338 1640 1292 1640 c 0,71,72
 1247 1640 1247 1640 1221 1674 c 0,73,74
 1202 1698 1202 1698 1202 1729 c 0,75,76
 1203 1742 1203 1742 1205 1754 c 0,77,78
 1215 1800 1215 1800 1255 1833.5 c 128,-1,62
 1295 1867 1295 1867 1341 1867 c 128,-1,63
EndSplineSet
Validated: 1
EndChar

StartChar: wdieresis
Encoding: 7813 7813 191
Width: 1840
Flags: W
HStem: -20 80<481.131 751.505 1131.72 1401.43> 1100 20G<541.827 598 1191.83 1248 1841.83 1898> 1230 227<993.232 1139.64 1269.14 1415.57>
VStem: 252 163<143.43 351.335> 952 229<1271.58 1415.8> 1229 229<1272.58 1416.8>
DStem2: 175.277 -20 355.958 -20 0.207912 0.978148<332.17 1082.79> 825.903 -20 1005.96 -20 0.207912 0.978148<298.926 1082.66> 1475.9 -20 1655.69 -20 0.207912 0.978148<225.658 1082.66>
LayerCount: 2
Fore
SplineSet
610 -20 m 0,0,1
 438 -20 438 -20 332 97 c 0,2,3
 252 184 252 184 252 302 c 0,4,5
 252 343 252 343 262 388 c 2,6,-1
 401 1039 l 1,7,-1
 588 1120 l 1,8,-1
 598 1120 l 1,9,-1
 421 286 l 2,10,11
 415 259 415 259 415 234 c 0,12,13
 415 170 415 170 455 124 c 0,14,15
 510 60 510 60 608 60 c 128,-1,16
 706 60 706 60 788 123.5 c 128,-1,17
 870 187 870 187 891 286 c 2,18,-1
 1051 1039 l 1,19,-1
 1238 1120 l 1,20,-1
 1248 1120 l 1,21,-1
 1071 286 l 2,22,23
 1065 259 1065 259 1065 234 c 0,24,25
 1065 170 1065 170 1105 124 c 0,26,27
 1160 60 1160 60 1258 60 c 128,-1,28
 1356 60 1356 60 1438 123.5 c 128,-1,29
 1520 187 1520 187 1541 286 c 2,30,-1
 1701 1039 l 1,31,-1
 1888 1120 l 1,32,-1
 1898 1120 l 1,33,-1
 1742 388 l 2,34,35
 1701 195 1701 195 1579 97 c 0,36,37
 1433 -20 1433 -20 1261 -20 c 0,38,39
 1095 -20 1095 -20 993 97 c 0,40,41
 979 113 979 113 968 131 c 1,42,43
 948 114 948 114 929 97 c 0,44,45
 784 -20 784 -20 610 -20 c 0,0,1
1368 1458 m 128,-1,47
 1414 1458 1414 1458 1440 1425 c 0,48,49
 1458 1402 1458 1402 1458 1369 c 0,50,51
 1458 1357 1458 1357 1456 1345 c 0,52,53
 1446 1299 1446 1299 1405.5 1265 c 128,-1,54
 1365 1231 1365 1231 1319 1231 c 0,55,56
 1274 1231 1274 1231 1248 1265 c 0,57,58
 1229 1289 1229 1289 1229 1320 c 0,59,60
 1230 1333 1230 1333 1232 1345 c 0,61,62
 1242 1391 1242 1391 1282 1424.5 c 128,-1,46
 1322 1458 1322 1458 1368 1458 c 128,-1,47
1091 1457 m 128,-1,64
 1137 1457 1137 1457 1163 1424 c 0,65,66
 1181 1401 1181 1401 1181 1368 c 0,67,68
 1181 1356 1181 1356 1179 1344 c 0,69,70
 1169 1298 1169 1298 1128.5 1264 c 128,-1,71
 1088 1230 1088 1230 1042 1230 c 0,72,73
 997 1230 997 1230 971 1264 c 0,74,75
 952 1288 952 1288 952 1319 c 0,76,77
 953 1332 953 1332 955 1344 c 0,78,79
 965 1390 965 1390 1005 1423.5 c 128,-1,63
 1045 1457 1045 1457 1091 1457 c 128,-1,64
EndSplineSet
Validated: 1
EndChar

StartChar: Ygrave
Encoding: 7922 7922 192
Width: 1230
Flags: W
HStem: -20 21G<511 567.444> 1510 20G<588.556 645 1378.56 1435>
VStem: 306 179<658.259 872.691>
DStem2: 115.347 -20 316.003 -20 0.207912 0.978148<878.189 1492.68> 511 -20 710.87 -20 0.207912 0.978148<133.566 475.024> 1014 1937 872 1880 0.252042 -0.967716<19.3699 321.375> 906.003 -20 1105.35 -20 0.207912 0.978148<756.993 1492.55>
LayerCount: 2
Fore
SplineSet
521 -20 m 1,0,-1
 511 -20 l 1,1,-1
 608 439 l 1,2,3
 485 477 485 477 408 571 c 0,4,5
 306 695 306 695 306 836 c 0,6,7
 306 877 306 877 316 924 c 2,8,-1
 426 1440 l 1,9,-1
 635 1530 l 1,10,-1
 645 1530 l 1,11,-1
 492 808 l 2,12,13
 485 775 485 775 485 742 c 0,14,15
 485 658 485 658 537 600 c 0,16,17
 609 520 609 520 725.5 520 c 128,-1,18
 842 520 842 520 949 601 c 0,19,20
 1055 681 1055 681 1082 808 c 2,21,-1
 1216 1440 l 1,22,-1
 1425 1530 l 1,23,-1
 1435 1530 l 1,24,-1
 1306 924 l 2,25,26
 1257 695 1257 695 1103 571 c 0,27,28
 970 463 970 463 808 438 c 1,29,-1
 730 70 l 1,30,-1
 521 -20 l 1,0,-1
1004 1937 m 1,31,-1
 1014 1937 l 1,32,-1
 1095 1626 l 1,33,-1
 965 1570 l 1,34,-1
 955 1570 l 1,35,-1
 872 1880 l 1,36,-1
 1004 1937 l 1,31,-1
EndSplineSet
Validated: 1
EndChar

StartChar: ygrave
Encoding: 7923 7923 193
Width: 1210
Flags: W
HStem: -410 80<284 667.749> -20 80<481.549 752.096> 1100 20G<541.827 598 1191.83 1248> 1507 20G<813.333 875.145>
VStem: 252 163<143.43 351.335>
DStem2: 92.3799 -410 273.061 -410 0.207912 0.978148<730.883 1481.5> 870 1527 727 1470 0.261536 -0.965194<17.6163 321.098> 743.185 -410 923.277 -410 0.207912 0.978148<228.176 489.701 561.62 1481.33>
LayerCount: 2
Fore
SplineSet
233 -410 m 1,0,-1
 235 -400 l 1,1,-1
 284 -330 l 1,2,-1
 525 -330 l 2,3,4
 623 -330 623 -330 704 -267 c 0,5,6
 787 -203 787 -203 808 -104 c 2,7,-1
 845 69 l 1,8,9
 734 -20 734 -20 611 -20 c 0,10,11
 439 -20 439 -20 332 97 c 0,12,13
 252 184 252 184 252 302 c 0,14,15
 252 343 252 343 262 388 c 2,16,-1
 401 1039 l 1,17,-1
 588 1120 l 1,18,-1
 598 1120 l 1,19,-1
 421 286 l 2,20,21
 415 259 415 259 415 234 c 0,22,23
 415 170 415 170 455 124 c 0,24,25
 510 60 510 60 608 60 c 128,-1,26
 706 60 706 60 788 123.5 c 128,-1,27
 870 187 870 187 891 286 c 2,28,-1
 1051 1039 l 1,29,-1
 1238 1120 l 1,30,-1
 1248 1120 l 1,31,-1
 1010 -2 l 2,32,33
 968 -195 968 -195 846 -293 c 0,34,35
 700 -410 700 -410 528 -410 c 2,36,-1
 233 -410 l 1,0,-1
860 1527 m 1,37,-1
 870 1527 l 1,38,-1
 950 1216 l 1,39,-1
 821 1160 l 1,40,-1
 811 1160 l 1,41,-1
 727 1470 l 1,42,-1
 860 1527 l 1,37,-1
EndSplineSet
Validated: 1
EndChar

StartChar: AE
Encoding: 198 198 194
Width: 1688
Flags: W
HStem: -20 21G<176 232.444> 0 90<1047 1600> 710 90<550 979 1198 1701> 1420 90<1330 1852> 1440 90<816.598 1125.38>
DStem2: 176 -20 375.87 -20 0.207912 0.978148<133.566 787.856 879.84 1330.02> 823.749 -20 1023.62 -20 0.207912 0.978148<154.013 746.326 879.892 1469.42>
LayerCount: 2
Fore
SplineSet
1600 0 m 1,0,-1
 828 0 l 1,1,-1
 979 710 l 1,2,-1
 531 710 l 1,3,-1
 395 70 l 1,4,-1
 186 -20 l 1,5,-1
 176 -20 l 1,6,-1
 400 1036 l 2,7,8
 449 1267 449 1267 603 1389 c 0,9,10
 781 1530 781 1530 991 1530 c 0,11,12
 1090 1530 1090 1530 1156 1510 c 1,13,-1
 1909 1510 l 1,14,-1
 1907 1500 l 1,15,-1
 1852 1420 l 1,16,-1
 1330 1420 l 1,17,-1
 1198 800 l 1,18,-1
 1758 800 l 1,19,-1
 1756 790 l 1,20,-1
 1701 710 l 1,21,-1
 1179 710 l 1,22,-1
 1047 90 l 1,23,-1
 1657 90 l 1,24,-1
 1655 80 l 1,25,-1
 1600 0 l 1,0,-1
1127 1409 m 1,26,27
 1070 1440 1070 1440 992 1440 c 0,28,29
 866 1440 866 1440 759 1360 c 0,30,31
 652 1278 652 1278 625 1152 c 2,32,-1
 550 800 l 1,33,-1
 998 800 l 1,34,-1
 1127 1409 l 1,26,27
EndSplineSet
Validated: 1
EndChar

StartChar: Eth
Encoding: 208 208 195
Width: 1350
Flags: W
HStem: 0 90<419 870.661> 710 90<248 351 570 843> 1420 90<702 1136.5>
VStem: 1228 188<957.094 1283.52>
DStem2: 200 0 399.87 0 0.207912 0.978148<133.566 725.879 859.445 1472.15> 979.654 0 1190 0 0.207912 0.978148<300.091 1170.23>
CounterMasks: 1 e0
LayerCount: 2
Fore
SplineSet
419 90 m 5,0,-1
 694 90 l 6,1,2
 819 90 819 90 926 170 c 132,-1,3
 1033 250 1033 250 1060 378 c 6,4,-1
 1221 1132 l 6,5,6
 1228 1166 1228 1166 1228 1198 c 4,7,8
 1228 1282 1228 1282 1176 1340 c 4,9,10
 1104 1420 1104 1420 977 1420 c 6,11,-1
 702 1420 l 5,12,-1
 570 800 l 5,13,-1
 900 800 l 5,14,-1
 898 790 l 5,15,-1
 843 710 l 5,16,-1
 551 710 l 5,17,-1
 419 90 l 5,0,-1
200 0 m 5,18,-1
 351 710 l 5,19,-1
 191 710 l 5,20,-1
 193 720 l 5,21,-1
 248 800 l 5,22,-1
 370 800 l 5,23,-1
 506 1440 l 5,24,-1
 669 1510 l 5,25,-1
 986 1510 l 6,26,27
 1197 1510 1197 1510 1314 1369 c 4,28,29
 1416 1247 1416 1247 1416 1105 c 4,30,31
 1416 1061 1416 1061 1406 1016 c 6,32,-1
 1295 494 l 6,33,34
 1246 265 1246 265 1092 141 c 4,35,36
 916 0 916 0 705 0 c 6,37,-1
 200 0 l 5,18,-1
EndSplineSet
Validated: 1
EndChar

StartChar: Dcroat
Encoding: 272 272 196
Width: 1350
Flags: W
HStem: 0 90<419 870.661> 710 90<248 351 570 843> 1420 90<702 1136.5>
VStem: 1228 188<957.094 1283.52>
DStem2: 200 0 399.87 0 0.207912 0.978148<133.566 725.879 859.445 1472.15> 979.654 0 1190 0 0.207912 0.978148<300.091 1170.23>
CounterMasks: 1 e0
LayerCount: 2
Fore
SplineSet
419 90 m 1,0,-1
 694 90 l 2,1,2
 819 90 819 90 926 170 c 128,-1,3
 1033 250 1033 250 1060 378 c 2,4,-1
 1221 1132 l 2,5,6
 1228 1166 1228 1166 1228 1198 c 0,7,8
 1228 1282 1228 1282 1176 1340 c 0,9,10
 1104 1420 1104 1420 977 1420 c 2,11,-1
 702 1420 l 1,12,-1
 570 800 l 1,13,-1
 900 800 l 1,14,-1
 898 790 l 1,15,-1
 843 710 l 1,16,-1
 551 710 l 1,17,-1
 419 90 l 1,0,-1
200 0 m 1,18,-1
 351 710 l 1,19,-1
 191 710 l 1,20,-1
 193 720 l 1,21,-1
 248 800 l 1,22,-1
 370 800 l 1,23,-1
 506 1440 l 1,24,-1
 669 1510 l 1,25,-1
 986 1510 l 2,26,27
 1197 1510 1197 1510 1314 1369 c 0,28,29
 1416 1247 1416 1247 1416 1105 c 0,30,31
 1416 1061 1416 1061 1406 1016 c 2,32,-1
 1295 494 l 2,33,34
 1246 265 1246 265 1092 141 c 0,35,36
 916 0 916 0 705 0 c 2,37,-1
 200 0 l 1,18,-1
EndSplineSet
Validated: 1
EndChar

StartChar: Hbar
Encoding: 294 294 197
Width: 1400
Flags: W
HStem: -20 21G<196 252.444 996 1052.44> 710 90<570 1151> 1265 90<366 469 688 1269 1488 1591> 1510 20G<668.556 725 1468.56 1525>
DStem2: 196 -20 395.87 -20 0.207912 0.978148<133.566 787.856 879.84 1313.68 1447.25 1492.55> 996 -20 1195.87 -20 0.207912 0.978148<133.566 746.274 838.258 1313.68 1447.25 1492.55>
LayerCount: 2
Fore
SplineSet
206 -20 m 1,0,-1
 196 -20 l 1,1,-1
 469 1265 l 1,2,-1
 309 1265 l 1,3,-1
 311 1275 l 1,4,-1
 366 1355 l 1,5,-1
 488 1355 l 1,6,-1
 506 1440 l 1,7,-1
 715 1530 l 1,8,-1
 725 1530 l 1,9,-1
 688 1355 l 1,10,-1
 1288 1355 l 1,11,-1
 1306 1440 l 1,12,-1
 1515 1530 l 1,13,-1
 1525 1530 l 1,14,-1
 1488 1355 l 1,15,-1
 1648 1355 l 1,16,-1
 1646 1345 l 1,17,-1
 1591 1265 l 1,18,-1
 1469 1265 l 1,19,-1
 1215 70 l 1,20,-1
 1006 -20 l 1,21,-1
 996 -20 l 1,22,-1
 1151 710 l 1,23,-1
 551 710 l 1,24,-1
 415 70 l 1,25,-1
 206 -20 l 1,0,-1
669 1265 m 1,26,-1
 570 800 l 1,27,-1
 1170 800 l 1,28,-1
 1269 1265 l 1,29,-1
 669 1265 l 1,26,-1
EndSplineSet
Validated: 1
EndChar

StartChar: IJ
Encoding: 306 306 198
Width: 1660
Flags: W
HStem: -20 90<876.32 1193.36> 1420 90<994 1602> 1510 20G<668.556 725>
VStem: 607 192<197.75 367>
DStem2: 196 -20 395.87 -20 0.207912 0.978148<133.566 1492.55> 1295.65 -20 1496 -20 0.207912 0.978148<290.3 1472.23>
LayerCount: 2
Fore
SplineSet
1024 -20 m 128,-1,1
 818 -20 818 -20 702 121 c 0,2,3
 608 235 608 235 607 367 c 1,4,-1
 820 459 l 1,5,-1
 830 459 l 1,6,-1
 808 358 l 2,7,8
 799 317 799 317 799 283 c 0,9,10
 800 206 800 206 842 150 c 0,11,12
 902 70 902 70 1023.5 70 c 128,-1,13
 1145 70 1145 70 1247 150 c 0,14,15
 1349 231 1349 231 1376 358 c 18,16,-1
 1602 1420 l 1,17,-1
 937 1420 l 1,18,-1
 939 1430 l 1,19,-1
 994 1510 l 1,20,-1
 1821 1510 l 1,21,-1
 1601 474 l 2,22,23
 1552 242 1552 242 1403 121 c 0,24,0
 1230 -20 1230 -20 1024 -20 c 128,-1,1
196 -20 m 1,25,-1
 506 1440 l 1,26,-1
 715 1530 l 1,27,-1
 725 1530 l 1,28,-1
 415 70 l 1,29,-1
 206 -20 l 1,30,-1
 196 -20 l 1,25,-1
EndSplineSet
Validated: 1
EndChar

StartChar: lslash
Encoding: 322 322 199
Width: 684
Flags: W
HStem: -20 21G<248 304.173> 1510 20G<700.827 757>
VStem: 182 650
DStem2: 196 685 182 599 0.920487 0.390773<0 189.204 455.242 644.054> 248 -20 427.783 -20 0.207912 0.978148<120.189 726.858 816.885 849.21 940.008 1501.77>
LayerCount: 2
Fore
SplineSet
258 -20 m 1,0,-1
 248 -20 l 1,1,-1
 399 691 l 1,2,-1
 182 599 l 1,3,-1
 179 608 l 1,4,-1
 196 685 l 1,5,-1
 418 779 l 1,6,-1
 560 1449 l 1,7,-1
 747 1530 l 1,8,-1
 757 1530 l 1,9,-1
 615 863 l 1,10,-1
 832 955 l 1,11,-1
 835 946 l 1,12,-1
 818 868 l 1,13,-1
 597 774 l 1,14,-1
 445 61 l 1,15,-1
 258 -20 l 1,0,-1
EndSplineSet
Validated: 1
EndChar

StartChar: Lslash
Encoding: 321 321 200
Width: 1020
Flags: W
HStem: 0 90<419 972> 1510 20G<668.556 725>
DStem2: 200 0 399.87 0 0.207912 0.978148<133.566 638.016 739.219 774.517 875.72 1472.15> 266 686 333 624 0.921007 0.389546<0 37.5557 333.39 638.026>
LayerCount: 2
Fore
SplineSet
200 0 m 1,0,-1
 333 624 l 1,1,-1
 250 589 l 1,2,-1
 247 598 l 1,3,-1
 266 686 l 1,4,-1
 354 723 l 1,5,-1
 506 1440 l 1,6,-1
 715 1530 l 1,7,-1
 725 1530 l 1,8,-1
 573 816 l 1,9,-1
 902 955 l 1,10,-1
 905 946 l 1,11,-1
 886 858 l 1,12,-1
 552 717 l 1,13,-1
 419 90 l 1,14,-1
 1029 90 l 1,15,-1
 1027 80 l 1,16,-1
 972 0 l 1,17,-1
 200 0 l 1,0,-1
EndSplineSet
Validated: 1
EndChar

StartChar: Eng
Encoding: 330 330 201
Width: 1370
Flags: W
HStem: -410 21G<601 714> -20 21G<176 232.444> 1440 90<817.582 1149.17>
VStem: 1242 180<1086.46 1320.19>
DStem2: 93.1029 -410 292.973 -410 0.207912 0.978148<532.279 1728.56> 902.654 -410 1103 -410 0.207912 0.978148<296.238 1624.5>
LayerCount: 2
Fore
SplineSet
186 -20 m 1,0,-1
 176 -20 l 9,1,-1
 400 1036 l 2,2,3
 448 1267 448 1267 602 1389 c 0,4,5
 780 1530 780 1530 990.5 1530 c 128,-1,6
 1201 1530 1201 1530 1328 1389 c 0,7,8
 1422 1285 1422 1285 1422 1142 c 0,9,10
 1422 1091 1422 1091 1410 1036 c 2,11,-1
 1208 84 l 18,12,13
 1159 -147 1159 -147 1006 -269 c 0,14,15
 829 -410 829 -410 599 -410 c 1,16,-1
 601 -400 l 1,17,-1
 655 -321 l 1,18,19
 769 -302 769 -302 850 -240 c 0,20,21
 956 -158 956 -158 983 -32 c 26,22,-1
 1235 1152 l 2,23,24
 1242 1187 1242 1187 1242 1218 c 0,25,26
 1242 1302 1242 1302 1190 1360 c 0,27,28
 1118 1440 1118 1440 991.5 1440 c 128,-1,29
 865 1440 865 1440 758.5 1359.5 c 128,-1,30
 652 1279 652 1279 625 1152 c 2,31,-1
 395 70 l 17,32,-1
 186 -20 l 1,0,-1
EndSplineSet
Validated: 1
EndChar

